G04 #@! TF.GenerationSoftware,KiCad,Pcbnew,9.0.1*
G04 #@! TF.CreationDate,2025-04-23T11:21:27+02:00*
G04 #@! TF.ProjectId,LTC3119-breakout,4c544333-3131-4392-9d62-7265616b6f75,rev?*
G04 #@! TF.SameCoordinates,Original*
G04 #@! TF.FileFunction,Copper,L2,Inr*
G04 #@! TF.FilePolarity,Positive*
%FSLAX46Y46*%
G04 Gerber Fmt 4.6, Leading zero omitted, Abs format (unit mm)*
G04 Created by KiCad (PCBNEW 9.0.1) date 2025-04-23 11:21:27*
%MOMM*%
%LPD*%
G01*
G04 APERTURE LIST*
G04 #@! TA.AperFunction,ComponentPad*
%ADD10R,1.700000X1.700000*%
G04 #@! TD*
G04 #@! TA.AperFunction,ComponentPad*
%ADD11C,1.700000*%
G04 #@! TD*
G04 #@! TA.AperFunction,ComponentPad*
%ADD12C,5.600000*%
G04 #@! TD*
G04 #@! TA.AperFunction,ViaPad*
%ADD13C,0.500000*%
G04 #@! TD*
G04 #@! TA.AperFunction,ViaPad*
%ADD14C,0.450000*%
G04 #@! TD*
G04 APERTURE END LIST*
D10*
X125530000Y-118650000D03*
D11*
X128070000Y-118650000D03*
X130610000Y-118650000D03*
X133150000Y-118650000D03*
D12*
X160000000Y-76400000D03*
D10*
X146690000Y-118650000D03*
D11*
X149230000Y-118650000D03*
X151770000Y-118650000D03*
X154310000Y-118650000D03*
D12*
X119900000Y-76400000D03*
D13*
X132000000Y-115300000D03*
X132000000Y-111300000D03*
X143000000Y-94300000D03*
X154750000Y-95550000D03*
X154750000Y-90550000D03*
X154750000Y-96550000D03*
X145100000Y-91700000D03*
X154750000Y-91550000D03*
X153750000Y-86550000D03*
X154750000Y-98550000D03*
X152750000Y-87550000D03*
X154750000Y-87550000D03*
X143000000Y-92300000D03*
X152750000Y-86550000D03*
X152750000Y-91550000D03*
X153750000Y-98550000D03*
X152750000Y-88550000D03*
X153750000Y-96550000D03*
X153750000Y-95550000D03*
X143700000Y-92300000D03*
X153750000Y-88550000D03*
X152750000Y-90550000D03*
X144400000Y-92300000D03*
X153750000Y-97550000D03*
X154750000Y-88550000D03*
X154750000Y-93550000D03*
X143000000Y-91700000D03*
X144400000Y-91700000D03*
X153750000Y-93550000D03*
X153750000Y-90550000D03*
X153750000Y-94550000D03*
X152750000Y-93550000D03*
X153750000Y-87550000D03*
X152750000Y-94550000D03*
X152750000Y-89550000D03*
X154750000Y-92550000D03*
X145100000Y-92300000D03*
X154750000Y-86550000D03*
X154750000Y-94550000D03*
X152750000Y-95550000D03*
X154750000Y-97550000D03*
X153750000Y-92550000D03*
X153750000Y-91550000D03*
X154750000Y-89550000D03*
X153750000Y-89550000D03*
X152750000Y-92550000D03*
X143700000Y-91700000D03*
X150500000Y-114300000D03*
X162500000Y-118300000D03*
X151000000Y-98300000D03*
X122000000Y-117300000D03*
X116000000Y-117300000D03*
X130000000Y-109300000D03*
X158500000Y-118300000D03*
X143000000Y-119300000D03*
X160500000Y-116300000D03*
X158500000Y-120300000D03*
X158500000Y-116300000D03*
X132500000Y-99100000D03*
X160500000Y-120300000D03*
X122000000Y-115300000D03*
X118000000Y-119300000D03*
X162500000Y-116300000D03*
X116000000Y-119300000D03*
X133600000Y-99100000D03*
X122000000Y-119300000D03*
X120000000Y-119300000D03*
X124000000Y-115300000D03*
X152500000Y-114300000D03*
X144000000Y-120300000D03*
X116000000Y-115300000D03*
X162500000Y-120300000D03*
X141000000Y-111300000D03*
X146500000Y-114300000D03*
X131400000Y-100200000D03*
X142000000Y-112300000D03*
X141000000Y-109300000D03*
X126000000Y-115300000D03*
X132000000Y-109300000D03*
X132500000Y-100200000D03*
X160500000Y-118300000D03*
X132000000Y-113300000D03*
X133600000Y-100200000D03*
X150100000Y-98300000D03*
X131400000Y-99100000D03*
X134500000Y-94900000D03*
X143000000Y-88450000D03*
X143300000Y-96700000D03*
X123500000Y-91300000D03*
X122500000Y-86300000D03*
X123500000Y-92300000D03*
X122500000Y-90300000D03*
X123500000Y-99300000D03*
X122500000Y-96300000D03*
X122500000Y-98300000D03*
X124500000Y-92300000D03*
X122500000Y-87300000D03*
X133700000Y-94300000D03*
X124500000Y-88300000D03*
X124500000Y-87300000D03*
X122500000Y-97300000D03*
X132800000Y-92300000D03*
X122500000Y-88300000D03*
X123500000Y-90300000D03*
X124500000Y-90300000D03*
X122500000Y-94300000D03*
X134600000Y-92300000D03*
X134000000Y-91700000D03*
X133400000Y-92300000D03*
X122500000Y-92300000D03*
X123500000Y-93300000D03*
X134600000Y-91700000D03*
X123500000Y-98300000D03*
X123500000Y-94300000D03*
X124500000Y-91300000D03*
X123500000Y-96300000D03*
X132800000Y-91700000D03*
X123500000Y-89300000D03*
X124500000Y-86300000D03*
X122500000Y-93300000D03*
X123500000Y-95300000D03*
X123500000Y-86300000D03*
X124500000Y-89300000D03*
X123500000Y-88300000D03*
X134000000Y-92300000D03*
X123500000Y-87300000D03*
X122500000Y-91300000D03*
X123500000Y-97300000D03*
X133400000Y-91700000D03*
X122500000Y-95300000D03*
X122500000Y-89300000D03*
X122500000Y-99300000D03*
X137325000Y-119350000D03*
D14*
X134000000Y-113600000D03*
X144300000Y-111500000D03*
D13*
X157225000Y-115700000D03*
D14*
X136000000Y-111500000D03*
D13*
X130450000Y-111500000D03*
X148150000Y-110300000D03*
D14*
X143600000Y-116300000D03*
X134900000Y-116300000D03*
X135400000Y-117000000D03*
X143700000Y-117000000D03*
D13*
X141200000Y-113550000D03*
X132425000Y-108000000D03*
X149225000Y-112250000D03*
X141600000Y-97800000D03*
X137500000Y-84800000D03*
X137500000Y-74800000D03*
X137500000Y-76800000D03*
X138800000Y-94600000D03*
X144500000Y-72800000D03*
X118500000Y-84800000D03*
X140500000Y-82800000D03*
X132500000Y-74800000D03*
X137900000Y-94600000D03*
X150500000Y-74800000D03*
X140500000Y-83800000D03*
X130500000Y-72800000D03*
X140500000Y-85800000D03*
X148500000Y-74800000D03*
X138500000Y-78800000D03*
X140500000Y-72800000D03*
X162500000Y-80800000D03*
X118500000Y-80800000D03*
X139600000Y-90700000D03*
X138500000Y-87800000D03*
X116500000Y-80800000D03*
X139500000Y-86800000D03*
X139500000Y-85800000D03*
X154500000Y-78800000D03*
X137500000Y-86800000D03*
X138500000Y-73800000D03*
X128500000Y-74800000D03*
X138500000Y-77800000D03*
X162500000Y-100800000D03*
X137900000Y-92000000D03*
X120500000Y-82800000D03*
X139500000Y-82800000D03*
X139500000Y-75800000D03*
X122500000Y-80800000D03*
X140500000Y-74800000D03*
X140500000Y-76800000D03*
X139500000Y-87800000D03*
X140500000Y-80800000D03*
X137500000Y-72800000D03*
X137900000Y-93300000D03*
X122875000Y-112300000D03*
X162500000Y-92800000D03*
X140500000Y-75800000D03*
X137500000Y-83800000D03*
X139500000Y-84800000D03*
X142500000Y-74800000D03*
X137900000Y-90700000D03*
X118500000Y-82800000D03*
X152500000Y-84800000D03*
X122500000Y-82800000D03*
X162500000Y-94800000D03*
X139600000Y-94600000D03*
X138800000Y-92000000D03*
X134500000Y-74800000D03*
X138500000Y-75800000D03*
X120500000Y-84800000D03*
X126500000Y-74800000D03*
X150500000Y-80800000D03*
X124500000Y-76800000D03*
X162500000Y-82800000D03*
X137500000Y-78800000D03*
X126500000Y-72800000D03*
X138500000Y-85800000D03*
X139600000Y-93300000D03*
X139500000Y-76800000D03*
X152500000Y-76800000D03*
X136500000Y-74800000D03*
X158500000Y-82800000D03*
X152500000Y-82800000D03*
X126500000Y-84800000D03*
X156500000Y-84800000D03*
X128500000Y-72800000D03*
X139500000Y-73800000D03*
X137500000Y-82800000D03*
X126500000Y-78800000D03*
X138500000Y-81800000D03*
X156500000Y-80800000D03*
X139500000Y-74800000D03*
X162500000Y-98800000D03*
X160500000Y-80800000D03*
X138500000Y-86800000D03*
X152500000Y-74800000D03*
X158500000Y-84800000D03*
X137900000Y-89400000D03*
X146500000Y-74800000D03*
X146500000Y-72800000D03*
X140500000Y-79800000D03*
X137500000Y-75800000D03*
X124500000Y-78800000D03*
X138800000Y-93300000D03*
X144500000Y-74800000D03*
X139500000Y-83800000D03*
X158500000Y-80800000D03*
X116500000Y-84800000D03*
X160500000Y-84800000D03*
X134500000Y-72800000D03*
X138800000Y-90700000D03*
X139500000Y-77800000D03*
X152500000Y-78800000D03*
X136500000Y-72800000D03*
X136500000Y-73800000D03*
X140500000Y-77800000D03*
X139500000Y-80800000D03*
X130500000Y-74800000D03*
X140500000Y-78800000D03*
X152500000Y-72800000D03*
X150500000Y-82800000D03*
X122500000Y-84800000D03*
X139600000Y-92000000D03*
X126500000Y-80800000D03*
X140500000Y-81800000D03*
X137900000Y-95900000D03*
X124500000Y-74800000D03*
X137500000Y-80800000D03*
X116500000Y-100800000D03*
X132500000Y-72800000D03*
X140500000Y-73800000D03*
X148500000Y-72800000D03*
X124500000Y-72800000D03*
X138500000Y-72800000D03*
X140500000Y-84800000D03*
X162500000Y-96800000D03*
X116500000Y-82800000D03*
X137500000Y-79800000D03*
X162500000Y-90800000D03*
X139500000Y-79800000D03*
X126500000Y-82800000D03*
X140500000Y-86800000D03*
X137500000Y-81800000D03*
X138800000Y-95900000D03*
X138500000Y-76800000D03*
X138500000Y-83800000D03*
X139600000Y-95900000D03*
X126500000Y-76800000D03*
X150500000Y-84800000D03*
X138500000Y-82800000D03*
X150500000Y-72800000D03*
X150500000Y-76800000D03*
X139500000Y-78800000D03*
X150500000Y-78800000D03*
X138500000Y-80800000D03*
X139500000Y-72800000D03*
X162500000Y-84800000D03*
X138500000Y-74800000D03*
X137500000Y-77800000D03*
X154500000Y-72800000D03*
X139600000Y-89400000D03*
X160500000Y-82800000D03*
X124500000Y-82800000D03*
X162500000Y-88800000D03*
X154500000Y-82800000D03*
X154500000Y-76800000D03*
X156500000Y-82800000D03*
X138800000Y-89400000D03*
X137500000Y-85800000D03*
X142500000Y-72800000D03*
X138500000Y-84800000D03*
X124500000Y-84800000D03*
X120500000Y-80800000D03*
X124500000Y-80800000D03*
X139500000Y-81800000D03*
X162500000Y-86800000D03*
X137500000Y-73800000D03*
X138500000Y-79800000D03*
X154500000Y-80800000D03*
X152500000Y-80800000D03*
X154500000Y-84800000D03*
X136000000Y-120300000D03*
X136000000Y-118300000D03*
G04 #@! TA.AperFunction,Conductor*
G36*
X164362539Y-71940185D02*
G01*
X164408294Y-71992989D01*
X164419500Y-72044500D01*
X164419500Y-120795500D01*
X164399815Y-120862539D01*
X164347011Y-120908294D01*
X164295500Y-120919500D01*
X162887199Y-120919500D01*
X162820160Y-120899815D01*
X162774405Y-120847011D01*
X162764461Y-120777853D01*
X162793486Y-120714297D01*
X162801791Y-120706471D01*
X162801567Y-120706247D01*
X162807314Y-120700500D01*
X162900500Y-120607314D01*
X162966392Y-120493186D01*
X163000500Y-120365892D01*
X163000500Y-120234108D01*
X162966392Y-120106814D01*
X162900500Y-119992686D01*
X162807314Y-119899500D01*
X162722442Y-119850499D01*
X162693187Y-119833608D01*
X162628931Y-119816391D01*
X162565892Y-119799500D01*
X162434108Y-119799500D01*
X162306812Y-119833608D01*
X162192686Y-119899500D01*
X162192683Y-119899502D01*
X162099502Y-119992683D01*
X162099500Y-119992686D01*
X162033608Y-120106812D01*
X161999500Y-120234108D01*
X161999500Y-120365891D01*
X162033608Y-120493187D01*
X162066554Y-120550250D01*
X162099500Y-120607314D01*
X162099502Y-120607316D01*
X162198433Y-120706247D01*
X162196418Y-120708261D01*
X162229487Y-120753543D01*
X162233647Y-120823289D01*
X162199440Y-120884212D01*
X162137725Y-120916969D01*
X162112801Y-120919500D01*
X160887199Y-120919500D01*
X160820160Y-120899815D01*
X160774405Y-120847011D01*
X160764461Y-120777853D01*
X160793486Y-120714297D01*
X160801791Y-120706471D01*
X160801567Y-120706247D01*
X160807314Y-120700500D01*
X160900500Y-120607314D01*
X160966392Y-120493186D01*
X161000500Y-120365892D01*
X161000500Y-120234108D01*
X160966392Y-120106814D01*
X160900500Y-119992686D01*
X160807314Y-119899500D01*
X160722442Y-119850499D01*
X160693187Y-119833608D01*
X160628931Y-119816391D01*
X160565892Y-119799500D01*
X160434108Y-119799500D01*
X160306812Y-119833608D01*
X160192686Y-119899500D01*
X160192683Y-119899502D01*
X160099502Y-119992683D01*
X160099500Y-119992686D01*
X160033608Y-120106812D01*
X159999500Y-120234108D01*
X159999500Y-120365891D01*
X160033608Y-120493187D01*
X160066554Y-120550250D01*
X160099500Y-120607314D01*
X160099502Y-120607316D01*
X160198433Y-120706247D01*
X160196418Y-120708261D01*
X160229487Y-120753543D01*
X160233647Y-120823289D01*
X160199440Y-120884212D01*
X160137725Y-120916969D01*
X160112801Y-120919500D01*
X158887199Y-120919500D01*
X158820160Y-120899815D01*
X158774405Y-120847011D01*
X158764461Y-120777853D01*
X158793486Y-120714297D01*
X158801791Y-120706471D01*
X158801567Y-120706247D01*
X158807314Y-120700500D01*
X158900500Y-120607314D01*
X158966392Y-120493186D01*
X159000500Y-120365892D01*
X159000500Y-120234108D01*
X158966392Y-120106814D01*
X158900500Y-119992686D01*
X158807314Y-119899500D01*
X158722442Y-119850499D01*
X158693187Y-119833608D01*
X158628931Y-119816391D01*
X158565892Y-119799500D01*
X158434108Y-119799500D01*
X158306812Y-119833608D01*
X158192686Y-119899500D01*
X158192683Y-119899502D01*
X158099502Y-119992683D01*
X158099500Y-119992686D01*
X158033608Y-120106812D01*
X157999500Y-120234108D01*
X157999500Y-120365891D01*
X158033608Y-120493187D01*
X158066554Y-120550250D01*
X158099500Y-120607314D01*
X158099502Y-120607316D01*
X158198433Y-120706247D01*
X158196418Y-120708261D01*
X158229487Y-120753543D01*
X158233647Y-120823289D01*
X158199440Y-120884212D01*
X158137725Y-120916969D01*
X158112801Y-120919500D01*
X144387199Y-120919500D01*
X144320160Y-120899815D01*
X144274405Y-120847011D01*
X144264461Y-120777853D01*
X144293486Y-120714297D01*
X144301791Y-120706471D01*
X144301567Y-120706247D01*
X144307314Y-120700500D01*
X144400500Y-120607314D01*
X144466392Y-120493186D01*
X144500500Y-120365892D01*
X144500500Y-120234108D01*
X144466392Y-120106814D01*
X144400500Y-119992686D01*
X144307314Y-119899500D01*
X144222442Y-119850499D01*
X144193187Y-119833608D01*
X144128931Y-119816391D01*
X144065892Y-119799500D01*
X143934108Y-119799500D01*
X143806812Y-119833608D01*
X143692686Y-119899500D01*
X143692683Y-119899502D01*
X143599502Y-119992683D01*
X143599500Y-119992686D01*
X143533608Y-120106812D01*
X143499500Y-120234108D01*
X143499500Y-120365891D01*
X143533608Y-120493187D01*
X143566554Y-120550250D01*
X143599500Y-120607314D01*
X143599502Y-120607316D01*
X143698433Y-120706247D01*
X143696418Y-120708261D01*
X143729487Y-120753543D01*
X143733647Y-120823289D01*
X143699440Y-120884212D01*
X143637725Y-120916969D01*
X143612801Y-120919500D01*
X136387199Y-120919500D01*
X136320160Y-120899815D01*
X136274405Y-120847011D01*
X136264461Y-120777853D01*
X136293486Y-120714297D01*
X136301791Y-120706471D01*
X136301567Y-120706247D01*
X136307314Y-120700500D01*
X136400500Y-120607314D01*
X136466392Y-120493186D01*
X136500500Y-120365892D01*
X136500500Y-120234108D01*
X136466392Y-120106814D01*
X136400500Y-119992686D01*
X136307314Y-119899500D01*
X136222442Y-119850499D01*
X136193187Y-119833608D01*
X136128931Y-119816391D01*
X136065892Y-119799500D01*
X135934108Y-119799500D01*
X135806812Y-119833608D01*
X135692686Y-119899500D01*
X135692683Y-119899502D01*
X135599502Y-119992683D01*
X135599500Y-119992686D01*
X135533608Y-120106812D01*
X135499500Y-120234108D01*
X135499500Y-120365891D01*
X135533608Y-120493187D01*
X135566554Y-120550250D01*
X135599500Y-120607314D01*
X135599502Y-120607316D01*
X135698433Y-120706247D01*
X135696418Y-120708261D01*
X135729487Y-120753543D01*
X135733647Y-120823289D01*
X135699440Y-120884212D01*
X135637725Y-120916969D01*
X135612801Y-120919500D01*
X115544500Y-120919500D01*
X115477461Y-120899815D01*
X115431706Y-120847011D01*
X115420500Y-120795500D01*
X115420500Y-119727676D01*
X115440185Y-119660637D01*
X115492989Y-119614882D01*
X115562147Y-119604938D01*
X115625703Y-119633963D01*
X115632181Y-119639995D01*
X115692686Y-119700500D01*
X115806814Y-119766392D01*
X115934108Y-119800500D01*
X115934110Y-119800500D01*
X116065890Y-119800500D01*
X116065892Y-119800500D01*
X116193186Y-119766392D01*
X116307314Y-119700500D01*
X116400500Y-119607314D01*
X116466392Y-119493186D01*
X116500500Y-119365892D01*
X116500500Y-119234108D01*
X117499500Y-119234108D01*
X117499500Y-119365891D01*
X117533608Y-119493187D01*
X117551789Y-119524676D01*
X117599500Y-119607314D01*
X117692686Y-119700500D01*
X117806814Y-119766392D01*
X117934108Y-119800500D01*
X117934110Y-119800500D01*
X118065890Y-119800500D01*
X118065892Y-119800500D01*
X118193186Y-119766392D01*
X118307314Y-119700500D01*
X118400500Y-119607314D01*
X118466392Y-119493186D01*
X118500500Y-119365892D01*
X118500500Y-119234108D01*
X119499500Y-119234108D01*
X119499500Y-119365891D01*
X119533608Y-119493187D01*
X119551789Y-119524676D01*
X119599500Y-119607314D01*
X119692686Y-119700500D01*
X119806814Y-119766392D01*
X119934108Y-119800500D01*
X119934110Y-119800500D01*
X120065890Y-119800500D01*
X120065892Y-119800500D01*
X120193186Y-119766392D01*
X120307314Y-119700500D01*
X120400500Y-119607314D01*
X120466392Y-119493186D01*
X120500500Y-119365892D01*
X120500500Y-119234108D01*
X121499500Y-119234108D01*
X121499500Y-119365891D01*
X121533608Y-119493187D01*
X121551789Y-119524676D01*
X121599500Y-119607314D01*
X121692686Y-119700500D01*
X121806814Y-119766392D01*
X121934108Y-119800500D01*
X121934110Y-119800500D01*
X122065890Y-119800500D01*
X122065892Y-119800500D01*
X122193186Y-119766392D01*
X122307314Y-119700500D01*
X122400500Y-119607314D01*
X122466392Y-119493186D01*
X122500500Y-119365892D01*
X122500500Y-119234108D01*
X122466392Y-119106814D01*
X122400500Y-118992686D01*
X122307314Y-118899500D01*
X122220712Y-118849500D01*
X122193187Y-118833608D01*
X122129539Y-118816554D01*
X122065892Y-118799500D01*
X121934108Y-118799500D01*
X121806812Y-118833608D01*
X121692686Y-118899500D01*
X121692683Y-118899502D01*
X121599502Y-118992683D01*
X121599500Y-118992686D01*
X121533608Y-119106812D01*
X121499500Y-119234108D01*
X120500500Y-119234108D01*
X120466392Y-119106814D01*
X120400500Y-118992686D01*
X120307314Y-118899500D01*
X120220712Y-118849500D01*
X120193187Y-118833608D01*
X120129539Y-118816554D01*
X120065892Y-118799500D01*
X119934108Y-118799500D01*
X119806812Y-118833608D01*
X119692686Y-118899500D01*
X119692683Y-118899502D01*
X119599502Y-118992683D01*
X119599500Y-118992686D01*
X119533608Y-119106812D01*
X119499500Y-119234108D01*
X118500500Y-119234108D01*
X118466392Y-119106814D01*
X118400500Y-118992686D01*
X118307314Y-118899500D01*
X118220712Y-118849500D01*
X118193187Y-118833608D01*
X118129539Y-118816554D01*
X118065892Y-118799500D01*
X117934108Y-118799500D01*
X117806812Y-118833608D01*
X117692686Y-118899500D01*
X117692683Y-118899502D01*
X117599502Y-118992683D01*
X117599500Y-118992686D01*
X117533608Y-119106812D01*
X117499500Y-119234108D01*
X116500500Y-119234108D01*
X116466392Y-119106814D01*
X116400500Y-118992686D01*
X116307314Y-118899500D01*
X116220712Y-118849500D01*
X116193187Y-118833608D01*
X116129539Y-118816554D01*
X116065892Y-118799500D01*
X115934108Y-118799500D01*
X115806812Y-118833608D01*
X115692686Y-118899500D01*
X115692683Y-118899502D01*
X115632181Y-118960005D01*
X115570858Y-118993490D01*
X115501166Y-118988506D01*
X115445233Y-118946634D01*
X115420816Y-118881170D01*
X115420500Y-118872324D01*
X115420500Y-117727676D01*
X115440185Y-117660637D01*
X115492989Y-117614882D01*
X115562147Y-117604938D01*
X115625703Y-117633963D01*
X115632181Y-117639995D01*
X115692686Y-117700500D01*
X115806814Y-117766392D01*
X115934108Y-117800500D01*
X115934110Y-117800500D01*
X116065890Y-117800500D01*
X116065892Y-117800500D01*
X116193186Y-117766392D01*
X116307314Y-117700500D01*
X116400500Y-117607314D01*
X116466392Y-117493186D01*
X116500500Y-117365892D01*
X116500500Y-117234108D01*
X121499500Y-117234108D01*
X121499500Y-117365891D01*
X121533608Y-117493187D01*
X121566121Y-117549500D01*
X121599500Y-117607314D01*
X121692686Y-117700500D01*
X121806814Y-117766392D01*
X121934108Y-117800500D01*
X121934110Y-117800500D01*
X122065890Y-117800500D01*
X122065892Y-117800500D01*
X122159862Y-117775321D01*
X124429500Y-117775321D01*
X124429500Y-119524678D01*
X124444032Y-119597735D01*
X124444033Y-119597739D01*
X124444034Y-119597740D01*
X124499399Y-119680601D01*
X124569853Y-119727676D01*
X124582260Y-119735966D01*
X124582264Y-119735967D01*
X124655321Y-119750499D01*
X124655324Y-119750500D01*
X124655326Y-119750500D01*
X126404676Y-119750500D01*
X126404677Y-119750499D01*
X126477740Y-119735966D01*
X126560601Y-119680601D01*
X126615966Y-119597740D01*
X126630500Y-119524674D01*
X126630500Y-118563389D01*
X126969500Y-118563389D01*
X126969500Y-118736611D01*
X126996598Y-118907701D01*
X127050127Y-119072445D01*
X127128768Y-119226788D01*
X127230586Y-119366928D01*
X127353072Y-119489414D01*
X127493212Y-119591232D01*
X127647555Y-119669873D01*
X127812299Y-119723402D01*
X127983389Y-119750500D01*
X127983390Y-119750500D01*
X128156610Y-119750500D01*
X128156611Y-119750500D01*
X128327701Y-119723402D01*
X128492445Y-119669873D01*
X128646788Y-119591232D01*
X128786928Y-119489414D01*
X128909414Y-119366928D01*
X129011232Y-119226788D01*
X129089873Y-119072445D01*
X129143402Y-118907701D01*
X129170500Y-118736611D01*
X129170500Y-118563389D01*
X129509500Y-118563389D01*
X129509500Y-118736611D01*
X129536598Y-118907701D01*
X129590127Y-119072445D01*
X129668768Y-119226788D01*
X129770586Y-119366928D01*
X129893072Y-119489414D01*
X130033212Y-119591232D01*
X130187555Y-119669873D01*
X130352299Y-119723402D01*
X130523389Y-119750500D01*
X130523390Y-119750500D01*
X130696610Y-119750500D01*
X130696611Y-119750500D01*
X130867701Y-119723402D01*
X131032445Y-119669873D01*
X131186788Y-119591232D01*
X131326928Y-119489414D01*
X131449414Y-119366928D01*
X131551232Y-119226788D01*
X131629873Y-119072445D01*
X131683402Y-118907701D01*
X131710500Y-118736611D01*
X131710500Y-118563389D01*
X132049500Y-118563389D01*
X132049500Y-118736611D01*
X132076598Y-118907701D01*
X132130127Y-119072445D01*
X132208768Y-119226788D01*
X132310586Y-119366928D01*
X132433072Y-119489414D01*
X132573212Y-119591232D01*
X132727555Y-119669873D01*
X132892299Y-119723402D01*
X133063389Y-119750500D01*
X133063390Y-119750500D01*
X133236610Y-119750500D01*
X133236611Y-119750500D01*
X133407701Y-119723402D01*
X133572445Y-119669873D01*
X133726788Y-119591232D01*
X133866928Y-119489414D01*
X133989414Y-119366928D01*
X134049586Y-119284108D01*
X136824500Y-119284108D01*
X136824500Y-119415891D01*
X136858608Y-119543187D01*
X136886347Y-119591231D01*
X136924500Y-119657314D01*
X137017686Y-119750500D01*
X137131814Y-119816392D01*
X137259108Y-119850500D01*
X137259110Y-119850500D01*
X137390890Y-119850500D01*
X137390892Y-119850500D01*
X137518186Y-119816392D01*
X137632314Y-119750500D01*
X137725500Y-119657314D01*
X137791392Y-119543186D01*
X137825500Y-119415892D01*
X137825500Y-119284108D01*
X137812103Y-119234108D01*
X142499500Y-119234108D01*
X142499500Y-119365891D01*
X142533608Y-119493187D01*
X142551789Y-119524676D01*
X142599500Y-119607314D01*
X142692686Y-119700500D01*
X142806814Y-119766392D01*
X142934108Y-119800500D01*
X142934110Y-119800500D01*
X143065890Y-119800500D01*
X143065892Y-119800500D01*
X143193186Y-119766392D01*
X143307314Y-119700500D01*
X143400500Y-119607314D01*
X143466392Y-119493186D01*
X143500500Y-119365892D01*
X143500500Y-119234108D01*
X143466392Y-119106814D01*
X143400500Y-118992686D01*
X143307314Y-118899500D01*
X143220712Y-118849500D01*
X143193187Y-118833608D01*
X143129539Y-118816554D01*
X143065892Y-118799500D01*
X142934108Y-118799500D01*
X142806812Y-118833608D01*
X142692686Y-118899500D01*
X142692683Y-118899502D01*
X142599502Y-118992683D01*
X142599500Y-118992686D01*
X142533608Y-119106812D01*
X142499500Y-119234108D01*
X137812103Y-119234108D01*
X137791392Y-119156814D01*
X137725500Y-119042686D01*
X137632314Y-118949500D01*
X137559916Y-118907701D01*
X137518187Y-118883608D01*
X137454539Y-118866554D01*
X137390892Y-118849500D01*
X137259108Y-118849500D01*
X137131812Y-118883608D01*
X137017686Y-118949500D01*
X137017683Y-118949502D01*
X136924502Y-119042683D01*
X136924500Y-119042686D01*
X136858608Y-119156812D01*
X136824500Y-119284108D01*
X134049586Y-119284108D01*
X134091232Y-119226788D01*
X134169873Y-119072445D01*
X134223402Y-118907701D01*
X134250500Y-118736611D01*
X134250500Y-118563389D01*
X134223402Y-118392299D01*
X134172002Y-118234108D01*
X135499500Y-118234108D01*
X135499500Y-118365892D01*
X135516554Y-118429539D01*
X135533608Y-118493187D01*
X135566554Y-118550250D01*
X135599500Y-118607314D01*
X135692686Y-118700500D01*
X135806814Y-118766392D01*
X135934108Y-118800500D01*
X135934110Y-118800500D01*
X136065890Y-118800500D01*
X136065892Y-118800500D01*
X136193186Y-118766392D01*
X136307314Y-118700500D01*
X136400500Y-118607314D01*
X136466392Y-118493186D01*
X136500500Y-118365892D01*
X136500500Y-118234108D01*
X136466392Y-118106814D01*
X136400500Y-117992686D01*
X136307314Y-117899500D01*
X136267685Y-117876620D01*
X136267684Y-117876619D01*
X136193188Y-117833609D01*
X136193187Y-117833608D01*
X136193186Y-117833608D01*
X136065892Y-117799500D01*
X135934108Y-117799500D01*
X135806812Y-117833608D01*
X135692686Y-117899500D01*
X135692683Y-117899502D01*
X135599502Y-117992683D01*
X135599500Y-117992686D01*
X135533608Y-118106812D01*
X135501257Y-118227550D01*
X135499500Y-118234108D01*
X134172002Y-118234108D01*
X134169873Y-118227555D01*
X134169871Y-118227552D01*
X134169871Y-118227550D01*
X134091231Y-118073211D01*
X133989414Y-117933072D01*
X133866928Y-117810586D01*
X133818390Y-117775321D01*
X145589500Y-117775321D01*
X145589500Y-119524678D01*
X145604032Y-119597735D01*
X145604033Y-119597739D01*
X145604034Y-119597740D01*
X145659399Y-119680601D01*
X145729853Y-119727676D01*
X145742260Y-119735966D01*
X145742264Y-119735967D01*
X145815321Y-119750499D01*
X145815324Y-119750500D01*
X145815326Y-119750500D01*
X147564676Y-119750500D01*
X147564677Y-119750499D01*
X147637740Y-119735966D01*
X147720601Y-119680601D01*
X147775966Y-119597740D01*
X147790500Y-119524674D01*
X147790500Y-118563389D01*
X148129500Y-118563389D01*
X148129500Y-118736611D01*
X148156598Y-118907701D01*
X148210127Y-119072445D01*
X148288768Y-119226788D01*
X148390586Y-119366928D01*
X148513072Y-119489414D01*
X148653212Y-119591232D01*
X148807555Y-119669873D01*
X148972299Y-119723402D01*
X149143389Y-119750500D01*
X149143390Y-119750500D01*
X149316610Y-119750500D01*
X149316611Y-119750500D01*
X149487701Y-119723402D01*
X149652445Y-119669873D01*
X149806788Y-119591232D01*
X149946928Y-119489414D01*
X150069414Y-119366928D01*
X150171232Y-119226788D01*
X150249873Y-119072445D01*
X150303402Y-118907701D01*
X150330500Y-118736611D01*
X150330500Y-118563389D01*
X150669500Y-118563389D01*
X150669500Y-118736611D01*
X150696598Y-118907701D01*
X150750127Y-119072445D01*
X150828768Y-119226788D01*
X150930586Y-119366928D01*
X151053072Y-119489414D01*
X151193212Y-119591232D01*
X151347555Y-119669873D01*
X151512299Y-119723402D01*
X151683389Y-119750500D01*
X151683390Y-119750500D01*
X151856610Y-119750500D01*
X151856611Y-119750500D01*
X152027701Y-119723402D01*
X152192445Y-119669873D01*
X152346788Y-119591232D01*
X152486928Y-119489414D01*
X152609414Y-119366928D01*
X152711232Y-119226788D01*
X152789873Y-119072445D01*
X152843402Y-118907701D01*
X152870500Y-118736611D01*
X152870500Y-118563389D01*
X153209500Y-118563389D01*
X153209500Y-118736611D01*
X153236598Y-118907701D01*
X153290127Y-119072445D01*
X153368768Y-119226788D01*
X153470586Y-119366928D01*
X153593072Y-119489414D01*
X153733212Y-119591232D01*
X153887555Y-119669873D01*
X154052299Y-119723402D01*
X154223389Y-119750500D01*
X154223390Y-119750500D01*
X154396610Y-119750500D01*
X154396611Y-119750500D01*
X154567701Y-119723402D01*
X154732445Y-119669873D01*
X154886788Y-119591232D01*
X155026928Y-119489414D01*
X155149414Y-119366928D01*
X155251232Y-119226788D01*
X155329873Y-119072445D01*
X155383402Y-118907701D01*
X155410500Y-118736611D01*
X155410500Y-118563389D01*
X155383402Y-118392299D01*
X155332002Y-118234108D01*
X157999500Y-118234108D01*
X157999500Y-118365892D01*
X158016554Y-118429539D01*
X158033608Y-118493187D01*
X158066554Y-118550250D01*
X158099500Y-118607314D01*
X158192686Y-118700500D01*
X158306814Y-118766392D01*
X158434108Y-118800500D01*
X158434110Y-118800500D01*
X158565890Y-118800500D01*
X158565892Y-118800500D01*
X158693186Y-118766392D01*
X158807314Y-118700500D01*
X158900500Y-118607314D01*
X158966392Y-118493186D01*
X159000500Y-118365892D01*
X159000500Y-118234108D01*
X159999500Y-118234108D01*
X159999500Y-118365892D01*
X160016554Y-118429539D01*
X160033608Y-118493187D01*
X160066554Y-118550250D01*
X160099500Y-118607314D01*
X160192686Y-118700500D01*
X160306814Y-118766392D01*
X160434108Y-118800500D01*
X160434110Y-118800500D01*
X160565890Y-118800500D01*
X160565892Y-118800500D01*
X160693186Y-118766392D01*
X160807314Y-118700500D01*
X160900500Y-118607314D01*
X160966392Y-118493186D01*
X161000500Y-118365892D01*
X161000500Y-118234108D01*
X161999500Y-118234108D01*
X161999500Y-118365892D01*
X162016554Y-118429539D01*
X162033608Y-118493187D01*
X162066554Y-118550250D01*
X162099500Y-118607314D01*
X162192686Y-118700500D01*
X162306814Y-118766392D01*
X162434108Y-118800500D01*
X162434110Y-118800500D01*
X162565890Y-118800500D01*
X162565892Y-118800500D01*
X162693186Y-118766392D01*
X162807314Y-118700500D01*
X162900500Y-118607314D01*
X162966392Y-118493186D01*
X163000500Y-118365892D01*
X163000500Y-118234108D01*
X162966392Y-118106814D01*
X162900500Y-117992686D01*
X162807314Y-117899500D01*
X162750250Y-117866554D01*
X162693187Y-117833608D01*
X162607266Y-117810586D01*
X162565892Y-117799500D01*
X162434108Y-117799500D01*
X162306812Y-117833608D01*
X162192686Y-117899500D01*
X162192683Y-117899502D01*
X162099502Y-117992683D01*
X162099500Y-117992686D01*
X162033608Y-118106812D01*
X162001257Y-118227550D01*
X161999500Y-118234108D01*
X161000500Y-118234108D01*
X160966392Y-118106814D01*
X160900500Y-117992686D01*
X160807314Y-117899500D01*
X160750250Y-117866554D01*
X160693187Y-117833608D01*
X160607266Y-117810586D01*
X160565892Y-117799500D01*
X160434108Y-117799500D01*
X160306812Y-117833608D01*
X160192686Y-117899500D01*
X160192683Y-117899502D01*
X160099502Y-117992683D01*
X160099500Y-117992686D01*
X160033608Y-118106812D01*
X160001257Y-118227550D01*
X159999500Y-118234108D01*
X159000500Y-118234108D01*
X158966392Y-118106814D01*
X158900500Y-117992686D01*
X158807314Y-117899500D01*
X158750250Y-117866554D01*
X158693187Y-117833608D01*
X158607266Y-117810586D01*
X158565892Y-117799500D01*
X158434108Y-117799500D01*
X158306812Y-117833608D01*
X158192686Y-117899500D01*
X158192683Y-117899502D01*
X158099502Y-117992683D01*
X158099500Y-117992686D01*
X158033608Y-118106812D01*
X158001257Y-118227550D01*
X157999500Y-118234108D01*
X155332002Y-118234108D01*
X155329873Y-118227555D01*
X155329871Y-118227552D01*
X155329871Y-118227550D01*
X155251231Y-118073211D01*
X155149414Y-117933072D01*
X155026928Y-117810586D01*
X154886788Y-117708768D01*
X154732445Y-117630127D01*
X154567701Y-117576598D01*
X154567699Y-117576597D01*
X154567698Y-117576597D01*
X154436271Y-117555781D01*
X154396611Y-117549500D01*
X154223389Y-117549500D01*
X154183728Y-117555781D01*
X154052302Y-117576597D01*
X153887552Y-117630128D01*
X153733211Y-117708768D01*
X153707187Y-117727676D01*
X153593072Y-117810586D01*
X153593070Y-117810588D01*
X153593069Y-117810588D01*
X153470588Y-117933069D01*
X153470588Y-117933070D01*
X153470586Y-117933072D01*
X153427276Y-117992683D01*
X153368768Y-118073211D01*
X153290128Y-118227552D01*
X153236597Y-118392302D01*
X153220619Y-118493186D01*
X153209500Y-118563389D01*
X152870500Y-118563389D01*
X152843402Y-118392299D01*
X152789873Y-118227555D01*
X152711232Y-118073212D01*
X152609414Y-117933072D01*
X152486928Y-117810586D01*
X152346788Y-117708768D01*
X152192445Y-117630127D01*
X152027701Y-117576598D01*
X152027699Y-117576597D01*
X152027698Y-117576597D01*
X151896271Y-117555781D01*
X151856611Y-117549500D01*
X151683389Y-117549500D01*
X151643728Y-117555781D01*
X151512302Y-117576597D01*
X151347552Y-117630128D01*
X151193211Y-117708768D01*
X151167187Y-117727676D01*
X151053072Y-117810586D01*
X151053070Y-117810588D01*
X151053069Y-117810588D01*
X150930588Y-117933069D01*
X150930588Y-117933070D01*
X150930586Y-117933072D01*
X150887276Y-117992683D01*
X150828768Y-118073211D01*
X150750128Y-118227552D01*
X150696597Y-118392302D01*
X150680619Y-118493186D01*
X150669500Y-118563389D01*
X150330500Y-118563389D01*
X150303402Y-118392299D01*
X150249873Y-118227555D01*
X150171232Y-118073212D01*
X150069414Y-117933072D01*
X149946928Y-117810586D01*
X149806788Y-117708768D01*
X149652445Y-117630127D01*
X149487701Y-117576598D01*
X149487699Y-117576597D01*
X149487698Y-117576597D01*
X149356271Y-117555781D01*
X149316611Y-117549500D01*
X149143389Y-117549500D01*
X149103728Y-117555781D01*
X148972302Y-117576597D01*
X148807552Y-117630128D01*
X148653211Y-117708768D01*
X148627187Y-117727676D01*
X148513072Y-117810586D01*
X148513070Y-117810588D01*
X148513069Y-117810588D01*
X148390588Y-117933069D01*
X148390588Y-117933070D01*
X148390586Y-117933072D01*
X148347276Y-117992683D01*
X148288768Y-118073211D01*
X148210128Y-118227552D01*
X148156597Y-118392302D01*
X148140619Y-118493186D01*
X148129500Y-118563389D01*
X147790500Y-118563389D01*
X147790500Y-117775326D01*
X147790500Y-117775323D01*
X147790499Y-117775321D01*
X147775967Y-117702264D01*
X147775966Y-117702260D01*
X147762130Y-117681553D01*
X147720601Y-117619399D01*
X147637740Y-117564034D01*
X147637739Y-117564033D01*
X147637735Y-117564032D01*
X147564677Y-117549500D01*
X147564674Y-117549500D01*
X145815326Y-117549500D01*
X145815323Y-117549500D01*
X145742264Y-117564032D01*
X145742260Y-117564033D01*
X145659399Y-117619399D01*
X145604033Y-117702260D01*
X145604032Y-117702264D01*
X145589500Y-117775321D01*
X133818390Y-117775321D01*
X133726788Y-117708768D01*
X133572445Y-117630127D01*
X133407701Y-117576598D01*
X133407699Y-117576597D01*
X133407698Y-117576597D01*
X133276271Y-117555781D01*
X133236611Y-117549500D01*
X133063389Y-117549500D01*
X133023728Y-117555781D01*
X132892302Y-117576597D01*
X132727552Y-117630128D01*
X132573211Y-117708768D01*
X132547187Y-117727676D01*
X132433072Y-117810586D01*
X132433070Y-117810588D01*
X132433069Y-117810588D01*
X132310588Y-117933069D01*
X132310588Y-117933070D01*
X132310586Y-117933072D01*
X132267276Y-117992683D01*
X132208768Y-118073211D01*
X132130128Y-118227552D01*
X132076597Y-118392302D01*
X132060619Y-118493186D01*
X132049500Y-118563389D01*
X131710500Y-118563389D01*
X131683402Y-118392299D01*
X131629873Y-118227555D01*
X131551232Y-118073212D01*
X131449414Y-117933072D01*
X131326928Y-117810586D01*
X131186788Y-117708768D01*
X131032445Y-117630127D01*
X130867701Y-117576598D01*
X130867699Y-117576597D01*
X130867698Y-117576597D01*
X130736271Y-117555781D01*
X130696611Y-117549500D01*
X130523389Y-117549500D01*
X130483728Y-117555781D01*
X130352302Y-117576597D01*
X130187552Y-117630128D01*
X130033211Y-117708768D01*
X130007187Y-117727676D01*
X129893072Y-117810586D01*
X129893070Y-117810588D01*
X129893069Y-117810588D01*
X129770588Y-117933069D01*
X129770588Y-117933070D01*
X129770586Y-117933072D01*
X129727276Y-117992683D01*
X129668768Y-118073211D01*
X129590128Y-118227552D01*
X129536597Y-118392302D01*
X129520619Y-118493186D01*
X129509500Y-118563389D01*
X129170500Y-118563389D01*
X129143402Y-118392299D01*
X129089873Y-118227555D01*
X129011232Y-118073212D01*
X128909414Y-117933072D01*
X128786928Y-117810586D01*
X128646788Y-117708768D01*
X128492445Y-117630127D01*
X128327701Y-117576598D01*
X128327699Y-117576597D01*
X128327698Y-117576597D01*
X128196271Y-117555781D01*
X128156611Y-117549500D01*
X127983389Y-117549500D01*
X127943728Y-117555781D01*
X127812302Y-117576597D01*
X127647552Y-117630128D01*
X127493211Y-117708768D01*
X127467187Y-117727676D01*
X127353072Y-117810586D01*
X127353070Y-117810588D01*
X127353069Y-117810588D01*
X127230588Y-117933069D01*
X127230588Y-117933070D01*
X127230586Y-117933072D01*
X127187276Y-117992683D01*
X127128768Y-118073211D01*
X127050128Y-118227552D01*
X126996597Y-118392302D01*
X126980619Y-118493186D01*
X126969500Y-118563389D01*
X126630500Y-118563389D01*
X126630500Y-117775326D01*
X126630500Y-117775323D01*
X126630499Y-117775321D01*
X126615967Y-117702264D01*
X126615966Y-117702260D01*
X126602130Y-117681553D01*
X126560601Y-117619399D01*
X126477740Y-117564034D01*
X126477739Y-117564033D01*
X126477735Y-117564032D01*
X126404677Y-117549500D01*
X126404674Y-117549500D01*
X124655326Y-117549500D01*
X124655323Y-117549500D01*
X124582264Y-117564032D01*
X124582260Y-117564033D01*
X124499399Y-117619399D01*
X124444033Y-117702260D01*
X124444032Y-117702264D01*
X124429500Y-117775321D01*
X122159862Y-117775321D01*
X122193186Y-117766392D01*
X122307314Y-117700500D01*
X122400500Y-117607314D01*
X122466392Y-117493186D01*
X122500500Y-117365892D01*
X122500500Y-117234108D01*
X122466392Y-117106814D01*
X122400500Y-116992686D01*
X122307314Y-116899500D01*
X122250250Y-116866554D01*
X122193187Y-116833608D01*
X122114002Y-116812391D01*
X122065892Y-116799500D01*
X121934108Y-116799500D01*
X121806812Y-116833608D01*
X121692686Y-116899500D01*
X121692683Y-116899502D01*
X121599502Y-116992683D01*
X121599500Y-116992686D01*
X121533608Y-117106812D01*
X121499500Y-117234108D01*
X116500500Y-117234108D01*
X116466392Y-117106814D01*
X116400500Y-116992686D01*
X116307314Y-116899500D01*
X116250250Y-116866554D01*
X116193187Y-116833608D01*
X116114002Y-116812391D01*
X116065892Y-116799500D01*
X115934108Y-116799500D01*
X115806812Y-116833608D01*
X115692686Y-116899500D01*
X115692683Y-116899502D01*
X115632181Y-116960005D01*
X115570858Y-116993490D01*
X115501166Y-116988506D01*
X115445233Y-116946634D01*
X115420816Y-116881170D01*
X115420500Y-116872324D01*
X115420500Y-116237399D01*
X134424500Y-116237399D01*
X134424500Y-116362601D01*
X134456905Y-116483536D01*
X134519505Y-116591964D01*
X134608036Y-116680495D01*
X134716464Y-116743095D01*
X134837399Y-116775500D01*
X134837402Y-116775500D01*
X134839365Y-116776026D01*
X134899025Y-116812391D01*
X134929554Y-116875238D01*
X134927048Y-116927888D01*
X134924500Y-116937398D01*
X134924500Y-116937399D01*
X134924500Y-117062601D01*
X134956905Y-117183536D01*
X135019505Y-117291964D01*
X135108036Y-117380495D01*
X135216464Y-117443095D01*
X135337399Y-117475500D01*
X135337401Y-117475500D01*
X135462599Y-117475500D01*
X135462601Y-117475500D01*
X135583536Y-117443095D01*
X135691964Y-117380495D01*
X135780495Y-117291964D01*
X135843095Y-117183536D01*
X135875500Y-117062601D01*
X135875500Y-116937399D01*
X135843095Y-116816464D01*
X135780495Y-116708036D01*
X135691964Y-116619505D01*
X135583536Y-116556905D01*
X135462601Y-116524500D01*
X135462600Y-116524500D01*
X135460633Y-116523973D01*
X135400973Y-116487607D01*
X135370445Y-116424760D01*
X135368821Y-116399401D01*
X135369358Y-116385521D01*
X135375500Y-116362601D01*
X135375500Y-116237399D01*
X143124500Y-116237399D01*
X143124500Y-116362601D01*
X143125382Y-116365891D01*
X143156905Y-116483536D01*
X143219504Y-116591962D01*
X143219506Y-116591965D01*
X143258108Y-116630567D01*
X143291593Y-116691890D01*
X143286609Y-116761582D01*
X143277814Y-116780247D01*
X143256908Y-116816457D01*
X143256905Y-116816462D01*
X143252311Y-116833608D01*
X143224500Y-116937399D01*
X143224500Y-117062601D01*
X143256905Y-117183536D01*
X143319505Y-117291964D01*
X143408036Y-117380495D01*
X143516464Y-117443095D01*
X143637399Y-117475500D01*
X143637401Y-117475500D01*
X143762599Y-117475500D01*
X143762601Y-117475500D01*
X143883536Y-117443095D01*
X143991964Y-117380495D01*
X144080495Y-117291964D01*
X144143095Y-117183536D01*
X144175500Y-117062601D01*
X144175500Y-116937399D01*
X144143095Y-116816464D01*
X144080495Y-116708036D01*
X144041892Y-116669433D01*
X144008407Y-116608110D01*
X144013391Y-116538418D01*
X144022186Y-116519753D01*
X144037523Y-116493187D01*
X144043095Y-116483536D01*
X144075500Y-116362601D01*
X144075500Y-116237399D01*
X144074618Y-116234108D01*
X157999500Y-116234108D01*
X157999500Y-116365892D01*
X158016554Y-116429539D01*
X158033608Y-116493187D01*
X158051383Y-116523973D01*
X158099500Y-116607314D01*
X158192686Y-116700500D01*
X158306814Y-116766392D01*
X158434108Y-116800500D01*
X158434110Y-116800500D01*
X158565890Y-116800500D01*
X158565892Y-116800500D01*
X158693186Y-116766392D01*
X158807314Y-116700500D01*
X158900500Y-116607314D01*
X158966392Y-116493186D01*
X159000500Y-116365892D01*
X159000500Y-116234108D01*
X159999500Y-116234108D01*
X159999500Y-116365892D01*
X160016554Y-116429539D01*
X160033608Y-116493187D01*
X160051383Y-116523973D01*
X160099500Y-116607314D01*
X160192686Y-116700500D01*
X160306814Y-116766392D01*
X160434108Y-116800500D01*
X160434110Y-116800500D01*
X160565890Y-116800500D01*
X160565892Y-116800500D01*
X160693186Y-116766392D01*
X160807314Y-116700500D01*
X160900500Y-116607314D01*
X160966392Y-116493186D01*
X161000500Y-116365892D01*
X161000500Y-116234108D01*
X161999500Y-116234108D01*
X161999500Y-116365892D01*
X162016554Y-116429539D01*
X162033608Y-116493187D01*
X162051383Y-116523973D01*
X162099500Y-116607314D01*
X162192686Y-116700500D01*
X162306814Y-116766392D01*
X162434108Y-116800500D01*
X162434110Y-116800500D01*
X162565890Y-116800500D01*
X162565892Y-116800500D01*
X162693186Y-116766392D01*
X162807314Y-116700500D01*
X162900500Y-116607314D01*
X162966392Y-116493186D01*
X163000500Y-116365892D01*
X163000500Y-116234108D01*
X162966392Y-116106814D01*
X162900500Y-115992686D01*
X162807314Y-115899500D01*
X162750250Y-115866554D01*
X162693187Y-115833608D01*
X162629539Y-115816554D01*
X162565892Y-115799500D01*
X162434108Y-115799500D01*
X162306812Y-115833608D01*
X162192686Y-115899500D01*
X162192683Y-115899502D01*
X162099502Y-115992683D01*
X162099500Y-115992686D01*
X162033608Y-116106812D01*
X162017644Y-116166392D01*
X161999500Y-116234108D01*
X161000500Y-116234108D01*
X160966392Y-116106814D01*
X160900500Y-115992686D01*
X160807314Y-115899500D01*
X160750250Y-115866554D01*
X160693187Y-115833608D01*
X160629539Y-115816554D01*
X160565892Y-115799500D01*
X160434108Y-115799500D01*
X160306812Y-115833608D01*
X160192686Y-115899500D01*
X160192683Y-115899502D01*
X160099502Y-115992683D01*
X160099500Y-115992686D01*
X160033608Y-116106812D01*
X160017644Y-116166392D01*
X159999500Y-116234108D01*
X159000500Y-116234108D01*
X158966392Y-116106814D01*
X158900500Y-115992686D01*
X158807314Y-115899500D01*
X158750250Y-115866554D01*
X158693187Y-115833608D01*
X158629539Y-115816554D01*
X158565892Y-115799500D01*
X158434108Y-115799500D01*
X158306812Y-115833608D01*
X158192686Y-115899500D01*
X158192683Y-115899502D01*
X158099502Y-115992683D01*
X158099500Y-115992686D01*
X158033608Y-116106812D01*
X158017644Y-116166392D01*
X157999500Y-116234108D01*
X144074618Y-116234108D01*
X144043095Y-116116464D01*
X143980495Y-116008036D01*
X143891964Y-115919505D01*
X143783536Y-115856905D01*
X143783537Y-115856905D01*
X143743224Y-115846103D01*
X143662601Y-115824500D01*
X143537399Y-115824500D01*
X143456775Y-115846103D01*
X143416463Y-115856905D01*
X143308037Y-115919504D01*
X143308034Y-115919506D01*
X143219506Y-116008034D01*
X143219504Y-116008037D01*
X143156905Y-116116463D01*
X143156905Y-116116464D01*
X143124500Y-116237399D01*
X135375500Y-116237399D01*
X135343095Y-116116464D01*
X135280495Y-116008036D01*
X135191964Y-115919505D01*
X135083536Y-115856905D01*
X135083537Y-115856905D01*
X135043224Y-115846103D01*
X134962601Y-115824500D01*
X134837399Y-115824500D01*
X134756775Y-115846103D01*
X134716463Y-115856905D01*
X134608037Y-115919504D01*
X134608034Y-115919506D01*
X134519506Y-116008034D01*
X134519504Y-116008037D01*
X134456905Y-116116463D01*
X134456905Y-116116464D01*
X134424500Y-116237399D01*
X115420500Y-116237399D01*
X115420500Y-115727676D01*
X115440185Y-115660637D01*
X115492989Y-115614882D01*
X115562147Y-115604938D01*
X115625703Y-115633963D01*
X115632181Y-115639995D01*
X115692686Y-115700500D01*
X115791521Y-115757563D01*
X115805944Y-115765890D01*
X115806814Y-115766392D01*
X115934108Y-115800500D01*
X115934110Y-115800500D01*
X116065890Y-115800500D01*
X116065892Y-115800500D01*
X116193186Y-115766392D01*
X116307314Y-115700500D01*
X116400500Y-115607314D01*
X116466392Y-115493186D01*
X116500500Y-115365892D01*
X116500500Y-115234108D01*
X121499500Y-115234108D01*
X121499500Y-115365892D01*
X121516554Y-115429539D01*
X121533608Y-115493187D01*
X121541475Y-115506812D01*
X121599500Y-115607314D01*
X121692686Y-115700500D01*
X121791521Y-115757563D01*
X121805944Y-115765890D01*
X121806814Y-115766392D01*
X121934108Y-115800500D01*
X121934110Y-115800500D01*
X122065890Y-115800500D01*
X122065892Y-115800500D01*
X122193186Y-115766392D01*
X122307314Y-115700500D01*
X122400500Y-115607314D01*
X122466392Y-115493186D01*
X122500500Y-115365892D01*
X122500500Y-115234108D01*
X123499500Y-115234108D01*
X123499500Y-115365892D01*
X123516554Y-115429539D01*
X123533608Y-115493187D01*
X123541475Y-115506812D01*
X123599500Y-115607314D01*
X123692686Y-115700500D01*
X123791521Y-115757563D01*
X123805944Y-115765890D01*
X123806814Y-115766392D01*
X123934108Y-115800500D01*
X123934110Y-115800500D01*
X124065890Y-115800500D01*
X124065892Y-115800500D01*
X124193186Y-115766392D01*
X124307314Y-115700500D01*
X124400500Y-115607314D01*
X124466392Y-115493186D01*
X124500500Y-115365892D01*
X124500500Y-115234108D01*
X125499500Y-115234108D01*
X125499500Y-115365892D01*
X125516554Y-115429539D01*
X125533608Y-115493187D01*
X125541475Y-115506812D01*
X125599500Y-115607314D01*
X125692686Y-115700500D01*
X125791521Y-115757563D01*
X125805944Y-115765890D01*
X125806814Y-115766392D01*
X125934108Y-115800500D01*
X125934110Y-115800500D01*
X126065890Y-115800500D01*
X126065892Y-115800500D01*
X126193186Y-115766392D01*
X126307314Y-115700500D01*
X126400500Y-115607314D01*
X126466392Y-115493186D01*
X126500500Y-115365892D01*
X126500500Y-115234108D01*
X131499500Y-115234108D01*
X131499500Y-115365892D01*
X131516554Y-115429539D01*
X131533608Y-115493187D01*
X131541475Y-115506812D01*
X131599500Y-115607314D01*
X131692686Y-115700500D01*
X131791521Y-115757563D01*
X131805944Y-115765890D01*
X131806814Y-115766392D01*
X131934108Y-115800500D01*
X131934110Y-115800500D01*
X132065890Y-115800500D01*
X132065892Y-115800500D01*
X132193186Y-115766392D01*
X132307314Y-115700500D01*
X132373706Y-115634108D01*
X156724500Y-115634108D01*
X156724500Y-115765891D01*
X156758608Y-115893187D01*
X156773803Y-115919505D01*
X156824500Y-116007314D01*
X156917686Y-116100500D01*
X157016521Y-116157563D01*
X157031810Y-116166390D01*
X157031814Y-116166392D01*
X157159108Y-116200500D01*
X157159110Y-116200500D01*
X157290890Y-116200500D01*
X157290892Y-116200500D01*
X157418186Y-116166392D01*
X157532314Y-116100500D01*
X157625500Y-116007314D01*
X157691392Y-115893186D01*
X157725500Y-115765892D01*
X157725500Y-115634108D01*
X157691392Y-115506814D01*
X157625500Y-115392686D01*
X157532314Y-115299500D01*
X157475250Y-115266554D01*
X157418187Y-115233608D01*
X157354539Y-115216554D01*
X157290892Y-115199500D01*
X157159108Y-115199500D01*
X157031812Y-115233608D01*
X156917686Y-115299500D01*
X156917683Y-115299502D01*
X156824502Y-115392683D01*
X156824500Y-115392686D01*
X156758608Y-115506812D01*
X156724500Y-115634108D01*
X132373706Y-115634108D01*
X132400500Y-115607314D01*
X132413023Y-115585622D01*
X132425520Y-115563980D01*
X132466390Y-115493189D01*
X132466392Y-115493186D01*
X132500500Y-115365892D01*
X132500500Y-115234108D01*
X132466392Y-115106814D01*
X132400500Y-114992686D01*
X132307314Y-114899500D01*
X132250250Y-114866554D01*
X132193187Y-114833608D01*
X132129539Y-114816554D01*
X132065892Y-114799500D01*
X131934108Y-114799500D01*
X131806812Y-114833608D01*
X131692686Y-114899500D01*
X131692683Y-114899502D01*
X131599502Y-114992683D01*
X131599500Y-114992686D01*
X131533608Y-115106812D01*
X131508773Y-115199500D01*
X131499500Y-115234108D01*
X126500500Y-115234108D01*
X126466392Y-115106814D01*
X126400500Y-114992686D01*
X126307314Y-114899500D01*
X126250250Y-114866554D01*
X126193187Y-114833608D01*
X126129539Y-114816554D01*
X126065892Y-114799500D01*
X125934108Y-114799500D01*
X125806812Y-114833608D01*
X125692686Y-114899500D01*
X125692683Y-114899502D01*
X125599502Y-114992683D01*
X125599500Y-114992686D01*
X125533608Y-115106812D01*
X125508773Y-115199500D01*
X125499500Y-115234108D01*
X124500500Y-115234108D01*
X124466392Y-115106814D01*
X124400500Y-114992686D01*
X124307314Y-114899500D01*
X124250250Y-114866554D01*
X124193187Y-114833608D01*
X124129539Y-114816554D01*
X124065892Y-114799500D01*
X123934108Y-114799500D01*
X123806812Y-114833608D01*
X123692686Y-114899500D01*
X123692683Y-114899502D01*
X123599502Y-114992683D01*
X123599500Y-114992686D01*
X123533608Y-115106812D01*
X123508773Y-115199500D01*
X123499500Y-115234108D01*
X122500500Y-115234108D01*
X122466392Y-115106814D01*
X122400500Y-114992686D01*
X122307314Y-114899500D01*
X122250250Y-114866554D01*
X122193187Y-114833608D01*
X122129539Y-114816554D01*
X122065892Y-114799500D01*
X121934108Y-114799500D01*
X121806812Y-114833608D01*
X121692686Y-114899500D01*
X121692683Y-114899502D01*
X121599502Y-114992683D01*
X121599500Y-114992686D01*
X121533608Y-115106812D01*
X121508773Y-115199500D01*
X121499500Y-115234108D01*
X116500500Y-115234108D01*
X116466392Y-115106814D01*
X116400500Y-114992686D01*
X116307314Y-114899500D01*
X116250250Y-114866554D01*
X116193187Y-114833608D01*
X116129539Y-114816554D01*
X116065892Y-114799500D01*
X115934108Y-114799500D01*
X115806812Y-114833608D01*
X115692686Y-114899500D01*
X115692683Y-114899502D01*
X115632181Y-114960005D01*
X115570858Y-114993490D01*
X115501166Y-114988506D01*
X115445233Y-114946634D01*
X115420816Y-114881170D01*
X115420500Y-114872324D01*
X115420500Y-114234108D01*
X145999500Y-114234108D01*
X145999500Y-114365891D01*
X146033608Y-114493187D01*
X146066554Y-114550250D01*
X146099500Y-114607314D01*
X146192686Y-114700500D01*
X146306814Y-114766392D01*
X146434108Y-114800500D01*
X146434110Y-114800500D01*
X146565890Y-114800500D01*
X146565892Y-114800500D01*
X146693186Y-114766392D01*
X146807314Y-114700500D01*
X146900500Y-114607314D01*
X146966392Y-114493186D01*
X147000500Y-114365892D01*
X147000500Y-114234108D01*
X149999500Y-114234108D01*
X149999500Y-114365891D01*
X150033608Y-114493187D01*
X150066554Y-114550250D01*
X150099500Y-114607314D01*
X150192686Y-114700500D01*
X150306814Y-114766392D01*
X150434108Y-114800500D01*
X150434110Y-114800500D01*
X150565890Y-114800500D01*
X150565892Y-114800500D01*
X150693186Y-114766392D01*
X150807314Y-114700500D01*
X150900500Y-114607314D01*
X150966392Y-114493186D01*
X151000500Y-114365892D01*
X151000500Y-114234108D01*
X151999500Y-114234108D01*
X151999500Y-114365891D01*
X152033608Y-114493187D01*
X152066554Y-114550250D01*
X152099500Y-114607314D01*
X152192686Y-114700500D01*
X152306814Y-114766392D01*
X152434108Y-114800500D01*
X152434110Y-114800500D01*
X152565890Y-114800500D01*
X152565892Y-114800500D01*
X152693186Y-114766392D01*
X152807314Y-114700500D01*
X152900500Y-114607314D01*
X152966392Y-114493186D01*
X153000500Y-114365892D01*
X153000500Y-114234108D01*
X152966392Y-114106814D01*
X152900500Y-113992686D01*
X152807314Y-113899500D01*
X152750250Y-113866554D01*
X152693187Y-113833608D01*
X152629539Y-113816554D01*
X152565892Y-113799500D01*
X152434108Y-113799500D01*
X152306812Y-113833608D01*
X152192686Y-113899500D01*
X152192683Y-113899502D01*
X152099502Y-113992683D01*
X152099500Y-113992686D01*
X152033608Y-114106812D01*
X151999500Y-114234108D01*
X151000500Y-114234108D01*
X150966392Y-114106814D01*
X150900500Y-113992686D01*
X150807314Y-113899500D01*
X150750250Y-113866554D01*
X150693187Y-113833608D01*
X150629539Y-113816554D01*
X150565892Y-113799500D01*
X150434108Y-113799500D01*
X150306812Y-113833608D01*
X150192686Y-113899500D01*
X150192683Y-113899502D01*
X150099502Y-113992683D01*
X150099500Y-113992686D01*
X150033608Y-114106812D01*
X149999500Y-114234108D01*
X147000500Y-114234108D01*
X146966392Y-114106814D01*
X146900500Y-113992686D01*
X146807314Y-113899500D01*
X146750250Y-113866554D01*
X146693187Y-113833608D01*
X146629539Y-113816554D01*
X146565892Y-113799500D01*
X146434108Y-113799500D01*
X146306812Y-113833608D01*
X146192686Y-113899500D01*
X146192683Y-113899502D01*
X146099502Y-113992683D01*
X146099500Y-113992686D01*
X146033608Y-114106812D01*
X145999500Y-114234108D01*
X115420500Y-114234108D01*
X115420500Y-113234108D01*
X131499500Y-113234108D01*
X131499500Y-113365891D01*
X131533608Y-113493187D01*
X131542204Y-113508075D01*
X131599500Y-113607314D01*
X131692686Y-113700500D01*
X131806814Y-113766392D01*
X131934108Y-113800500D01*
X131934110Y-113800500D01*
X132065890Y-113800500D01*
X132065892Y-113800500D01*
X132193186Y-113766392D01*
X132307314Y-113700500D01*
X132400500Y-113607314D01*
X132440866Y-113537399D01*
X133524500Y-113537399D01*
X133524500Y-113662601D01*
X133556905Y-113783536D01*
X133619505Y-113891964D01*
X133708036Y-113980495D01*
X133816464Y-114043095D01*
X133937399Y-114075500D01*
X133937401Y-114075500D01*
X134062599Y-114075500D01*
X134062601Y-114075500D01*
X134183536Y-114043095D01*
X134291964Y-113980495D01*
X134380495Y-113891964D01*
X134443095Y-113783536D01*
X134475500Y-113662601D01*
X134475500Y-113537399D01*
X134461220Y-113484108D01*
X140699500Y-113484108D01*
X140699500Y-113615891D01*
X140733608Y-113743187D01*
X140747005Y-113766391D01*
X140799500Y-113857314D01*
X140892686Y-113950500D01*
X141006814Y-114016392D01*
X141134108Y-114050500D01*
X141134110Y-114050500D01*
X141265890Y-114050500D01*
X141265892Y-114050500D01*
X141393186Y-114016392D01*
X141507314Y-113950500D01*
X141600500Y-113857314D01*
X141666392Y-113743186D01*
X141700500Y-113615892D01*
X141700500Y-113484108D01*
X141666392Y-113356814D01*
X141600500Y-113242686D01*
X141507314Y-113149500D01*
X141433380Y-113106814D01*
X141393187Y-113083608D01*
X141329539Y-113066554D01*
X141265892Y-113049500D01*
X141134108Y-113049500D01*
X141006812Y-113083608D01*
X140892686Y-113149500D01*
X140892683Y-113149502D01*
X140799502Y-113242683D01*
X140799500Y-113242686D01*
X140733608Y-113356812D01*
X140699500Y-113484108D01*
X134461220Y-113484108D01*
X134443095Y-113416464D01*
X134380495Y-113308036D01*
X134291964Y-113219505D01*
X134183536Y-113156905D01*
X134183537Y-113156905D01*
X134143224Y-113146103D01*
X134062601Y-113124500D01*
X133937399Y-113124500D01*
X133856775Y-113146103D01*
X133816463Y-113156905D01*
X133708037Y-113219504D01*
X133708034Y-113219506D01*
X133619506Y-113308034D01*
X133619504Y-113308037D01*
X133556905Y-113416463D01*
X133556905Y-113416464D01*
X133524500Y-113537399D01*
X132440866Y-113537399D01*
X132466392Y-113493186D01*
X132500500Y-113365892D01*
X132500500Y-113234108D01*
X132466392Y-113106814D01*
X132400500Y-112992686D01*
X132307314Y-112899500D01*
X132250250Y-112866554D01*
X132193187Y-112833608D01*
X132129539Y-112816554D01*
X132065892Y-112799500D01*
X131934108Y-112799500D01*
X131806812Y-112833608D01*
X131692686Y-112899500D01*
X131692683Y-112899502D01*
X131599502Y-112992683D01*
X131599500Y-112992686D01*
X131533608Y-113106812D01*
X131499500Y-113234108D01*
X115420500Y-113234108D01*
X115420500Y-112234108D01*
X141499500Y-112234108D01*
X141499500Y-112365891D01*
X141533608Y-112493187D01*
X141566554Y-112550250D01*
X141599500Y-112607314D01*
X141692686Y-112700500D01*
X141806814Y-112766392D01*
X141934108Y-112800500D01*
X141934110Y-112800500D01*
X142065890Y-112800500D01*
X142065892Y-112800500D01*
X142193186Y-112766392D01*
X142307314Y-112700500D01*
X142400500Y-112607314D01*
X142466392Y-112493186D01*
X142500500Y-112365892D01*
X142500500Y-112234108D01*
X142487103Y-112184108D01*
X148724500Y-112184108D01*
X148724500Y-112315891D01*
X148758608Y-112443187D01*
X148787476Y-112493186D01*
X148824500Y-112557314D01*
X148917686Y-112650500D01*
X149031814Y-112716392D01*
X149159108Y-112750500D01*
X149159110Y-112750500D01*
X149290890Y-112750500D01*
X149290892Y-112750500D01*
X149418186Y-112716392D01*
X149532314Y-112650500D01*
X149625500Y-112557314D01*
X149691392Y-112443186D01*
X149725500Y-112315892D01*
X149725500Y-112184108D01*
X149691392Y-112056814D01*
X149625500Y-111942686D01*
X149532314Y-111849500D01*
X149475250Y-111816554D01*
X149418187Y-111783608D01*
X149353931Y-111766391D01*
X149290892Y-111749500D01*
X149159108Y-111749500D01*
X149031812Y-111783608D01*
X148917686Y-111849500D01*
X148917683Y-111849502D01*
X148824502Y-111942683D01*
X148824500Y-111942686D01*
X148758608Y-112056812D01*
X148724500Y-112184108D01*
X142487103Y-112184108D01*
X142466392Y-112106814D01*
X142400500Y-111992686D01*
X142307314Y-111899500D01*
X142250250Y-111866554D01*
X142193187Y-111833608D01*
X142129539Y-111816554D01*
X142065892Y-111799500D01*
X141934108Y-111799500D01*
X141806812Y-111833608D01*
X141692686Y-111899500D01*
X141692683Y-111899502D01*
X141599502Y-111992683D01*
X141599500Y-111992686D01*
X141533608Y-112106812D01*
X141499500Y-112234108D01*
X115420500Y-112234108D01*
X115420500Y-111434108D01*
X129949500Y-111434108D01*
X129949500Y-111565892D01*
X129966554Y-111629539D01*
X129983608Y-111693187D01*
X130016121Y-111749500D01*
X130049500Y-111807314D01*
X130142686Y-111900500D01*
X130256814Y-111966392D01*
X130384108Y-112000500D01*
X130384110Y-112000500D01*
X130515890Y-112000500D01*
X130515892Y-112000500D01*
X130643186Y-111966392D01*
X130757314Y-111900500D01*
X130850500Y-111807314D01*
X130916392Y-111693186D01*
X130950500Y-111565892D01*
X130950500Y-111434108D01*
X130916392Y-111306814D01*
X130916389Y-111306808D01*
X130905520Y-111287982D01*
X130905519Y-111287981D01*
X130874415Y-111234108D01*
X131499500Y-111234108D01*
X131499500Y-111365892D01*
X131507882Y-111397175D01*
X131533608Y-111493187D01*
X131566554Y-111550250D01*
X131599500Y-111607314D01*
X131692686Y-111700500D01*
X131806814Y-111766392D01*
X131934108Y-111800500D01*
X131934110Y-111800500D01*
X132065890Y-111800500D01*
X132065892Y-111800500D01*
X132193186Y-111766392D01*
X132307314Y-111700500D01*
X132400500Y-111607314D01*
X132466392Y-111493186D01*
X132481340Y-111437399D01*
X135524500Y-111437399D01*
X135524500Y-111562601D01*
X135556905Y-111683536D01*
X135619505Y-111791964D01*
X135708036Y-111880495D01*
X135816464Y-111943095D01*
X135937399Y-111975500D01*
X135937401Y-111975500D01*
X136062599Y-111975500D01*
X136062601Y-111975500D01*
X136183536Y-111943095D01*
X136291964Y-111880495D01*
X136380495Y-111791964D01*
X136443095Y-111683536D01*
X136475500Y-111562601D01*
X136475500Y-111437399D01*
X136443095Y-111316464D01*
X136395547Y-111234108D01*
X140499500Y-111234108D01*
X140499500Y-111365892D01*
X140507882Y-111397175D01*
X140533608Y-111493187D01*
X140566554Y-111550250D01*
X140599500Y-111607314D01*
X140692686Y-111700500D01*
X140806814Y-111766392D01*
X140934108Y-111800500D01*
X140934110Y-111800500D01*
X141065890Y-111800500D01*
X141065892Y-111800500D01*
X141193186Y-111766392D01*
X141307314Y-111700500D01*
X141400500Y-111607314D01*
X141466392Y-111493186D01*
X141481340Y-111437399D01*
X143824500Y-111437399D01*
X143824500Y-111562601D01*
X143856905Y-111683536D01*
X143919505Y-111791964D01*
X144008036Y-111880495D01*
X144116464Y-111943095D01*
X144237399Y-111975500D01*
X144237401Y-111975500D01*
X144362599Y-111975500D01*
X144362601Y-111975500D01*
X144483536Y-111943095D01*
X144591964Y-111880495D01*
X144680495Y-111791964D01*
X144743095Y-111683536D01*
X144775500Y-111562601D01*
X144775500Y-111437399D01*
X144743095Y-111316464D01*
X144680495Y-111208036D01*
X144591964Y-111119505D01*
X144483536Y-111056905D01*
X144483537Y-111056905D01*
X144443224Y-111046103D01*
X144362601Y-111024500D01*
X144237399Y-111024500D01*
X144156775Y-111046103D01*
X144116463Y-111056905D01*
X144008037Y-111119504D01*
X144008034Y-111119506D01*
X143919506Y-111208034D01*
X143919504Y-111208037D01*
X143856905Y-111316463D01*
X143856905Y-111316464D01*
X143824500Y-111437399D01*
X141481340Y-111437399D01*
X141500500Y-111365892D01*
X141500500Y-111234108D01*
X141466392Y-111106814D01*
X141400500Y-110992686D01*
X141307314Y-110899500D01*
X141250250Y-110866554D01*
X141193187Y-110833608D01*
X141129539Y-110816554D01*
X141065892Y-110799500D01*
X140934108Y-110799500D01*
X140806812Y-110833608D01*
X140692686Y-110899500D01*
X140692683Y-110899502D01*
X140599502Y-110992683D01*
X140599500Y-110992686D01*
X140533608Y-111106812D01*
X140530207Y-111119505D01*
X140499500Y-111234108D01*
X136395547Y-111234108D01*
X136380495Y-111208036D01*
X136291964Y-111119505D01*
X136183536Y-111056905D01*
X136183537Y-111056905D01*
X136143224Y-111046103D01*
X136062601Y-111024500D01*
X135937399Y-111024500D01*
X135856775Y-111046103D01*
X135816463Y-111056905D01*
X135708037Y-111119504D01*
X135708034Y-111119506D01*
X135619506Y-111208034D01*
X135619504Y-111208037D01*
X135556905Y-111316463D01*
X135556905Y-111316464D01*
X135524500Y-111437399D01*
X132481340Y-111437399D01*
X132500500Y-111365892D01*
X132500500Y-111234108D01*
X132466392Y-111106814D01*
X132400500Y-110992686D01*
X132307314Y-110899500D01*
X132250250Y-110866554D01*
X132193187Y-110833608D01*
X132129539Y-110816554D01*
X132065892Y-110799500D01*
X131934108Y-110799500D01*
X131806812Y-110833608D01*
X131692686Y-110899500D01*
X131692683Y-110899502D01*
X131599502Y-110992683D01*
X131599500Y-110992686D01*
X131533608Y-111106812D01*
X131530207Y-111119505D01*
X131499500Y-111234108D01*
X130874415Y-111234108D01*
X130850500Y-111192686D01*
X130757314Y-111099500D01*
X130700250Y-111066554D01*
X130643187Y-111033608D01*
X130579539Y-111016554D01*
X130515892Y-110999500D01*
X130384108Y-110999500D01*
X130256812Y-111033608D01*
X130142686Y-111099500D01*
X130142683Y-111099502D01*
X130049502Y-111192683D01*
X130049500Y-111192686D01*
X129983608Y-111306812D01*
X129949500Y-111434108D01*
X115420500Y-111434108D01*
X115420500Y-110234108D01*
X147649500Y-110234108D01*
X147649500Y-110365891D01*
X147683608Y-110493187D01*
X147716554Y-110550250D01*
X147749500Y-110607314D01*
X147842686Y-110700500D01*
X147956814Y-110766392D01*
X148084108Y-110800500D01*
X148084110Y-110800500D01*
X148215890Y-110800500D01*
X148215892Y-110800500D01*
X148343186Y-110766392D01*
X148457314Y-110700500D01*
X148550500Y-110607314D01*
X148616392Y-110493186D01*
X148650500Y-110365892D01*
X148650500Y-110234108D01*
X148616392Y-110106814D01*
X148550500Y-109992686D01*
X148457314Y-109899500D01*
X148400250Y-109866554D01*
X148343187Y-109833608D01*
X148279539Y-109816554D01*
X148215892Y-109799500D01*
X148084108Y-109799500D01*
X147956812Y-109833608D01*
X147842686Y-109899500D01*
X147842683Y-109899502D01*
X147749502Y-109992683D01*
X147749500Y-109992686D01*
X147683608Y-110106812D01*
X147649500Y-110234108D01*
X115420500Y-110234108D01*
X115420500Y-109234108D01*
X129499500Y-109234108D01*
X129499500Y-109365891D01*
X129533608Y-109493187D01*
X129566554Y-109550250D01*
X129599500Y-109607314D01*
X129692686Y-109700500D01*
X129806814Y-109766392D01*
X129934108Y-109800500D01*
X129934110Y-109800500D01*
X130065890Y-109800500D01*
X130065892Y-109800500D01*
X130193186Y-109766392D01*
X130307314Y-109700500D01*
X130400500Y-109607314D01*
X130466392Y-109493186D01*
X130500500Y-109365892D01*
X130500500Y-109234108D01*
X131499500Y-109234108D01*
X131499500Y-109365891D01*
X131533608Y-109493187D01*
X131566554Y-109550250D01*
X131599500Y-109607314D01*
X131692686Y-109700500D01*
X131806814Y-109766392D01*
X131934108Y-109800500D01*
X131934110Y-109800500D01*
X132065890Y-109800500D01*
X132065892Y-109800500D01*
X132193186Y-109766392D01*
X132307314Y-109700500D01*
X132400500Y-109607314D01*
X132466392Y-109493186D01*
X132500500Y-109365892D01*
X132500500Y-109234108D01*
X140499500Y-109234108D01*
X140499500Y-109365891D01*
X140533608Y-109493187D01*
X140566554Y-109550250D01*
X140599500Y-109607314D01*
X140692686Y-109700500D01*
X140806814Y-109766392D01*
X140934108Y-109800500D01*
X140934110Y-109800500D01*
X141065890Y-109800500D01*
X141065892Y-109800500D01*
X141193186Y-109766392D01*
X141307314Y-109700500D01*
X141400500Y-109607314D01*
X141466392Y-109493186D01*
X141500500Y-109365892D01*
X141500500Y-109234108D01*
X141466392Y-109106814D01*
X141400500Y-108992686D01*
X141307314Y-108899500D01*
X141250250Y-108866554D01*
X141193187Y-108833608D01*
X141129539Y-108816554D01*
X141065892Y-108799500D01*
X140934108Y-108799500D01*
X140806812Y-108833608D01*
X140692686Y-108899500D01*
X140692683Y-108899502D01*
X140599502Y-108992683D01*
X140599500Y-108992686D01*
X140533608Y-109106812D01*
X140499500Y-109234108D01*
X132500500Y-109234108D01*
X132466392Y-109106814D01*
X132400500Y-108992686D01*
X132307314Y-108899500D01*
X132250250Y-108866554D01*
X132193187Y-108833608D01*
X132129539Y-108816554D01*
X132065892Y-108799500D01*
X131934108Y-108799500D01*
X131806812Y-108833608D01*
X131692686Y-108899500D01*
X131692683Y-108899502D01*
X131599502Y-108992683D01*
X131599500Y-108992686D01*
X131533608Y-109106812D01*
X131499500Y-109234108D01*
X130500500Y-109234108D01*
X130466392Y-109106814D01*
X130400500Y-108992686D01*
X130307314Y-108899500D01*
X130250250Y-108866554D01*
X130193187Y-108833608D01*
X130129539Y-108816554D01*
X130065892Y-108799500D01*
X129934108Y-108799500D01*
X129806812Y-108833608D01*
X129692686Y-108899500D01*
X129692683Y-108899502D01*
X129599502Y-108992683D01*
X129599500Y-108992686D01*
X129533608Y-109106812D01*
X129499500Y-109234108D01*
X115420500Y-109234108D01*
X115420500Y-107934108D01*
X131924500Y-107934108D01*
X131924500Y-108065891D01*
X131958608Y-108193187D01*
X131991554Y-108250250D01*
X132024500Y-108307314D01*
X132117686Y-108400500D01*
X132231814Y-108466392D01*
X132359108Y-108500500D01*
X132359110Y-108500500D01*
X132490890Y-108500500D01*
X132490892Y-108500500D01*
X132618186Y-108466392D01*
X132732314Y-108400500D01*
X132825500Y-108307314D01*
X132891392Y-108193186D01*
X132925500Y-108065892D01*
X132925500Y-107934108D01*
X132891392Y-107806814D01*
X132825500Y-107692686D01*
X132732314Y-107599500D01*
X132675250Y-107566554D01*
X132618187Y-107533608D01*
X132554539Y-107516554D01*
X132490892Y-107499500D01*
X132359108Y-107499500D01*
X132231812Y-107533608D01*
X132117686Y-107599500D01*
X132117683Y-107599502D01*
X132024502Y-107692683D01*
X132024500Y-107692686D01*
X131958608Y-107806812D01*
X131924500Y-107934108D01*
X115420500Y-107934108D01*
X115420500Y-86234108D01*
X121999500Y-86234108D01*
X121999500Y-86365891D01*
X122033608Y-86493187D01*
X122066554Y-86550250D01*
X122099500Y-86607314D01*
X122099502Y-86607316D01*
X122192687Y-86700501D01*
X122194158Y-86701630D01*
X122195083Y-86702897D01*
X122198433Y-86706247D01*
X122197910Y-86706769D01*
X122235356Y-86758060D01*
X122239506Y-86827807D01*
X122205289Y-86888725D01*
X122194158Y-86898370D01*
X122192687Y-86899498D01*
X122099502Y-86992683D01*
X122099500Y-86992686D01*
X122033608Y-87106812D01*
X121999500Y-87234108D01*
X121999500Y-87365891D01*
X122033608Y-87493187D01*
X122066554Y-87550250D01*
X122099500Y-87607314D01*
X122099502Y-87607316D01*
X122192687Y-87700501D01*
X122194158Y-87701630D01*
X122195083Y-87702897D01*
X122198433Y-87706247D01*
X122197910Y-87706769D01*
X122235356Y-87758060D01*
X122239506Y-87827807D01*
X122205289Y-87888725D01*
X122194158Y-87898370D01*
X122192687Y-87899498D01*
X122099502Y-87992683D01*
X122099500Y-87992686D01*
X122033608Y-88106812D01*
X122022473Y-88148370D01*
X121999500Y-88234108D01*
X121999500Y-88365892D01*
X122016554Y-88429539D01*
X122033608Y-88493187D01*
X122046717Y-88515892D01*
X122099500Y-88607314D01*
X122099502Y-88607316D01*
X122192687Y-88700501D01*
X122194158Y-88701630D01*
X122195083Y-88702897D01*
X122198433Y-88706247D01*
X122197910Y-88706769D01*
X122235356Y-88758060D01*
X122239506Y-88827807D01*
X122205289Y-88888725D01*
X122194158Y-88898370D01*
X122192687Y-88899498D01*
X122099502Y-88992683D01*
X122099500Y-88992686D01*
X122033608Y-89106812D01*
X121999500Y-89234108D01*
X121999500Y-89365891D01*
X122033608Y-89493187D01*
X122066554Y-89550250D01*
X122099500Y-89607314D01*
X122099502Y-89607316D01*
X122192687Y-89700501D01*
X122194158Y-89701630D01*
X122195083Y-89702897D01*
X122198433Y-89706247D01*
X122197910Y-89706769D01*
X122235356Y-89758060D01*
X122239506Y-89827807D01*
X122205289Y-89888725D01*
X122194158Y-89898370D01*
X122192687Y-89899498D01*
X122099502Y-89992683D01*
X122099500Y-89992686D01*
X122033608Y-90106812D01*
X121999500Y-90234108D01*
X121999500Y-90365891D01*
X122033608Y-90493187D01*
X122066554Y-90550250D01*
X122099500Y-90607314D01*
X122099502Y-90607316D01*
X122192687Y-90700501D01*
X122194158Y-90701630D01*
X122195083Y-90702897D01*
X122198433Y-90706247D01*
X122197910Y-90706769D01*
X122235356Y-90758060D01*
X122239506Y-90827807D01*
X122205289Y-90888725D01*
X122194158Y-90898370D01*
X122192687Y-90899498D01*
X122099502Y-90992683D01*
X122099500Y-90992686D01*
X122033608Y-91106812D01*
X122022473Y-91148370D01*
X121999500Y-91234108D01*
X121999500Y-91365892D01*
X122016554Y-91429539D01*
X122033608Y-91493187D01*
X122041475Y-91506812D01*
X122099500Y-91607314D01*
X122099502Y-91607316D01*
X122192687Y-91700501D01*
X122194158Y-91701630D01*
X122195083Y-91702897D01*
X122198433Y-91706247D01*
X122197910Y-91706769D01*
X122235356Y-91758060D01*
X122239506Y-91827807D01*
X122205289Y-91888725D01*
X122194158Y-91898370D01*
X122192687Y-91899498D01*
X122099502Y-91992683D01*
X122099500Y-91992686D01*
X122033608Y-92106812D01*
X121999500Y-92234108D01*
X121999500Y-92365891D01*
X122033608Y-92493187D01*
X122066554Y-92550250D01*
X122099500Y-92607314D01*
X122099502Y-92607316D01*
X122192687Y-92700501D01*
X122194158Y-92701630D01*
X122195083Y-92702897D01*
X122198433Y-92706247D01*
X122197910Y-92706769D01*
X122235356Y-92758060D01*
X122239506Y-92827807D01*
X122205289Y-92888725D01*
X122194158Y-92898370D01*
X122192687Y-92899498D01*
X122099502Y-92992683D01*
X122099500Y-92992686D01*
X122033608Y-93106812D01*
X121999500Y-93234108D01*
X121999500Y-93365891D01*
X122033608Y-93493187D01*
X122066554Y-93550250D01*
X122099500Y-93607314D01*
X122099502Y-93607316D01*
X122192687Y-93700501D01*
X122194158Y-93701630D01*
X122195083Y-93702897D01*
X122198433Y-93706247D01*
X122197910Y-93706769D01*
X122235356Y-93758060D01*
X122239506Y-93827807D01*
X122205289Y-93888725D01*
X122194158Y-93898370D01*
X122192687Y-93899498D01*
X122099502Y-93992683D01*
X122099500Y-93992686D01*
X122033608Y-94106812D01*
X121999500Y-94234108D01*
X121999500Y-94365891D01*
X122033608Y-94493187D01*
X122066554Y-94550250D01*
X122099500Y-94607314D01*
X122099502Y-94607316D01*
X122192687Y-94700501D01*
X122194158Y-94701630D01*
X122195083Y-94702897D01*
X122198433Y-94706247D01*
X122197910Y-94706769D01*
X122235356Y-94758060D01*
X122239506Y-94827807D01*
X122205289Y-94888725D01*
X122194158Y-94898370D01*
X122192687Y-94899498D01*
X122099502Y-94992683D01*
X122099500Y-94992686D01*
X122033608Y-95106812D01*
X121999500Y-95234108D01*
X121999500Y-95365891D01*
X122033608Y-95493187D01*
X122066554Y-95550250D01*
X122099500Y-95607314D01*
X122099502Y-95607316D01*
X122192687Y-95700501D01*
X122194158Y-95701630D01*
X122195083Y-95702897D01*
X122198433Y-95706247D01*
X122197910Y-95706769D01*
X122235356Y-95758060D01*
X122239506Y-95827807D01*
X122205289Y-95888725D01*
X122194158Y-95898370D01*
X122192687Y-95899498D01*
X122099502Y-95992683D01*
X122099500Y-95992686D01*
X122033608Y-96106812D01*
X122022473Y-96148370D01*
X121999500Y-96234108D01*
X121999500Y-96365892D01*
X122016554Y-96429539D01*
X122033608Y-96493187D01*
X122041475Y-96506812D01*
X122099500Y-96607314D01*
X122099502Y-96607316D01*
X122192687Y-96700501D01*
X122194158Y-96701630D01*
X122195083Y-96702897D01*
X122198433Y-96706247D01*
X122197910Y-96706769D01*
X122235356Y-96758060D01*
X122239506Y-96827807D01*
X122205289Y-96888725D01*
X122194158Y-96898370D01*
X122192687Y-96899498D01*
X122099502Y-96992683D01*
X122099500Y-96992686D01*
X122033608Y-97106812D01*
X121999500Y-97234108D01*
X121999500Y-97365891D01*
X122033608Y-97493187D01*
X122066554Y-97550250D01*
X122099500Y-97607314D01*
X122099502Y-97607316D01*
X122192687Y-97700501D01*
X122194158Y-97701630D01*
X122195083Y-97702897D01*
X122198433Y-97706247D01*
X122197910Y-97706769D01*
X122235356Y-97758060D01*
X122239506Y-97827807D01*
X122205289Y-97888725D01*
X122194158Y-97898370D01*
X122192687Y-97899498D01*
X122099502Y-97992683D01*
X122099500Y-97992686D01*
X122033608Y-98106812D01*
X121999500Y-98234108D01*
X121999500Y-98365891D01*
X122033608Y-98493187D01*
X122066554Y-98550250D01*
X122099500Y-98607314D01*
X122099502Y-98607316D01*
X122192687Y-98700501D01*
X122194158Y-98701630D01*
X122195083Y-98702897D01*
X122198433Y-98706247D01*
X122197910Y-98706769D01*
X122235356Y-98758060D01*
X122239506Y-98827807D01*
X122205289Y-98888725D01*
X122194158Y-98898370D01*
X122192687Y-98899498D01*
X122099502Y-98992683D01*
X122099500Y-98992686D01*
X122033608Y-99106812D01*
X122017778Y-99165892D01*
X121999500Y-99234108D01*
X121999500Y-99365892D01*
X122016554Y-99429539D01*
X122033608Y-99493187D01*
X122037831Y-99500501D01*
X122099500Y-99607314D01*
X122192686Y-99700500D01*
X122306814Y-99766392D01*
X122434108Y-99800500D01*
X122434110Y-99800500D01*
X122565890Y-99800500D01*
X122565892Y-99800500D01*
X122693186Y-99766392D01*
X122807314Y-99700500D01*
X122900500Y-99607314D01*
X122900504Y-99607306D01*
X122901625Y-99605847D01*
X122902892Y-99604921D01*
X122906247Y-99601567D01*
X122906770Y-99602090D01*
X122958053Y-99564645D01*
X123027799Y-99560491D01*
X123088719Y-99594704D01*
X123098375Y-99605847D01*
X123099498Y-99607311D01*
X123099500Y-99607314D01*
X123192686Y-99700500D01*
X123306814Y-99766392D01*
X123434108Y-99800500D01*
X123434110Y-99800500D01*
X123565890Y-99800500D01*
X123565892Y-99800500D01*
X123693186Y-99766392D01*
X123807314Y-99700500D01*
X123900500Y-99607314D01*
X123966392Y-99493186D01*
X124000500Y-99365892D01*
X124000500Y-99234108D01*
X123966392Y-99106814D01*
X123966389Y-99106808D01*
X123955520Y-99087982D01*
X123955519Y-99087981D01*
X123924415Y-99034108D01*
X130899500Y-99034108D01*
X130899500Y-99165891D01*
X130933608Y-99293187D01*
X130957387Y-99334372D01*
X130999500Y-99407314D01*
X131092686Y-99500500D01*
X131165628Y-99542613D01*
X131213843Y-99593180D01*
X131227065Y-99661788D01*
X131201097Y-99726652D01*
X131165628Y-99757386D01*
X131150031Y-99766392D01*
X131092686Y-99799500D01*
X131092683Y-99799502D01*
X130999502Y-99892683D01*
X130999500Y-99892686D01*
X130933608Y-100006812D01*
X130899500Y-100134108D01*
X130899500Y-100265891D01*
X130933608Y-100393187D01*
X130957387Y-100434372D01*
X130999500Y-100507314D01*
X131092686Y-100600500D01*
X131206814Y-100666392D01*
X131334108Y-100700500D01*
X131334110Y-100700500D01*
X131465890Y-100700500D01*
X131465892Y-100700500D01*
X131593186Y-100666392D01*
X131707314Y-100600500D01*
X131800500Y-100507314D01*
X131842613Y-100434371D01*
X131893180Y-100386156D01*
X131961787Y-100372933D01*
X132026652Y-100398901D01*
X132057386Y-100434371D01*
X132099500Y-100507314D01*
X132192686Y-100600500D01*
X132306814Y-100666392D01*
X132434108Y-100700500D01*
X132434110Y-100700500D01*
X132565890Y-100700500D01*
X132565892Y-100700500D01*
X132693186Y-100666392D01*
X132807314Y-100600500D01*
X132900500Y-100507314D01*
X132942613Y-100434371D01*
X132993180Y-100386156D01*
X133061787Y-100372933D01*
X133126652Y-100398901D01*
X133157386Y-100434371D01*
X133199500Y-100507314D01*
X133292686Y-100600500D01*
X133406814Y-100666392D01*
X133534108Y-100700500D01*
X133534110Y-100700500D01*
X133665890Y-100700500D01*
X133665892Y-100700500D01*
X133793186Y-100666392D01*
X133907314Y-100600500D01*
X134000500Y-100507314D01*
X134066392Y-100393186D01*
X134100500Y-100265892D01*
X134100500Y-100134108D01*
X134066392Y-100006814D01*
X134000500Y-99892686D01*
X133907314Y-99799500D01*
X133834371Y-99757386D01*
X133786156Y-99706820D01*
X133772933Y-99638213D01*
X133798901Y-99573348D01*
X133834372Y-99542613D01*
X133907314Y-99500500D01*
X134000500Y-99407314D01*
X134066392Y-99293186D01*
X134100500Y-99165892D01*
X134100500Y-99034108D01*
X134066392Y-98906814D01*
X134000500Y-98792686D01*
X133907314Y-98699500D01*
X133813775Y-98645495D01*
X133793187Y-98633608D01*
X133712580Y-98612010D01*
X133665892Y-98599500D01*
X133534108Y-98599500D01*
X133406812Y-98633608D01*
X133292686Y-98699500D01*
X133292683Y-98699502D01*
X133199502Y-98792683D01*
X133199500Y-98792686D01*
X133162188Y-98857313D01*
X133157387Y-98865628D01*
X133106820Y-98913843D01*
X133038212Y-98927065D01*
X132973348Y-98901097D01*
X132942613Y-98865628D01*
X132937813Y-98857314D01*
X132900500Y-98792686D01*
X132807314Y-98699500D01*
X132713775Y-98645495D01*
X132693187Y-98633608D01*
X132612580Y-98612010D01*
X132565892Y-98599500D01*
X132434108Y-98599500D01*
X132306812Y-98633608D01*
X132192686Y-98699500D01*
X132192683Y-98699502D01*
X132099502Y-98792683D01*
X132099500Y-98792686D01*
X132062188Y-98857313D01*
X132057387Y-98865628D01*
X132006820Y-98913843D01*
X131938212Y-98927065D01*
X131873348Y-98901097D01*
X131842613Y-98865628D01*
X131837813Y-98857314D01*
X131800500Y-98792686D01*
X131707314Y-98699500D01*
X131613775Y-98645495D01*
X131593187Y-98633608D01*
X131512580Y-98612010D01*
X131465892Y-98599500D01*
X131334108Y-98599500D01*
X131206812Y-98633608D01*
X131092686Y-98699500D01*
X131092683Y-98699502D01*
X130999502Y-98792683D01*
X130999500Y-98792686D01*
X130933608Y-98906812D01*
X130899500Y-99034108D01*
X123924415Y-99034108D01*
X123900500Y-98992686D01*
X123807314Y-98899500D01*
X123807311Y-98899498D01*
X123805847Y-98898375D01*
X123804921Y-98897107D01*
X123801567Y-98893753D01*
X123802090Y-98893229D01*
X123764645Y-98841947D01*
X123760491Y-98772201D01*
X123794704Y-98711281D01*
X123805847Y-98701625D01*
X123807306Y-98700504D01*
X123807314Y-98700500D01*
X123900500Y-98607314D01*
X123966392Y-98493186D01*
X124000500Y-98365892D01*
X124000500Y-98234108D01*
X123966392Y-98106814D01*
X123900500Y-97992686D01*
X123807314Y-97899500D01*
X123807311Y-97899498D01*
X123805847Y-97898375D01*
X123804921Y-97897107D01*
X123801567Y-97893753D01*
X123802090Y-97893229D01*
X123795319Y-97883957D01*
X123781163Y-97873086D01*
X123775146Y-97856329D01*
X123764645Y-97841947D01*
X123763583Y-97824124D01*
X123757552Y-97807326D01*
X123761549Y-97789977D01*
X123760491Y-97772201D01*
X123769232Y-97756635D01*
X123773241Y-97739241D01*
X123777690Y-97734108D01*
X141099500Y-97734108D01*
X141099500Y-97865892D01*
X141108204Y-97898375D01*
X141133608Y-97993187D01*
X141147006Y-98016392D01*
X141199500Y-98107314D01*
X141292686Y-98200500D01*
X141406814Y-98266392D01*
X141534108Y-98300500D01*
X141534110Y-98300500D01*
X141665890Y-98300500D01*
X141665892Y-98300500D01*
X141793186Y-98266392D01*
X141849103Y-98234108D01*
X149599500Y-98234108D01*
X149599500Y-98365891D01*
X149633608Y-98493187D01*
X149666554Y-98550250D01*
X149699500Y-98607314D01*
X149792686Y-98700500D01*
X149906814Y-98766392D01*
X150034108Y-98800500D01*
X150034110Y-98800500D01*
X150165890Y-98800500D01*
X150165892Y-98800500D01*
X150293186Y-98766392D01*
X150407314Y-98700500D01*
X150462319Y-98645495D01*
X150523642Y-98612010D01*
X150593334Y-98616994D01*
X150637681Y-98645495D01*
X150692686Y-98700500D01*
X150806814Y-98766392D01*
X150934108Y-98800500D01*
X150934110Y-98800500D01*
X151065890Y-98800500D01*
X151065892Y-98800500D01*
X151193186Y-98766392D01*
X151307314Y-98700500D01*
X151400500Y-98607314D01*
X151466392Y-98493186D01*
X151500500Y-98365892D01*
X151500500Y-98234108D01*
X151466392Y-98106814D01*
X151400500Y-97992686D01*
X151307314Y-97899500D01*
X151249100Y-97865890D01*
X151193187Y-97833608D01*
X151095099Y-97807326D01*
X151065892Y-97799500D01*
X150934108Y-97799500D01*
X150806812Y-97833608D01*
X150692686Y-97899500D01*
X150692683Y-97899502D01*
X150637681Y-97954505D01*
X150576358Y-97987990D01*
X150506666Y-97983006D01*
X150462319Y-97954505D01*
X150407316Y-97899502D01*
X150407314Y-97899500D01*
X150349100Y-97865890D01*
X150293187Y-97833608D01*
X150195099Y-97807326D01*
X150165892Y-97799500D01*
X150034108Y-97799500D01*
X149906812Y-97833608D01*
X149792686Y-97899500D01*
X149792683Y-97899502D01*
X149699502Y-97992683D01*
X149699500Y-97992686D01*
X149633608Y-98106812D01*
X149599500Y-98234108D01*
X141849103Y-98234108D01*
X141907314Y-98200500D01*
X142000500Y-98107314D01*
X142066392Y-97993186D01*
X142100500Y-97865892D01*
X142100500Y-97734108D01*
X142066392Y-97606814D01*
X142000500Y-97492686D01*
X141907314Y-97399500D01*
X141833380Y-97356814D01*
X141793187Y-97333608D01*
X141729539Y-97316554D01*
X141665892Y-97299500D01*
X141534108Y-97299500D01*
X141406812Y-97333608D01*
X141292686Y-97399500D01*
X141292683Y-97399502D01*
X141199502Y-97492683D01*
X141199500Y-97492686D01*
X141133608Y-97606812D01*
X141125329Y-97637711D01*
X141099500Y-97734108D01*
X123777690Y-97734108D01*
X123789601Y-97720366D01*
X123794704Y-97711281D01*
X123794737Y-97711248D01*
X123803488Y-97702708D01*
X123807314Y-97700500D01*
X123900500Y-97607314D01*
X123966392Y-97493186D01*
X124000500Y-97365892D01*
X124000500Y-97234108D01*
X123966392Y-97106814D01*
X123900500Y-96992686D01*
X123807314Y-96899500D01*
X123807311Y-96899498D01*
X123805847Y-96898375D01*
X123804921Y-96897107D01*
X123801567Y-96893753D01*
X123802090Y-96893229D01*
X123764645Y-96841947D01*
X123760491Y-96772201D01*
X123787830Y-96718557D01*
X123799757Y-96704862D01*
X123807314Y-96700500D01*
X123873706Y-96634108D01*
X142799500Y-96634108D01*
X142799500Y-96765892D01*
X142808639Y-96800000D01*
X142833608Y-96893187D01*
X142866554Y-96950250D01*
X142899500Y-97007314D01*
X142992686Y-97100500D01*
X143106814Y-97166392D01*
X143234108Y-97200500D01*
X143234110Y-97200500D01*
X143365890Y-97200500D01*
X143365892Y-97200500D01*
X143493186Y-97166392D01*
X143607314Y-97100500D01*
X143700500Y-97007314D01*
X143766392Y-96893186D01*
X143800500Y-96765892D01*
X143800500Y-96634108D01*
X143766392Y-96506814D01*
X143700500Y-96392686D01*
X143607314Y-96299500D01*
X143508910Y-96242686D01*
X143493187Y-96233608D01*
X143429539Y-96216554D01*
X143365892Y-96199500D01*
X143234108Y-96199500D01*
X143106812Y-96233608D01*
X142992686Y-96299500D01*
X142992683Y-96299502D01*
X142899502Y-96392683D01*
X142899500Y-96392686D01*
X142833608Y-96506812D01*
X142821076Y-96553584D01*
X142799500Y-96634108D01*
X123873706Y-96634108D01*
X123900500Y-96607314D01*
X123966392Y-96493186D01*
X124000500Y-96365892D01*
X124000500Y-96234108D01*
X123966392Y-96106814D01*
X123900500Y-95992686D01*
X123807314Y-95899500D01*
X123807311Y-95899498D01*
X123805847Y-95898375D01*
X123804921Y-95897107D01*
X123801567Y-95893753D01*
X123802090Y-95893229D01*
X123764645Y-95841947D01*
X123760491Y-95772201D01*
X123794704Y-95711281D01*
X123805847Y-95701625D01*
X123807306Y-95700504D01*
X123807314Y-95700500D01*
X123900500Y-95607314D01*
X123966392Y-95493186D01*
X124000500Y-95365892D01*
X124000500Y-95234108D01*
X123966392Y-95106814D01*
X123900500Y-94992686D01*
X123807314Y-94899500D01*
X123807311Y-94899498D01*
X123805847Y-94898375D01*
X123804921Y-94897107D01*
X123801567Y-94893753D01*
X123802090Y-94893229D01*
X123764645Y-94841947D01*
X123760491Y-94772201D01*
X123794704Y-94711281D01*
X123805847Y-94701625D01*
X123807306Y-94700504D01*
X123807314Y-94700500D01*
X123900500Y-94607314D01*
X123966392Y-94493186D01*
X124000500Y-94365892D01*
X124000500Y-94234108D01*
X133199500Y-94234108D01*
X133199500Y-94365891D01*
X133233608Y-94493187D01*
X133266554Y-94550250D01*
X133299500Y-94607314D01*
X133392686Y-94700500D01*
X133506814Y-94766392D01*
X133634108Y-94800500D01*
X133634110Y-94800500D01*
X133765889Y-94800500D01*
X133765892Y-94800500D01*
X133843410Y-94779729D01*
X133913256Y-94781392D01*
X133971118Y-94820554D01*
X133998623Y-94884782D01*
X133999500Y-94899498D01*
X133999500Y-94965892D01*
X134010799Y-95008060D01*
X134033608Y-95093187D01*
X134041475Y-95106812D01*
X134099500Y-95207314D01*
X134192686Y-95300500D01*
X134290221Y-95356812D01*
X134305944Y-95365890D01*
X134306814Y-95366392D01*
X134434108Y-95400500D01*
X134434110Y-95400500D01*
X134565890Y-95400500D01*
X134565892Y-95400500D01*
X134693186Y-95366392D01*
X134807314Y-95300500D01*
X134900500Y-95207314D01*
X134966392Y-95093186D01*
X135000500Y-94965892D01*
X135000500Y-94834108D01*
X134966392Y-94706814D01*
X134900500Y-94592686D01*
X134807314Y-94499500D01*
X134750250Y-94466554D01*
X134693187Y-94433608D01*
X134584903Y-94404594D01*
X134565892Y-94399500D01*
X134434108Y-94399500D01*
X134356593Y-94420270D01*
X134331598Y-94419674D01*
X134306853Y-94423233D01*
X134297272Y-94418857D01*
X134286743Y-94418607D01*
X134266039Y-94404594D01*
X134243297Y-94394208D01*
X134237602Y-94385346D01*
X134228881Y-94379444D01*
X134219039Y-94356463D01*
X134205523Y-94335430D01*
X134203243Y-94319574D01*
X134201377Y-94315216D01*
X134200500Y-94300495D01*
X134200500Y-94234110D01*
X134200500Y-94234108D01*
X142499500Y-94234108D01*
X142499500Y-94365891D01*
X142533608Y-94493187D01*
X142566554Y-94550250D01*
X142599500Y-94607314D01*
X142692686Y-94700500D01*
X142806814Y-94766392D01*
X142934108Y-94800500D01*
X142934110Y-94800500D01*
X143065890Y-94800500D01*
X143065892Y-94800500D01*
X143193186Y-94766392D01*
X143307314Y-94700500D01*
X143400500Y-94607314D01*
X143466392Y-94493186D01*
X143500500Y-94365892D01*
X143500500Y-94234108D01*
X143466392Y-94106814D01*
X143400500Y-93992686D01*
X143307314Y-93899500D01*
X143250250Y-93866554D01*
X143193187Y-93833608D01*
X143129539Y-93816554D01*
X143065892Y-93799500D01*
X142934108Y-93799500D01*
X142806812Y-93833608D01*
X142692686Y-93899500D01*
X142692683Y-93899502D01*
X142599502Y-93992683D01*
X142599500Y-93992686D01*
X142533608Y-94106812D01*
X142499500Y-94234108D01*
X134200500Y-94234108D01*
X134166392Y-94106814D01*
X134100500Y-93992686D01*
X134007314Y-93899500D01*
X133950250Y-93866554D01*
X133893187Y-93833608D01*
X133829539Y-93816554D01*
X133765892Y-93799500D01*
X133634108Y-93799500D01*
X133506812Y-93833608D01*
X133392686Y-93899500D01*
X133392683Y-93899502D01*
X133299502Y-93992683D01*
X133299500Y-93992686D01*
X133233608Y-94106812D01*
X133199500Y-94234108D01*
X124000500Y-94234108D01*
X123966392Y-94106814D01*
X123900500Y-93992686D01*
X123807314Y-93899500D01*
X123807311Y-93899498D01*
X123805847Y-93898375D01*
X123804921Y-93897107D01*
X123801567Y-93893753D01*
X123802090Y-93893229D01*
X123764645Y-93841947D01*
X123760491Y-93772201D01*
X123794704Y-93711281D01*
X123805847Y-93701625D01*
X123807306Y-93700504D01*
X123807314Y-93700500D01*
X123900500Y-93607314D01*
X123966392Y-93493186D01*
X124000500Y-93365892D01*
X124000500Y-93234108D01*
X123966392Y-93106814D01*
X123900500Y-92992686D01*
X123807314Y-92899500D01*
X123807311Y-92899498D01*
X123805847Y-92898375D01*
X123804921Y-92897107D01*
X123801567Y-92893753D01*
X123802090Y-92893229D01*
X123795759Y-92884559D01*
X123782068Y-92874310D01*
X123775585Y-92856931D01*
X123764645Y-92841947D01*
X123763627Y-92824870D01*
X123757651Y-92808846D01*
X123761594Y-92790720D01*
X123760491Y-92772201D01*
X123768942Y-92756940D01*
X123772503Y-92740573D01*
X123788089Y-92722367D01*
X123793654Y-92712319D01*
X123802958Y-92703014D01*
X123807314Y-92700500D01*
X123900500Y-92607314D01*
X123903014Y-92602958D01*
X123912319Y-92593654D01*
X123936131Y-92580651D01*
X123958053Y-92564645D01*
X123966349Y-92564150D01*
X123973642Y-92560169D01*
X124000707Y-92562104D01*
X124027799Y-92560491D01*
X124035044Y-92564560D01*
X124043334Y-92565153D01*
X124065058Y-92581416D01*
X124088719Y-92594704D01*
X124098375Y-92605847D01*
X124099498Y-92607311D01*
X124099500Y-92607314D01*
X124192686Y-92700500D01*
X124306814Y-92766392D01*
X124434108Y-92800500D01*
X124434110Y-92800500D01*
X124565890Y-92800500D01*
X124565892Y-92800500D01*
X124693186Y-92766392D01*
X124807314Y-92700500D01*
X124900500Y-92607314D01*
X124966392Y-92493186D01*
X125000500Y-92365892D01*
X125000500Y-92234108D01*
X124966392Y-92106814D01*
X124900500Y-91992686D01*
X124807314Y-91899500D01*
X124807311Y-91899498D01*
X124805847Y-91898375D01*
X124804921Y-91897107D01*
X124801567Y-91893753D01*
X124802090Y-91893229D01*
X124764645Y-91841947D01*
X124760491Y-91772201D01*
X124787830Y-91718557D01*
X124799757Y-91704862D01*
X124807314Y-91700500D01*
X124873706Y-91634108D01*
X132299500Y-91634108D01*
X132299500Y-91765892D01*
X132317645Y-91833608D01*
X132333608Y-91893185D01*
X132333611Y-91893192D01*
X132359481Y-91938001D01*
X132375954Y-92005901D01*
X132359481Y-92061999D01*
X132333611Y-92106807D01*
X132333608Y-92106814D01*
X132299500Y-92234108D01*
X132299500Y-92365891D01*
X132333608Y-92493187D01*
X132366554Y-92550250D01*
X132399500Y-92607314D01*
X132492686Y-92700500D01*
X132606814Y-92766392D01*
X132734108Y-92800500D01*
X132734110Y-92800500D01*
X132865890Y-92800500D01*
X132865892Y-92800500D01*
X132993186Y-92766392D01*
X133037999Y-92740518D01*
X133105898Y-92724045D01*
X133162000Y-92740518D01*
X133177800Y-92749640D01*
X133206811Y-92766391D01*
X133206813Y-92766391D01*
X133206814Y-92766392D01*
X133334108Y-92800500D01*
X133334110Y-92800500D01*
X133465890Y-92800500D01*
X133465892Y-92800500D01*
X133593186Y-92766392D01*
X133637999Y-92740518D01*
X133705898Y-92724045D01*
X133762000Y-92740518D01*
X133777800Y-92749640D01*
X133806811Y-92766391D01*
X133806813Y-92766391D01*
X133806814Y-92766392D01*
X133934108Y-92800500D01*
X133934110Y-92800500D01*
X134065890Y-92800500D01*
X134065892Y-92800500D01*
X134193186Y-92766392D01*
X134237999Y-92740518D01*
X134305898Y-92724045D01*
X134362000Y-92740518D01*
X134377800Y-92749640D01*
X134406811Y-92766391D01*
X134406813Y-92766391D01*
X134406814Y-92766392D01*
X134534108Y-92800500D01*
X134534110Y-92800500D01*
X134665890Y-92800500D01*
X134665892Y-92800500D01*
X134793186Y-92766392D01*
X134907314Y-92700500D01*
X135000500Y-92607314D01*
X135066392Y-92493186D01*
X135100500Y-92365892D01*
X135100500Y-92234108D01*
X135066392Y-92106814D01*
X135066391Y-92106812D01*
X135066391Y-92106811D01*
X135040519Y-92062002D01*
X135024045Y-91994102D01*
X135040519Y-91937998D01*
X135066391Y-91893188D01*
X135076003Y-91857316D01*
X135100500Y-91765892D01*
X135100500Y-91634108D01*
X142499500Y-91634108D01*
X142499500Y-91765892D01*
X142517645Y-91833608D01*
X142533608Y-91893185D01*
X142533611Y-91893192D01*
X142559481Y-91938001D01*
X142575954Y-92005901D01*
X142559481Y-92061999D01*
X142533611Y-92106807D01*
X142533608Y-92106814D01*
X142499500Y-92234108D01*
X142499500Y-92365891D01*
X142533608Y-92493187D01*
X142566554Y-92550250D01*
X142599500Y-92607314D01*
X142692686Y-92700500D01*
X142806814Y-92766392D01*
X142934108Y-92800500D01*
X142934110Y-92800500D01*
X143065890Y-92800500D01*
X143065892Y-92800500D01*
X143193186Y-92766392D01*
X143288000Y-92711650D01*
X143355900Y-92695178D01*
X143411999Y-92711650D01*
X143506814Y-92766392D01*
X143634108Y-92800500D01*
X143634110Y-92800500D01*
X143765890Y-92800500D01*
X143765892Y-92800500D01*
X143893186Y-92766392D01*
X143988000Y-92711650D01*
X144055900Y-92695178D01*
X144111999Y-92711650D01*
X144206814Y-92766392D01*
X144334108Y-92800500D01*
X144334110Y-92800500D01*
X144465890Y-92800500D01*
X144465892Y-92800500D01*
X144593186Y-92766392D01*
X144688000Y-92711650D01*
X144755900Y-92695178D01*
X144811999Y-92711650D01*
X144906814Y-92766392D01*
X145034108Y-92800500D01*
X145034110Y-92800500D01*
X145165890Y-92800500D01*
X145165892Y-92800500D01*
X145293186Y-92766392D01*
X145407314Y-92700500D01*
X145500500Y-92607314D01*
X145566392Y-92493186D01*
X145600500Y-92365892D01*
X145600500Y-92234108D01*
X145566392Y-92106814D01*
X145566391Y-92106812D01*
X145566391Y-92106811D01*
X145540519Y-92062002D01*
X145524045Y-91994102D01*
X145540519Y-91937998D01*
X145566391Y-91893188D01*
X145576003Y-91857316D01*
X145600500Y-91765892D01*
X145600500Y-91634108D01*
X145566392Y-91506814D01*
X145500500Y-91392686D01*
X145407314Y-91299500D01*
X145308910Y-91242686D01*
X145293187Y-91233608D01*
X145229539Y-91216554D01*
X145165892Y-91199500D01*
X145034108Y-91199500D01*
X144906814Y-91233608D01*
X144906813Y-91233608D01*
X144906811Y-91233609D01*
X144906810Y-91233609D01*
X144812000Y-91288348D01*
X144744100Y-91304821D01*
X144688000Y-91288348D01*
X144593189Y-91233609D01*
X144593186Y-91233608D01*
X144465892Y-91199500D01*
X144334108Y-91199500D01*
X144206814Y-91233608D01*
X144206813Y-91233608D01*
X144206811Y-91233609D01*
X144206810Y-91233609D01*
X144112000Y-91288348D01*
X144044100Y-91304821D01*
X143988000Y-91288348D01*
X143893189Y-91233609D01*
X143893186Y-91233608D01*
X143765892Y-91199500D01*
X143634108Y-91199500D01*
X143506814Y-91233608D01*
X143506813Y-91233608D01*
X143506811Y-91233609D01*
X143506810Y-91233609D01*
X143412000Y-91288348D01*
X143344100Y-91304821D01*
X143288000Y-91288348D01*
X143193189Y-91233609D01*
X143193186Y-91233608D01*
X143065892Y-91199500D01*
X142934108Y-91199500D01*
X142806812Y-91233608D01*
X142692686Y-91299500D01*
X142692683Y-91299502D01*
X142599502Y-91392683D01*
X142599500Y-91392686D01*
X142533608Y-91506812D01*
X142521076Y-91553584D01*
X142499500Y-91634108D01*
X135100500Y-91634108D01*
X135066392Y-91506814D01*
X135000500Y-91392686D01*
X134907314Y-91299500D01*
X134808910Y-91242686D01*
X134793187Y-91233608D01*
X134729539Y-91216554D01*
X134665892Y-91199500D01*
X134534108Y-91199500D01*
X134406814Y-91233608D01*
X134406807Y-91233611D01*
X134361999Y-91259481D01*
X134294099Y-91275954D01*
X134238001Y-91259481D01*
X134193192Y-91233611D01*
X134193188Y-91233609D01*
X134193186Y-91233608D01*
X134065892Y-91199500D01*
X133934108Y-91199500D01*
X133806814Y-91233608D01*
X133806807Y-91233611D01*
X133761999Y-91259481D01*
X133694099Y-91275954D01*
X133638001Y-91259481D01*
X133593192Y-91233611D01*
X133593188Y-91233609D01*
X133593186Y-91233608D01*
X133465892Y-91199500D01*
X133334108Y-91199500D01*
X133206814Y-91233608D01*
X133206807Y-91233611D01*
X133161999Y-91259481D01*
X133094099Y-91275954D01*
X133038001Y-91259481D01*
X132993192Y-91233611D01*
X132993188Y-91233609D01*
X132993186Y-91233608D01*
X132865892Y-91199500D01*
X132734108Y-91199500D01*
X132606812Y-91233608D01*
X132492686Y-91299500D01*
X132492683Y-91299502D01*
X132399502Y-91392683D01*
X132399500Y-91392686D01*
X132333608Y-91506812D01*
X132321076Y-91553584D01*
X132299500Y-91634108D01*
X124873706Y-91634108D01*
X124900500Y-91607314D01*
X124966392Y-91493186D01*
X125000500Y-91365892D01*
X125000500Y-91234108D01*
X124966392Y-91106814D01*
X124900500Y-90992686D01*
X124807314Y-90899500D01*
X124807311Y-90899498D01*
X124805847Y-90898375D01*
X124804921Y-90897107D01*
X124801567Y-90893753D01*
X124802090Y-90893229D01*
X124764645Y-90841947D01*
X124760491Y-90772201D01*
X124794704Y-90711281D01*
X124805847Y-90701625D01*
X124807306Y-90700504D01*
X124807314Y-90700500D01*
X124900500Y-90607314D01*
X124966392Y-90493186D01*
X125000500Y-90365892D01*
X125000500Y-90234108D01*
X124966392Y-90106814D01*
X124900500Y-89992686D01*
X124807314Y-89899500D01*
X124807311Y-89899498D01*
X124805847Y-89898375D01*
X124804921Y-89897107D01*
X124801567Y-89893753D01*
X124802090Y-89893229D01*
X124764645Y-89841947D01*
X124760491Y-89772201D01*
X124794704Y-89711281D01*
X124805847Y-89701625D01*
X124807306Y-89700504D01*
X124807314Y-89700500D01*
X124900500Y-89607314D01*
X124966392Y-89493186D01*
X125000500Y-89365892D01*
X125000500Y-89234108D01*
X124966392Y-89106814D01*
X124900500Y-88992686D01*
X124807314Y-88899500D01*
X124807311Y-88899498D01*
X124805847Y-88898375D01*
X124804921Y-88897107D01*
X124801567Y-88893753D01*
X124802090Y-88893229D01*
X124764645Y-88841947D01*
X124760491Y-88772201D01*
X124794704Y-88711281D01*
X124805847Y-88701625D01*
X124807306Y-88700504D01*
X124807314Y-88700500D01*
X124900500Y-88607314D01*
X124966392Y-88493186D01*
X124995619Y-88384108D01*
X142499500Y-88384108D01*
X142499500Y-88515891D01*
X142533608Y-88643187D01*
X142566554Y-88700250D01*
X142599500Y-88757314D01*
X142692686Y-88850500D01*
X142806814Y-88916392D01*
X142934108Y-88950500D01*
X142934110Y-88950500D01*
X143065890Y-88950500D01*
X143065892Y-88950500D01*
X143193186Y-88916392D01*
X143307314Y-88850500D01*
X143400500Y-88757314D01*
X143466392Y-88643186D01*
X143500500Y-88515892D01*
X143500500Y-88384108D01*
X143466392Y-88256814D01*
X143400500Y-88142686D01*
X143307314Y-88049500D01*
X143208910Y-87992686D01*
X143193187Y-87983608D01*
X143129539Y-87966554D01*
X143065892Y-87949500D01*
X142934108Y-87949500D01*
X142806812Y-87983608D01*
X142692686Y-88049500D01*
X142692683Y-88049502D01*
X142599502Y-88142683D01*
X142599500Y-88142686D01*
X142533608Y-88256812D01*
X142499500Y-88384108D01*
X124995619Y-88384108D01*
X125000500Y-88365892D01*
X125000500Y-88234108D01*
X124966392Y-88106814D01*
X124900500Y-87992686D01*
X124807314Y-87899500D01*
X124807311Y-87899498D01*
X124805847Y-87898375D01*
X124804921Y-87897107D01*
X124801567Y-87893753D01*
X124802090Y-87893229D01*
X124764645Y-87841947D01*
X124760491Y-87772201D01*
X124794704Y-87711281D01*
X124805847Y-87701625D01*
X124807306Y-87700504D01*
X124807314Y-87700500D01*
X124900500Y-87607314D01*
X124966392Y-87493186D01*
X125000500Y-87365892D01*
X125000500Y-87234108D01*
X124966392Y-87106814D01*
X124900500Y-86992686D01*
X124807314Y-86899500D01*
X124807311Y-86899498D01*
X124805847Y-86898375D01*
X124804921Y-86897107D01*
X124801567Y-86893753D01*
X124802090Y-86893229D01*
X124764645Y-86841947D01*
X124760491Y-86772201D01*
X124794704Y-86711281D01*
X124805847Y-86701625D01*
X124807306Y-86700504D01*
X124807314Y-86700500D01*
X124900500Y-86607314D01*
X124966392Y-86493186D01*
X124968824Y-86484108D01*
X152249500Y-86484108D01*
X152249500Y-86615891D01*
X152283608Y-86743187D01*
X152297006Y-86766392D01*
X152349500Y-86857314D01*
X152349502Y-86857316D01*
X152442687Y-86950501D01*
X152444158Y-86951630D01*
X152445083Y-86952897D01*
X152448433Y-86956247D01*
X152447910Y-86956769D01*
X152485356Y-87008060D01*
X152489506Y-87077807D01*
X152455289Y-87138725D01*
X152444158Y-87148370D01*
X152442687Y-87149498D01*
X152349502Y-87242683D01*
X152349500Y-87242686D01*
X152283608Y-87356812D01*
X152249500Y-87484108D01*
X152249500Y-87615891D01*
X152283608Y-87743187D01*
X152297006Y-87766392D01*
X152349500Y-87857314D01*
X152349502Y-87857316D01*
X152442687Y-87950501D01*
X152444158Y-87951630D01*
X152445083Y-87952897D01*
X152448433Y-87956247D01*
X152447910Y-87956769D01*
X152485356Y-88008060D01*
X152489506Y-88077807D01*
X152455289Y-88138725D01*
X152444158Y-88148370D01*
X152442687Y-88149498D01*
X152349502Y-88242683D01*
X152349500Y-88242686D01*
X152283608Y-88356812D01*
X152249500Y-88484108D01*
X152249500Y-88615891D01*
X152283608Y-88743187D01*
X152297006Y-88766392D01*
X152349500Y-88857314D01*
X152349502Y-88857316D01*
X152442686Y-88950500D01*
X152444158Y-88951630D01*
X152445083Y-88952897D01*
X152448433Y-88956247D01*
X152447910Y-88956769D01*
X152485356Y-89008060D01*
X152489506Y-89077807D01*
X152455289Y-89138725D01*
X152444158Y-89148370D01*
X152442687Y-89149498D01*
X152349502Y-89242683D01*
X152349500Y-89242686D01*
X152283608Y-89356812D01*
X152249500Y-89484108D01*
X152249500Y-89615891D01*
X152283608Y-89743187D01*
X152297006Y-89766392D01*
X152349500Y-89857314D01*
X152349502Y-89857316D01*
X152442687Y-89950501D01*
X152444158Y-89951630D01*
X152445083Y-89952897D01*
X152448433Y-89956247D01*
X152447910Y-89956769D01*
X152485356Y-90008060D01*
X152489506Y-90077807D01*
X152455289Y-90138725D01*
X152444158Y-90148370D01*
X152442687Y-90149498D01*
X152349502Y-90242683D01*
X152349500Y-90242686D01*
X152283608Y-90356812D01*
X152249500Y-90484108D01*
X152249500Y-90615891D01*
X152283608Y-90743187D01*
X152297006Y-90766392D01*
X152349500Y-90857314D01*
X152349502Y-90857316D01*
X152442687Y-90950501D01*
X152444158Y-90951630D01*
X152445083Y-90952897D01*
X152448433Y-90956247D01*
X152447910Y-90956769D01*
X152485356Y-91008060D01*
X152489506Y-91077807D01*
X152455289Y-91138725D01*
X152444158Y-91148370D01*
X152442687Y-91149498D01*
X152349502Y-91242683D01*
X152349500Y-91242686D01*
X152283608Y-91356812D01*
X152273997Y-91392683D01*
X152249500Y-91484108D01*
X152249500Y-91615892D01*
X152266554Y-91679539D01*
X152283608Y-91743187D01*
X152296717Y-91765892D01*
X152349500Y-91857314D01*
X152349502Y-91857316D01*
X152442687Y-91950501D01*
X152444158Y-91951630D01*
X152445083Y-91952897D01*
X152448433Y-91956247D01*
X152447910Y-91956769D01*
X152485356Y-92008060D01*
X152489506Y-92077807D01*
X152455289Y-92138725D01*
X152444158Y-92148370D01*
X152442687Y-92149498D01*
X152349502Y-92242683D01*
X152349500Y-92242686D01*
X152283608Y-92356812D01*
X152249500Y-92484108D01*
X152249500Y-92615891D01*
X152283608Y-92743187D01*
X152297005Y-92766391D01*
X152349500Y-92857314D01*
X152349502Y-92857316D01*
X152442687Y-92950501D01*
X152444158Y-92951630D01*
X152445083Y-92952897D01*
X152448433Y-92956247D01*
X152447910Y-92956769D01*
X152485356Y-93008060D01*
X152489506Y-93077807D01*
X152455289Y-93138725D01*
X152444158Y-93148370D01*
X152442687Y-93149498D01*
X152349502Y-93242683D01*
X152349500Y-93242686D01*
X152283608Y-93356812D01*
X152249500Y-93484108D01*
X152249500Y-93615891D01*
X152283608Y-93743187D01*
X152297006Y-93766392D01*
X152349500Y-93857314D01*
X152349502Y-93857316D01*
X152442687Y-93950501D01*
X152444158Y-93951630D01*
X152445083Y-93952897D01*
X152448433Y-93956247D01*
X152447910Y-93956769D01*
X152485356Y-94008060D01*
X152489506Y-94077807D01*
X152455289Y-94138725D01*
X152444158Y-94148370D01*
X152442687Y-94149498D01*
X152349502Y-94242683D01*
X152349500Y-94242686D01*
X152283608Y-94356812D01*
X152249500Y-94484108D01*
X152249500Y-94615891D01*
X152283608Y-94743187D01*
X152297005Y-94766391D01*
X152349500Y-94857314D01*
X152349502Y-94857316D01*
X152442687Y-94950501D01*
X152444158Y-94951630D01*
X152445083Y-94952897D01*
X152448433Y-94956247D01*
X152447910Y-94956769D01*
X152485356Y-95008060D01*
X152489506Y-95077807D01*
X152455289Y-95138725D01*
X152444158Y-95148370D01*
X152442687Y-95149498D01*
X152349502Y-95242683D01*
X152349500Y-95242686D01*
X152283608Y-95356812D01*
X152249500Y-95484108D01*
X152249500Y-95615891D01*
X152283608Y-95743187D01*
X152297006Y-95766392D01*
X152349500Y-95857314D01*
X152442686Y-95950500D01*
X152556814Y-96016392D01*
X152684108Y-96050500D01*
X152684110Y-96050500D01*
X152815890Y-96050500D01*
X152815892Y-96050500D01*
X152943186Y-96016392D01*
X153057314Y-95950500D01*
X153150500Y-95857314D01*
X153150504Y-95857306D01*
X153151625Y-95855847D01*
X153152892Y-95854921D01*
X153156247Y-95851567D01*
X153156770Y-95852090D01*
X153165440Y-95845759D01*
X153175690Y-95832068D01*
X153193068Y-95825585D01*
X153208053Y-95814645D01*
X153225129Y-95813627D01*
X153241154Y-95807651D01*
X153259279Y-95811594D01*
X153277799Y-95810491D01*
X153293060Y-95818942D01*
X153309427Y-95822503D01*
X153327631Y-95838087D01*
X153337682Y-95843654D01*
X153346983Y-95852955D01*
X153349500Y-95857314D01*
X153442686Y-95950500D01*
X153447042Y-95953014D01*
X153456346Y-95962319D01*
X153469353Y-95986140D01*
X153485356Y-96008060D01*
X153485849Y-96016351D01*
X153489830Y-96023642D01*
X153487893Y-96050714D01*
X153489506Y-96077807D01*
X153485438Y-96085048D01*
X153484846Y-96093334D01*
X153468580Y-96115061D01*
X153455289Y-96138725D01*
X153444158Y-96148370D01*
X153442687Y-96149498D01*
X153349502Y-96242683D01*
X153349500Y-96242686D01*
X153283608Y-96356812D01*
X153273997Y-96392683D01*
X153249500Y-96484108D01*
X153249500Y-96615892D01*
X153266554Y-96679539D01*
X153283608Y-96743187D01*
X153296717Y-96765892D01*
X153349500Y-96857314D01*
X153349502Y-96857316D01*
X153442687Y-96950501D01*
X153444158Y-96951630D01*
X153445083Y-96952897D01*
X153448433Y-96956247D01*
X153447910Y-96956769D01*
X153485356Y-97008060D01*
X153489506Y-97077807D01*
X153455289Y-97138725D01*
X153444158Y-97148370D01*
X153442687Y-97149498D01*
X153349502Y-97242683D01*
X153349500Y-97242686D01*
X153283608Y-97356812D01*
X153272170Y-97399500D01*
X153249500Y-97484108D01*
X153249500Y-97615892D01*
X153266554Y-97679539D01*
X153283608Y-97743187D01*
X153297006Y-97766392D01*
X153349500Y-97857314D01*
X153349502Y-97857316D01*
X153442687Y-97950501D01*
X153444158Y-97951630D01*
X153445083Y-97952897D01*
X153448433Y-97956247D01*
X153447910Y-97956769D01*
X153485356Y-98008060D01*
X153489506Y-98077807D01*
X153455289Y-98138725D01*
X153444158Y-98148370D01*
X153442687Y-98149498D01*
X153349502Y-98242683D01*
X153349500Y-98242686D01*
X153283608Y-98356812D01*
X153250000Y-98482241D01*
X153249500Y-98484108D01*
X153249500Y-98615892D01*
X153250000Y-98617758D01*
X153283608Y-98743187D01*
X153297005Y-98766391D01*
X153349500Y-98857314D01*
X153442686Y-98950500D01*
X153556814Y-99016392D01*
X153684108Y-99050500D01*
X153684110Y-99050500D01*
X153815890Y-99050500D01*
X153815892Y-99050500D01*
X153943186Y-99016392D01*
X154057314Y-98950500D01*
X154150500Y-98857314D01*
X154150504Y-98857306D01*
X154151625Y-98855847D01*
X154152892Y-98854921D01*
X154156247Y-98851567D01*
X154156770Y-98852090D01*
X154208053Y-98814645D01*
X154277799Y-98810491D01*
X154338719Y-98844704D01*
X154348375Y-98855847D01*
X154349498Y-98857311D01*
X154349500Y-98857314D01*
X154442686Y-98950500D01*
X154556814Y-99016392D01*
X154684108Y-99050500D01*
X154684110Y-99050500D01*
X154815890Y-99050500D01*
X154815892Y-99050500D01*
X154943186Y-99016392D01*
X155057314Y-98950500D01*
X155150500Y-98857314D01*
X155216392Y-98743186D01*
X155250500Y-98615892D01*
X155250500Y-98484108D01*
X155216392Y-98356814D01*
X155150500Y-98242686D01*
X155057314Y-98149500D01*
X155057311Y-98149498D01*
X155055847Y-98148375D01*
X155054921Y-98147107D01*
X155051567Y-98143753D01*
X155052090Y-98143229D01*
X155014645Y-98091947D01*
X155010491Y-98022201D01*
X155044704Y-97961281D01*
X155055847Y-97951625D01*
X155057306Y-97950504D01*
X155057314Y-97950500D01*
X155150500Y-97857314D01*
X155216392Y-97743186D01*
X155250500Y-97615892D01*
X155250500Y-97484108D01*
X155216392Y-97356814D01*
X155150500Y-97242686D01*
X155057314Y-97149500D01*
X155057311Y-97149498D01*
X155055847Y-97148375D01*
X155054921Y-97147107D01*
X155051567Y-97143753D01*
X155052090Y-97143229D01*
X155014645Y-97091947D01*
X155010491Y-97022201D01*
X155044704Y-96961281D01*
X155055847Y-96951625D01*
X155057306Y-96950504D01*
X155057314Y-96950500D01*
X155150500Y-96857314D01*
X155216392Y-96743186D01*
X155250500Y-96615892D01*
X155250500Y-96484108D01*
X155216392Y-96356814D01*
X155150500Y-96242686D01*
X155057314Y-96149500D01*
X155057311Y-96149498D01*
X155055847Y-96148375D01*
X155054921Y-96147107D01*
X155051567Y-96143753D01*
X155052090Y-96143229D01*
X155014645Y-96091947D01*
X155010491Y-96022201D01*
X155044704Y-95961281D01*
X155055847Y-95951625D01*
X155057306Y-95950504D01*
X155057314Y-95950500D01*
X155150500Y-95857314D01*
X155216392Y-95743186D01*
X155250500Y-95615892D01*
X155250500Y-95484108D01*
X155216392Y-95356814D01*
X155150500Y-95242686D01*
X155057314Y-95149500D01*
X155057311Y-95149498D01*
X155055847Y-95148375D01*
X155054921Y-95147107D01*
X155051567Y-95143753D01*
X155052090Y-95143229D01*
X155014645Y-95091947D01*
X155010491Y-95022201D01*
X155044704Y-94961281D01*
X155055847Y-94951625D01*
X155057306Y-94950504D01*
X155057314Y-94950500D01*
X155150500Y-94857314D01*
X155216392Y-94743186D01*
X155250500Y-94615892D01*
X155250500Y-94484108D01*
X155216392Y-94356814D01*
X155216189Y-94356463D01*
X155183876Y-94300495D01*
X155150500Y-94242686D01*
X155057314Y-94149500D01*
X155057311Y-94149498D01*
X155055847Y-94148375D01*
X155054921Y-94147107D01*
X155051567Y-94143753D01*
X155052090Y-94143229D01*
X155014645Y-94091947D01*
X155010491Y-94022201D01*
X155044704Y-93961281D01*
X155055847Y-93951625D01*
X155057306Y-93950504D01*
X155057314Y-93950500D01*
X155150500Y-93857314D01*
X155216392Y-93743186D01*
X155250500Y-93615892D01*
X155250500Y-93484108D01*
X155216392Y-93356814D01*
X155150500Y-93242686D01*
X155057314Y-93149500D01*
X155057311Y-93149498D01*
X155055847Y-93148375D01*
X155054921Y-93147107D01*
X155051567Y-93143753D01*
X155052090Y-93143229D01*
X155014645Y-93091947D01*
X155010491Y-93022201D01*
X155044704Y-92961281D01*
X155055847Y-92951625D01*
X155057306Y-92950504D01*
X155057314Y-92950500D01*
X155150500Y-92857314D01*
X155216392Y-92743186D01*
X155250500Y-92615892D01*
X155250500Y-92484108D01*
X155216392Y-92356814D01*
X155150500Y-92242686D01*
X155057314Y-92149500D01*
X155057311Y-92149498D01*
X155055847Y-92148375D01*
X155054921Y-92147107D01*
X155051567Y-92143753D01*
X155052090Y-92143229D01*
X155014645Y-92091947D01*
X155010491Y-92022201D01*
X155044704Y-91961281D01*
X155055847Y-91951625D01*
X155057306Y-91950504D01*
X155057314Y-91950500D01*
X155150500Y-91857314D01*
X155216392Y-91743186D01*
X155250500Y-91615892D01*
X155250500Y-91484108D01*
X155216392Y-91356814D01*
X155207946Y-91342186D01*
X155207563Y-91341521D01*
X155150500Y-91242686D01*
X155057314Y-91149500D01*
X155057311Y-91149498D01*
X155055847Y-91148375D01*
X155054921Y-91147107D01*
X155051567Y-91143753D01*
X155052090Y-91143229D01*
X155014645Y-91091947D01*
X155010491Y-91022201D01*
X155044704Y-90961281D01*
X155055847Y-90951625D01*
X155057306Y-90950504D01*
X155057314Y-90950500D01*
X155150500Y-90857314D01*
X155216392Y-90743186D01*
X155250500Y-90615892D01*
X155250500Y-90484108D01*
X155216392Y-90356814D01*
X155150500Y-90242686D01*
X155057314Y-90149500D01*
X155057311Y-90149498D01*
X155055847Y-90148375D01*
X155054921Y-90147107D01*
X155051567Y-90143753D01*
X155052090Y-90143229D01*
X155014645Y-90091947D01*
X155010491Y-90022201D01*
X155044704Y-89961281D01*
X155055847Y-89951625D01*
X155057306Y-89950504D01*
X155057314Y-89950500D01*
X155150500Y-89857314D01*
X155216392Y-89743186D01*
X155250500Y-89615892D01*
X155250500Y-89484108D01*
X155216392Y-89356814D01*
X155150500Y-89242686D01*
X155057314Y-89149500D01*
X155057311Y-89149498D01*
X155055847Y-89148375D01*
X155054921Y-89147107D01*
X155051567Y-89143753D01*
X155052090Y-89143229D01*
X155014645Y-89091947D01*
X155010491Y-89022201D01*
X155044704Y-88961281D01*
X155055847Y-88951625D01*
X155057306Y-88950504D01*
X155057314Y-88950500D01*
X155150500Y-88857314D01*
X155216392Y-88743186D01*
X155250500Y-88615892D01*
X155250500Y-88484108D01*
X155216392Y-88356814D01*
X155150500Y-88242686D01*
X155057314Y-88149500D01*
X155057311Y-88149498D01*
X155055847Y-88148375D01*
X155054921Y-88147107D01*
X155051567Y-88143753D01*
X155052090Y-88143229D01*
X155014645Y-88091947D01*
X155010491Y-88022201D01*
X155044704Y-87961281D01*
X155055847Y-87951625D01*
X155057306Y-87950504D01*
X155057314Y-87950500D01*
X155150500Y-87857314D01*
X155216392Y-87743186D01*
X155250500Y-87615892D01*
X155250500Y-87484108D01*
X155216392Y-87356814D01*
X155150500Y-87242686D01*
X155057314Y-87149500D01*
X155057311Y-87149498D01*
X155055847Y-87148375D01*
X155054921Y-87147107D01*
X155051567Y-87143753D01*
X155052090Y-87143229D01*
X155014645Y-87091947D01*
X155010491Y-87022201D01*
X155044704Y-86961281D01*
X155055847Y-86951625D01*
X155057306Y-86950504D01*
X155057314Y-86950500D01*
X155150500Y-86857314D01*
X155216392Y-86743186D01*
X155250500Y-86615892D01*
X155250500Y-86484108D01*
X155216392Y-86356814D01*
X155150500Y-86242686D01*
X155057314Y-86149500D01*
X154983380Y-86106814D01*
X154943187Y-86083608D01*
X154879539Y-86066554D01*
X154815892Y-86049500D01*
X154684108Y-86049500D01*
X154556812Y-86083608D01*
X154442686Y-86149500D01*
X154442683Y-86149502D01*
X154349498Y-86242687D01*
X154348370Y-86244158D01*
X154347102Y-86245083D01*
X154343753Y-86248433D01*
X154343230Y-86247910D01*
X154291940Y-86285356D01*
X154222193Y-86289506D01*
X154161275Y-86255289D01*
X154151630Y-86244158D01*
X154150501Y-86242687D01*
X154057316Y-86149502D01*
X154057314Y-86149500D01*
X153983380Y-86106814D01*
X153943187Y-86083608D01*
X153879539Y-86066554D01*
X153815892Y-86049500D01*
X153684108Y-86049500D01*
X153556812Y-86083608D01*
X153442686Y-86149500D01*
X153442683Y-86149502D01*
X153349498Y-86242687D01*
X153348370Y-86244158D01*
X153347102Y-86245083D01*
X153343753Y-86248433D01*
X153343230Y-86247910D01*
X153291940Y-86285356D01*
X153222193Y-86289506D01*
X153161275Y-86255289D01*
X153151630Y-86244158D01*
X153150501Y-86242687D01*
X153057316Y-86149502D01*
X153057314Y-86149500D01*
X152983380Y-86106814D01*
X152943187Y-86083608D01*
X152879539Y-86066554D01*
X152815892Y-86049500D01*
X152684108Y-86049500D01*
X152556812Y-86083608D01*
X152442686Y-86149500D01*
X152442683Y-86149502D01*
X152349502Y-86242683D01*
X152349500Y-86242686D01*
X152283608Y-86356812D01*
X152249500Y-86484108D01*
X124968824Y-86484108D01*
X125000500Y-86365892D01*
X125000500Y-86234108D01*
X124966392Y-86106814D01*
X124900500Y-85992686D01*
X124807314Y-85899500D01*
X124750250Y-85866554D01*
X124693187Y-85833608D01*
X124629539Y-85816554D01*
X124565892Y-85799500D01*
X124434108Y-85799500D01*
X124306812Y-85833608D01*
X124192686Y-85899500D01*
X124192683Y-85899502D01*
X124099498Y-85992687D01*
X124098370Y-85994158D01*
X124097102Y-85995083D01*
X124093753Y-85998433D01*
X124093230Y-85997910D01*
X124041940Y-86035356D01*
X123972193Y-86039506D01*
X123911275Y-86005289D01*
X123901630Y-85994158D01*
X123900501Y-85992687D01*
X123807316Y-85899502D01*
X123807314Y-85899500D01*
X123750250Y-85866554D01*
X123693187Y-85833608D01*
X123629539Y-85816554D01*
X123565892Y-85799500D01*
X123434108Y-85799500D01*
X123306812Y-85833608D01*
X123192686Y-85899500D01*
X123192683Y-85899502D01*
X123099498Y-85992687D01*
X123098370Y-85994158D01*
X123097102Y-85995083D01*
X123093753Y-85998433D01*
X123093230Y-85997910D01*
X123041940Y-86035356D01*
X122972193Y-86039506D01*
X122911275Y-86005289D01*
X122901630Y-85994158D01*
X122900501Y-85992687D01*
X122807316Y-85899502D01*
X122807314Y-85899500D01*
X122750250Y-85866554D01*
X122693187Y-85833608D01*
X122629539Y-85816554D01*
X122565892Y-85799500D01*
X122434108Y-85799500D01*
X122306812Y-85833608D01*
X122192686Y-85899500D01*
X122192683Y-85899502D01*
X122099502Y-85992683D01*
X122099500Y-85992686D01*
X122033608Y-86106812D01*
X121999500Y-86234108D01*
X115420500Y-86234108D01*
X115420500Y-76223095D01*
X116750000Y-76223095D01*
X116750000Y-76576904D01*
X116789611Y-76928463D01*
X116789613Y-76928475D01*
X116868341Y-77273409D01*
X116868344Y-77273417D01*
X116985191Y-77607345D01*
X116985197Y-77607359D01*
X117138700Y-77926112D01*
X117326935Y-78225685D01*
X117547526Y-78502298D01*
X117548870Y-78503642D01*
X118650381Y-77402130D01*
X118679588Y-77442330D01*
X118857670Y-77620412D01*
X118897868Y-77649617D01*
X117796357Y-78751129D01*
X117797701Y-78752473D01*
X118074314Y-78973064D01*
X118373887Y-79161299D01*
X118692640Y-79314802D01*
X118692654Y-79314808D01*
X119026582Y-79431655D01*
X119026590Y-79431658D01*
X119371524Y-79510386D01*
X119371536Y-79510388D01*
X119723095Y-79549999D01*
X119723097Y-79550000D01*
X120076903Y-79550000D01*
X120076904Y-79549999D01*
X120428463Y-79510388D01*
X120428475Y-79510386D01*
X120773409Y-79431658D01*
X120773417Y-79431655D01*
X121107345Y-79314808D01*
X121107359Y-79314802D01*
X121426112Y-79161299D01*
X121725685Y-78973064D01*
X122002303Y-78752469D01*
X122003641Y-78751130D01*
X122003641Y-78751128D01*
X120902131Y-77649618D01*
X120942330Y-77620412D01*
X121120412Y-77442330D01*
X121149618Y-77402131D01*
X122251128Y-78503641D01*
X122251130Y-78503642D01*
X122252469Y-78502303D01*
X122473064Y-78225685D01*
X122661299Y-77926112D01*
X122814802Y-77607359D01*
X122814808Y-77607345D01*
X122931655Y-77273417D01*
X122931658Y-77273409D01*
X123010386Y-76928475D01*
X123010388Y-76928463D01*
X123049999Y-76576904D01*
X123050000Y-76576902D01*
X123050000Y-76223097D01*
X123049999Y-76223095D01*
X156850000Y-76223095D01*
X156850000Y-76576904D01*
X156889611Y-76928463D01*
X156889613Y-76928475D01*
X156968341Y-77273409D01*
X156968344Y-77273417D01*
X157085191Y-77607345D01*
X157085197Y-77607359D01*
X157238700Y-77926112D01*
X157426935Y-78225685D01*
X157647526Y-78502298D01*
X157648870Y-78503642D01*
X158750381Y-77402130D01*
X158779588Y-77442330D01*
X158957670Y-77620412D01*
X158997868Y-77649617D01*
X157896357Y-78751129D01*
X157897701Y-78752473D01*
X158174314Y-78973064D01*
X158473887Y-79161299D01*
X158792640Y-79314802D01*
X158792654Y-79314808D01*
X159126582Y-79431655D01*
X159126590Y-79431658D01*
X159471524Y-79510386D01*
X159471536Y-79510388D01*
X159823095Y-79549999D01*
X159823097Y-79550000D01*
X160176903Y-79550000D01*
X160176904Y-79549999D01*
X160528463Y-79510388D01*
X160528475Y-79510386D01*
X160873409Y-79431658D01*
X160873417Y-79431655D01*
X161207345Y-79314808D01*
X161207359Y-79314802D01*
X161526112Y-79161299D01*
X161825685Y-78973064D01*
X162102303Y-78752469D01*
X162103642Y-78751130D01*
X162103641Y-78751128D01*
X161002131Y-77649618D01*
X161042330Y-77620412D01*
X161220412Y-77442330D01*
X161249618Y-77402131D01*
X162351128Y-78503641D01*
X162351130Y-78503642D01*
X162352469Y-78502303D01*
X162573064Y-78225685D01*
X162761299Y-77926112D01*
X162914802Y-77607359D01*
X162914808Y-77607345D01*
X163031655Y-77273417D01*
X163031658Y-77273409D01*
X163110386Y-76928475D01*
X163110388Y-76928463D01*
X163149999Y-76576904D01*
X163150000Y-76576902D01*
X163150000Y-76223097D01*
X163149999Y-76223095D01*
X163110388Y-75871536D01*
X163110386Y-75871524D01*
X163031658Y-75526590D01*
X163031655Y-75526582D01*
X162914808Y-75192654D01*
X162914802Y-75192640D01*
X162761299Y-74873887D01*
X162573064Y-74574314D01*
X162352473Y-74297701D01*
X162351129Y-74296357D01*
X162351128Y-74296357D01*
X161249617Y-75397867D01*
X161220412Y-75357670D01*
X161042330Y-75179588D01*
X161002130Y-75150381D01*
X162103642Y-74048870D01*
X162102298Y-74047526D01*
X161825685Y-73826935D01*
X161526112Y-73638700D01*
X161207359Y-73485197D01*
X161207345Y-73485191D01*
X160873417Y-73368344D01*
X160873409Y-73368341D01*
X160528475Y-73289613D01*
X160528463Y-73289611D01*
X160176904Y-73250000D01*
X159823095Y-73250000D01*
X159471536Y-73289611D01*
X159471524Y-73289613D01*
X159126590Y-73368341D01*
X159126582Y-73368344D01*
X158792654Y-73485191D01*
X158792640Y-73485197D01*
X158473887Y-73638700D01*
X158174314Y-73826935D01*
X157897701Y-74047526D01*
X157896356Y-74048870D01*
X158997868Y-75150382D01*
X158957670Y-75179588D01*
X158779588Y-75357670D01*
X158750381Y-75397868D01*
X157648870Y-74296357D01*
X157647526Y-74297701D01*
X157426935Y-74574314D01*
X157238700Y-74873887D01*
X157085197Y-75192640D01*
X157085191Y-75192654D01*
X156968344Y-75526582D01*
X156968341Y-75526590D01*
X156889613Y-75871524D01*
X156889611Y-75871536D01*
X156850000Y-76223095D01*
X123049999Y-76223095D01*
X123010388Y-75871536D01*
X123010386Y-75871524D01*
X122931658Y-75526590D01*
X122931655Y-75526582D01*
X122814808Y-75192654D01*
X122814802Y-75192640D01*
X122661299Y-74873887D01*
X122473064Y-74574314D01*
X122252473Y-74297701D01*
X122251129Y-74296357D01*
X122251128Y-74296357D01*
X121149617Y-75397867D01*
X121120412Y-75357670D01*
X120942330Y-75179588D01*
X120902130Y-75150381D01*
X122003642Y-74048870D01*
X122002298Y-74047526D01*
X121725685Y-73826935D01*
X121426112Y-73638700D01*
X121107359Y-73485197D01*
X121107345Y-73485191D01*
X120773417Y-73368344D01*
X120773409Y-73368341D01*
X120428475Y-73289613D01*
X120428463Y-73289611D01*
X120076904Y-73250000D01*
X119723095Y-73250000D01*
X119371536Y-73289611D01*
X119371524Y-73289613D01*
X119026590Y-73368341D01*
X119026582Y-73368344D01*
X118692654Y-73485191D01*
X118692640Y-73485197D01*
X118373887Y-73638700D01*
X118074314Y-73826935D01*
X117797701Y-74047526D01*
X117796357Y-74048870D01*
X118897868Y-75150381D01*
X118857670Y-75179588D01*
X118679588Y-75357670D01*
X118650381Y-75397868D01*
X117548870Y-74296357D01*
X117547526Y-74297701D01*
X117326935Y-74574314D01*
X117138700Y-74873887D01*
X116985197Y-75192640D01*
X116985191Y-75192654D01*
X116868344Y-75526582D01*
X116868341Y-75526590D01*
X116789613Y-75871524D01*
X116789611Y-75871536D01*
X116750000Y-76223095D01*
X115420500Y-76223095D01*
X115420500Y-72044500D01*
X115440185Y-71977461D01*
X115492989Y-71931706D01*
X115544500Y-71920500D01*
X164295500Y-71920500D01*
X164362539Y-71940185D01*
G37*
G04 #@! TD.AperFunction*
M02*
