G04 #@! TF.GenerationSoftware,KiCad,Pcbnew,9.0.1*
G04 #@! TF.CreationDate,2025-04-23T11:21:28+02:00*
G04 #@! TF.ProjectId,LTC3119-breakout,4c544333-3131-4392-9d62-7265616b6f75,rev?*
G04 #@! TF.SameCoordinates,Original*
G04 #@! TF.FileFunction,Soldermask,Top*
G04 #@! TF.FilePolarity,Negative*
%FSLAX46Y46*%
G04 Gerber Fmt 4.6, Leading zero omitted, Abs format (unit mm)*
G04 Created by KiCad (PCBNEW 9.0.1) date 2025-04-23 11:21:28*
%MOMM*%
%LPD*%
G01*
G04 APERTURE LIST*
G04 Aperture macros list*
%AMRoundRect*
0 Rectangle with rounded corners*
0 $1 Rounding radius*
0 $2 $3 $4 $5 $6 $7 $8 $9 X,Y pos of 4 corners*
0 Add a 4 corners polygon primitive as box body*
4,1,4,$2,$3,$4,$5,$6,$7,$8,$9,$2,$3,0*
0 Add four circle primitives for the rounded corners*
1,1,$1+$1,$2,$3*
1,1,$1+$1,$4,$5*
1,1,$1+$1,$6,$7*
1,1,$1+$1,$8,$9*
0 Add four rect primitives between the rounded corners*
20,1,$1+$1,$2,$3,$4,$5,0*
20,1,$1+$1,$4,$5,$6,$7,0*
20,1,$1+$1,$6,$7,$8,$9,0*
20,1,$1+$1,$8,$9,$2,$3,0*%
G04 Aperture macros list end*
%ADD10RoundRect,0.250000X-0.350000X-0.450000X0.350000X-0.450000X0.350000X0.450000X-0.350000X0.450000X0*%
%ADD11C,1.000000*%
%ADD12RoundRect,0.250000X0.475000X-0.337500X0.475000X0.337500X-0.475000X0.337500X-0.475000X-0.337500X0*%
%ADD13RoundRect,0.250000X-0.412500X-1.100000X0.412500X-1.100000X0.412500X1.100000X-0.412500X1.100000X0*%
%ADD14RoundRect,0.250000X0.412500X1.100000X-0.412500X1.100000X-0.412500X-1.100000X0.412500X-1.100000X0*%
%ADD15RoundRect,0.250000X0.350000X0.450000X-0.350000X0.450000X-0.350000X-0.450000X0.350000X-0.450000X0*%
%ADD16R,1.700000X1.700000*%
%ADD17C,1.700000*%
%ADD18RoundRect,0.250000X0.450000X-0.350000X0.450000X0.350000X-0.450000X0.350000X-0.450000X-0.350000X0*%
%ADD19RoundRect,0.250000X-0.475000X0.337500X-0.475000X-0.337500X0.475000X-0.337500X0.475000X0.337500X0*%
%ADD20RoundRect,0.250000X-0.450000X0.350000X-0.450000X-0.350000X0.450000X-0.350000X0.450000X0.350000X0*%
%ADD21RoundRect,0.250000X0.337500X0.475000X-0.337500X0.475000X-0.337500X-0.475000X0.337500X-0.475000X0*%
%ADD22R,1.000000X1.500000*%
%ADD23C,5.600000*%
%ADD24RoundRect,0.076750X-0.765250X-0.230250X0.765250X-0.230250X0.765250X0.230250X-0.765250X0.230250X0*%
%ADD25RoundRect,0.102000X-1.525000X-3.780000X1.525000X-3.780000X1.525000X3.780000X-1.525000X3.780000X0*%
%ADD26RoundRect,0.250000X-0.337500X-0.475000X0.337500X-0.475000X0.337500X0.475000X-0.337500X0.475000X0*%
%ADD27RoundRect,0.250000X-0.475000X0.300000X-0.475000X-0.300000X0.475000X-0.300000X0.475000X0.300000X0*%
%ADD28RoundRect,0.250000X-1.200000X0.425000X-1.200000X-0.425000X1.200000X-0.425000X1.200000X0.425000X0*%
%ADD29RoundRect,0.102000X-1.450000X2.700000X-1.450000X-2.700000X1.450000X-2.700000X1.450000X2.700000X0*%
%ADD30RoundRect,0.075000X0.075000X-0.650000X0.075000X0.650000X-0.075000X0.650000X-0.075000X-0.650000X0*%
%ADD31RoundRect,0.250000X0.475000X-0.300000X0.475000X0.300000X-0.475000X0.300000X-0.475000X-0.300000X0*%
%ADD32RoundRect,0.250000X1.200000X-0.425000X1.200000X0.425000X-1.200000X0.425000X-1.200000X-0.425000X0*%
G04 APERTURE END LIST*
G36*
X136900000Y-100620000D02*
G01*
X136600000Y-100620000D01*
X136600000Y-99120000D01*
X136900000Y-99120000D01*
X136900000Y-100620000D01*
G37*
D10*
X148620000Y-96700000D03*
X150620000Y-96700000D03*
D11*
X127000000Y-86650000D03*
D12*
X144700000Y-105937500D03*
X144700000Y-103862500D03*
D13*
X117387500Y-91190000D03*
X120512500Y-91190000D03*
D14*
X159580000Y-91200000D03*
X156455000Y-91200000D03*
D15*
X129060000Y-94750000D03*
X127060000Y-94750000D03*
D10*
X148620000Y-94710000D03*
X150620000Y-94710000D03*
X144820000Y-94710000D03*
X146820000Y-94710000D03*
D12*
X137900000Y-112237500D03*
X137900000Y-110162500D03*
D15*
X132860000Y-94750000D03*
X130860000Y-94750000D03*
D10*
X130900000Y-106300000D03*
X132900000Y-106300000D03*
D15*
X148700000Y-103900000D03*
X146700000Y-103900000D03*
D16*
X125530000Y-118650000D03*
D17*
X128070000Y-118650000D03*
X130610000Y-118650000D03*
X133150000Y-118650000D03*
D14*
X159570000Y-97920000D03*
X156445000Y-97920000D03*
D15*
X140800000Y-119350000D03*
X138800000Y-119350000D03*
D18*
X128210000Y-106630000D03*
X128210000Y-104630000D03*
D14*
X159580000Y-87850000D03*
X156455000Y-87850000D03*
D11*
X154600000Y-74800000D03*
D19*
X143900000Y-97762500D03*
X143900000Y-99837500D03*
D20*
X151090000Y-104040000D03*
X151090000Y-106040000D03*
D21*
X129077500Y-97200000D03*
X127002500Y-97200000D03*
D22*
X137400000Y-99870000D03*
X136100000Y-99870000D03*
D10*
X130900000Y-104200000D03*
X132900000Y-104200000D03*
D14*
X159580000Y-94590000D03*
X156455000Y-94590000D03*
D23*
X160000000Y-76400000D03*
D10*
X153700000Y-115700000D03*
X155700000Y-115700000D03*
D15*
X132860000Y-97210000D03*
X130860000Y-97210000D03*
D13*
X117387500Y-87740000D03*
X120512500Y-87740000D03*
D24*
X135880000Y-88450000D03*
X135880000Y-89100000D03*
X135880000Y-89750000D03*
X135880000Y-90400000D03*
X135880000Y-91050000D03*
X135880000Y-91700000D03*
X135880000Y-92350000D03*
X135880000Y-93000000D03*
X135880000Y-93650000D03*
X135880000Y-94300000D03*
X135880000Y-94950000D03*
X135880000Y-95600000D03*
X135880000Y-96250000D03*
X135880000Y-96900000D03*
X141610000Y-96900000D03*
X141610000Y-96250000D03*
X141610000Y-95600000D03*
X141610000Y-94950000D03*
X141610000Y-94300000D03*
X141610000Y-93650000D03*
X141610000Y-93000000D03*
X141610000Y-92350000D03*
X141610000Y-91700000D03*
X141610000Y-91050000D03*
X141610000Y-90400000D03*
X141610000Y-89750000D03*
X141610000Y-89100000D03*
X141610000Y-88450000D03*
D25*
X138745000Y-92675000D03*
D26*
X144362500Y-89300000D03*
X146437500Y-89300000D03*
D13*
X117387500Y-94550000D03*
X120512500Y-94550000D03*
D27*
X124120000Y-107840000D03*
X124120000Y-109840000D03*
D28*
X118125000Y-104945000D03*
X118125000Y-112735000D03*
D13*
X117407500Y-97950000D03*
X120532500Y-97950000D03*
D21*
X129077500Y-99240000D03*
X127002500Y-99240000D03*
D16*
X146690000Y-118650000D03*
D17*
X149230000Y-118650000D03*
X151770000Y-118650000D03*
X154310000Y-118650000D03*
D11*
X150625000Y-87400000D03*
X159950000Y-102200000D03*
D29*
X143600000Y-79970000D03*
X133900000Y-79970000D03*
D19*
X134900000Y-104162500D03*
X134900000Y-106237500D03*
D30*
X142300000Y-114700000D03*
X142800000Y-114700000D03*
X143300000Y-114700000D03*
X143800000Y-114700000D03*
X144300000Y-114700000D03*
X144300000Y-110300000D03*
X143800000Y-110300000D03*
X143300000Y-110300000D03*
X142800000Y-110300000D03*
X142300000Y-110300000D03*
X134000000Y-114700000D03*
X134500000Y-114700000D03*
X135000000Y-114700000D03*
X135500000Y-114700000D03*
X136000000Y-114700000D03*
X136000000Y-110300000D03*
X135500000Y-110300000D03*
X135000000Y-110300000D03*
X134500000Y-110300000D03*
X134000000Y-110300000D03*
D12*
X146200000Y-112237500D03*
X146200000Y-110162500D03*
D11*
X128475000Y-92625000D03*
D15*
X148700000Y-106000000D03*
X146700000Y-106000000D03*
D11*
X148550000Y-92675000D03*
D26*
X131562500Y-89320000D03*
X133637500Y-89320000D03*
D31*
X155500000Y-109840000D03*
X155500000Y-107840000D03*
D32*
X161495000Y-112735000D03*
X161495000Y-104945000D03*
D11*
X118450000Y-116675000D03*
D23*
X119900000Y-76400000D03*
M02*
