G04 #@! TF.GenerationSoftware,KiCad,Pcbnew,9.0.1*
G04 #@! TF.CreationDate,2025-04-23T11:21:27+02:00*
G04 #@! TF.ProjectId,LTC3119-breakout,4c544333-3131-4392-9d62-7265616b6f75,rev?*
G04 #@! TF.SameCoordinates,Original*
G04 #@! TF.FileFunction,Copper,L3,Inr*
G04 #@! TF.FilePolarity,Positive*
%FSLAX46Y46*%
G04 Gerber Fmt 4.6, Leading zero omitted, Abs format (unit mm)*
G04 Created by KiCad (PCBNEW 9.0.1) date 2025-04-23 11:21:27*
%MOMM*%
%LPD*%
G01*
G04 APERTURE LIST*
G04 #@! TA.AperFunction,ComponentPad*
%ADD10R,1.700000X1.700000*%
G04 #@! TD*
G04 #@! TA.AperFunction,ComponentPad*
%ADD11C,1.700000*%
G04 #@! TD*
G04 #@! TA.AperFunction,ComponentPad*
%ADD12C,5.600000*%
G04 #@! TD*
G04 #@! TA.AperFunction,ViaPad*
%ADD13C,0.500000*%
G04 #@! TD*
G04 #@! TA.AperFunction,ViaPad*
%ADD14C,0.450000*%
G04 #@! TD*
G04 #@! TA.AperFunction,Conductor*
%ADD15C,0.200000*%
G04 #@! TD*
G04 #@! TA.AperFunction,Conductor*
%ADD16C,0.203200*%
G04 #@! TD*
G04 APERTURE END LIST*
D10*
X125530000Y-118650000D03*
D11*
X128070000Y-118650000D03*
X130610000Y-118650000D03*
X133150000Y-118650000D03*
D12*
X160000000Y-76400000D03*
D10*
X146690000Y-118650000D03*
D11*
X149230000Y-118650000D03*
X151770000Y-118650000D03*
X154310000Y-118650000D03*
D12*
X119900000Y-76400000D03*
D13*
X132000000Y-115300000D03*
X132000000Y-111300000D03*
X143000000Y-94300000D03*
X154750000Y-95550000D03*
X154750000Y-90550000D03*
X154750000Y-96550000D03*
X145100000Y-91700000D03*
X154750000Y-91550000D03*
X153750000Y-86550000D03*
X154750000Y-98550000D03*
X152750000Y-87550000D03*
X154750000Y-87550000D03*
X143000000Y-92300000D03*
X152750000Y-86550000D03*
X152750000Y-91550000D03*
X153750000Y-98550000D03*
X152750000Y-88550000D03*
X153750000Y-96550000D03*
X153750000Y-95550000D03*
X143700000Y-92300000D03*
X153750000Y-88550000D03*
X152750000Y-90550000D03*
X144400000Y-92300000D03*
X153750000Y-97550000D03*
X154750000Y-88550000D03*
X154750000Y-93550000D03*
X143000000Y-91700000D03*
X144400000Y-91700000D03*
X153750000Y-93550000D03*
X153750000Y-90550000D03*
X153750000Y-94550000D03*
X152750000Y-93550000D03*
X153750000Y-87550000D03*
X152750000Y-94550000D03*
X152750000Y-89550000D03*
X154750000Y-92550000D03*
X145100000Y-92300000D03*
X154750000Y-86550000D03*
X154750000Y-94550000D03*
X152750000Y-95550000D03*
X154750000Y-97550000D03*
X153750000Y-92550000D03*
X153750000Y-91550000D03*
X154750000Y-89550000D03*
X153750000Y-89550000D03*
X152750000Y-92550000D03*
X143700000Y-91700000D03*
X150500000Y-114300000D03*
X162500000Y-118300000D03*
X151000000Y-98300000D03*
X122000000Y-117300000D03*
X116000000Y-117300000D03*
X130000000Y-109300000D03*
X158500000Y-118300000D03*
X143000000Y-119300000D03*
X160500000Y-116300000D03*
X158500000Y-120300000D03*
X158500000Y-116300000D03*
X132500000Y-99100000D03*
X160500000Y-120300000D03*
X122000000Y-115300000D03*
X118000000Y-119300000D03*
X162500000Y-116300000D03*
X116000000Y-119300000D03*
X133600000Y-99100000D03*
X122000000Y-119300000D03*
X120000000Y-119300000D03*
X124000000Y-115300000D03*
X152500000Y-114300000D03*
X144000000Y-120300000D03*
X116000000Y-115300000D03*
X162500000Y-120300000D03*
X141000000Y-111300000D03*
X146500000Y-114300000D03*
X131400000Y-100200000D03*
X142000000Y-112300000D03*
X141000000Y-109300000D03*
X126000000Y-115300000D03*
X132000000Y-109300000D03*
X132500000Y-100200000D03*
X160500000Y-118300000D03*
X132000000Y-113300000D03*
X133600000Y-100200000D03*
X150100000Y-98300000D03*
X131400000Y-99100000D03*
X134500000Y-94900000D03*
X143000000Y-88450000D03*
X143300000Y-96700000D03*
X123500000Y-91300000D03*
X122500000Y-86300000D03*
X123500000Y-92300000D03*
X122500000Y-90300000D03*
X123500000Y-99300000D03*
X122500000Y-96300000D03*
X122500000Y-98300000D03*
X124500000Y-92300000D03*
X122500000Y-87300000D03*
X133700000Y-94300000D03*
X124500000Y-88300000D03*
X124500000Y-87300000D03*
X122500000Y-97300000D03*
X132800000Y-92300000D03*
X122500000Y-88300000D03*
X123500000Y-90300000D03*
X124500000Y-90300000D03*
X122500000Y-94300000D03*
X134600000Y-92300000D03*
X134000000Y-91700000D03*
X133400000Y-92300000D03*
X122500000Y-92300000D03*
X123500000Y-93300000D03*
X134600000Y-91700000D03*
X123500000Y-98300000D03*
X123500000Y-94300000D03*
X124500000Y-91300000D03*
X123500000Y-96300000D03*
X132800000Y-91700000D03*
X123500000Y-89300000D03*
X124500000Y-86300000D03*
X122500000Y-93300000D03*
X123500000Y-95300000D03*
X123500000Y-86300000D03*
X124500000Y-89300000D03*
X123500000Y-88300000D03*
X134000000Y-92300000D03*
X123500000Y-87300000D03*
X122500000Y-91300000D03*
X123500000Y-97300000D03*
X133400000Y-91700000D03*
X122500000Y-95300000D03*
X122500000Y-89300000D03*
X122500000Y-99300000D03*
X137325000Y-119350000D03*
D14*
X134000000Y-113600000D03*
X144300000Y-111500000D03*
D13*
X157225000Y-115700000D03*
D14*
X136000000Y-111500000D03*
D13*
X130450000Y-111500000D03*
X148150000Y-110300000D03*
D14*
X143600000Y-116300000D03*
X134900000Y-116300000D03*
X135400000Y-117000000D03*
X143700000Y-117000000D03*
D13*
X141200000Y-113550000D03*
X132425000Y-108000000D03*
X149225000Y-112250000D03*
X141600000Y-97800000D03*
X137500000Y-84800000D03*
X137500000Y-74800000D03*
X137500000Y-76800000D03*
X138800000Y-94600000D03*
X144500000Y-72800000D03*
X118500000Y-84800000D03*
X140500000Y-82800000D03*
X132500000Y-74800000D03*
X137900000Y-94600000D03*
X150500000Y-74800000D03*
X140500000Y-83800000D03*
X130500000Y-72800000D03*
X140500000Y-85800000D03*
X148500000Y-74800000D03*
X138500000Y-78800000D03*
X140500000Y-72800000D03*
X162500000Y-80800000D03*
X118500000Y-80800000D03*
X139600000Y-90700000D03*
X138500000Y-87800000D03*
X116500000Y-80800000D03*
X139500000Y-86800000D03*
X139500000Y-85800000D03*
X154500000Y-78800000D03*
X137500000Y-86800000D03*
X138500000Y-73800000D03*
X128500000Y-74800000D03*
X138500000Y-77800000D03*
X162500000Y-100800000D03*
X137900000Y-92000000D03*
X120500000Y-82800000D03*
X139500000Y-82800000D03*
X139500000Y-75800000D03*
X122500000Y-80800000D03*
X140500000Y-74800000D03*
X140500000Y-76800000D03*
X139500000Y-87800000D03*
X140500000Y-80800000D03*
X137500000Y-72800000D03*
X137900000Y-93300000D03*
X122875000Y-112300000D03*
X162500000Y-92800000D03*
X140500000Y-75800000D03*
X137500000Y-83800000D03*
X139500000Y-84800000D03*
X142500000Y-74800000D03*
X137900000Y-90700000D03*
X118500000Y-82800000D03*
X152500000Y-84800000D03*
X122500000Y-82800000D03*
X162500000Y-94800000D03*
X139600000Y-94600000D03*
X138800000Y-92000000D03*
X134500000Y-74800000D03*
X138500000Y-75800000D03*
X120500000Y-84800000D03*
X126500000Y-74800000D03*
X150500000Y-80800000D03*
X124500000Y-76800000D03*
X162500000Y-82800000D03*
X137500000Y-78800000D03*
X126500000Y-72800000D03*
X138500000Y-85800000D03*
X139600000Y-93300000D03*
X139500000Y-76800000D03*
X152500000Y-76800000D03*
X136500000Y-74800000D03*
X158500000Y-82800000D03*
X152500000Y-82800000D03*
X126500000Y-84800000D03*
X156500000Y-84800000D03*
X128500000Y-72800000D03*
X139500000Y-73800000D03*
X137500000Y-82800000D03*
X126500000Y-78800000D03*
X138500000Y-81800000D03*
X156500000Y-80800000D03*
X139500000Y-74800000D03*
X162500000Y-98800000D03*
X160500000Y-80800000D03*
X138500000Y-86800000D03*
X152500000Y-74800000D03*
X158500000Y-84800000D03*
X137900000Y-89400000D03*
X146500000Y-74800000D03*
X146500000Y-72800000D03*
X140500000Y-79800000D03*
X137500000Y-75800000D03*
X124500000Y-78800000D03*
X138800000Y-93300000D03*
X144500000Y-74800000D03*
X139500000Y-83800000D03*
X158500000Y-80800000D03*
X116500000Y-84800000D03*
X160500000Y-84800000D03*
X134500000Y-72800000D03*
X138800000Y-90700000D03*
X139500000Y-77800000D03*
X152500000Y-78800000D03*
X136500000Y-72800000D03*
X136500000Y-73800000D03*
X140500000Y-77800000D03*
X139500000Y-80800000D03*
X130500000Y-74800000D03*
X140500000Y-78800000D03*
X152500000Y-72800000D03*
X150500000Y-82800000D03*
X122500000Y-84800000D03*
X139600000Y-92000000D03*
X126500000Y-80800000D03*
X140500000Y-81800000D03*
X137900000Y-95900000D03*
X124500000Y-74800000D03*
X137500000Y-80800000D03*
X116500000Y-100800000D03*
X132500000Y-72800000D03*
X140500000Y-73800000D03*
X148500000Y-72800000D03*
X124500000Y-72800000D03*
X138500000Y-72800000D03*
X140500000Y-84800000D03*
X162500000Y-96800000D03*
X116500000Y-82800000D03*
X137500000Y-79800000D03*
X162500000Y-90800000D03*
X139500000Y-79800000D03*
X126500000Y-82800000D03*
X140500000Y-86800000D03*
X137500000Y-81800000D03*
X138800000Y-95900000D03*
X138500000Y-76800000D03*
X138500000Y-83800000D03*
X139600000Y-95900000D03*
X126500000Y-76800000D03*
X150500000Y-84800000D03*
X138500000Y-82800000D03*
X150500000Y-72800000D03*
X150500000Y-76800000D03*
X139500000Y-78800000D03*
X150500000Y-78800000D03*
X138500000Y-80800000D03*
X139500000Y-72800000D03*
X162500000Y-84800000D03*
X138500000Y-74800000D03*
X137500000Y-77800000D03*
X154500000Y-72800000D03*
X139600000Y-89400000D03*
X160500000Y-82800000D03*
X124500000Y-82800000D03*
X162500000Y-88800000D03*
X154500000Y-82800000D03*
X154500000Y-76800000D03*
X156500000Y-82800000D03*
X138800000Y-89400000D03*
X137500000Y-85800000D03*
X142500000Y-72800000D03*
X138500000Y-84800000D03*
X124500000Y-84800000D03*
X120500000Y-80800000D03*
X124500000Y-80800000D03*
X139500000Y-81800000D03*
X162500000Y-86800000D03*
X137500000Y-73800000D03*
X138500000Y-79800000D03*
X154500000Y-80800000D03*
X152500000Y-80800000D03*
X154500000Y-84800000D03*
X136000000Y-120300000D03*
X136000000Y-118300000D03*
D15*
X141300000Y-95300000D02*
X141500000Y-95500000D01*
X134500000Y-94900000D02*
X134900000Y-95300000D01*
X141500000Y-95500000D02*
X141500000Y-96000000D01*
X143000000Y-88450000D02*
X141650000Y-88450000D01*
X141500000Y-96000000D02*
X141700000Y-96200000D01*
X134900000Y-95300000D02*
X141300000Y-95300000D01*
X142800000Y-96200000D02*
X143300000Y-96700000D01*
X141650000Y-88450000D02*
X141500000Y-88600000D01*
X141700000Y-96200000D02*
X142800000Y-96200000D01*
X141500000Y-88600000D02*
X141500000Y-95500000D01*
D16*
X148750000Y-108000000D02*
X132425000Y-108000000D01*
X149225000Y-112250000D02*
X149225000Y-108475000D01*
X149225000Y-108475000D02*
X148750000Y-108000000D01*
G04 #@! TA.AperFunction,Conductor*
G36*
X129563012Y-108819685D02*
G01*
X129608767Y-108872489D01*
X129618711Y-108941647D01*
X129603360Y-108986000D01*
X129533609Y-109106810D01*
X129533609Y-109106811D01*
X129499500Y-109234108D01*
X129499500Y-109365891D01*
X129533608Y-109493187D01*
X129566554Y-109550250D01*
X129599500Y-109607314D01*
X129692686Y-109700500D01*
X129806814Y-109766392D01*
X129934108Y-109800500D01*
X129934110Y-109800500D01*
X130065890Y-109800500D01*
X130065892Y-109800500D01*
X130193186Y-109766392D01*
X130307314Y-109700500D01*
X130400500Y-109607314D01*
X130466392Y-109493186D01*
X130500500Y-109365892D01*
X130500500Y-109234108D01*
X130466392Y-109106814D01*
X130400500Y-108992686D01*
X130396640Y-108986000D01*
X130380167Y-108918100D01*
X130403019Y-108852073D01*
X130457940Y-108808883D01*
X130504027Y-108800000D01*
X131495973Y-108800000D01*
X131563012Y-108819685D01*
X131608767Y-108872489D01*
X131618711Y-108941647D01*
X131603360Y-108986000D01*
X131533609Y-109106810D01*
X131533609Y-109106811D01*
X131499500Y-109234108D01*
X131499500Y-109365891D01*
X131533608Y-109493187D01*
X131566554Y-109550250D01*
X131599500Y-109607314D01*
X131692686Y-109700500D01*
X131806814Y-109766392D01*
X131934108Y-109800500D01*
X131934110Y-109800500D01*
X132065890Y-109800500D01*
X132065892Y-109800500D01*
X132193186Y-109766392D01*
X132307314Y-109700500D01*
X132400500Y-109607314D01*
X132466392Y-109493186D01*
X132500500Y-109365892D01*
X132500500Y-109234108D01*
X132466392Y-109106814D01*
X132400500Y-108992686D01*
X132396640Y-108986000D01*
X132380167Y-108918100D01*
X132403019Y-108852073D01*
X132457940Y-108808883D01*
X132504027Y-108800000D01*
X140495973Y-108800000D01*
X140563012Y-108819685D01*
X140608767Y-108872489D01*
X140618711Y-108941647D01*
X140603360Y-108986000D01*
X140533609Y-109106810D01*
X140533609Y-109106811D01*
X140499500Y-109234108D01*
X140499500Y-109365891D01*
X140533608Y-109493187D01*
X140566554Y-109550250D01*
X140599500Y-109607314D01*
X140692686Y-109700500D01*
X140806814Y-109766392D01*
X140934108Y-109800500D01*
X140934110Y-109800500D01*
X141065890Y-109800500D01*
X141065892Y-109800500D01*
X141193186Y-109766392D01*
X141307314Y-109700500D01*
X141400500Y-109607314D01*
X141466392Y-109493186D01*
X141500500Y-109365892D01*
X141500500Y-109234108D01*
X141466392Y-109106814D01*
X141400500Y-108992686D01*
X141396640Y-108986000D01*
X141380167Y-108918100D01*
X141403019Y-108852073D01*
X141457940Y-108808883D01*
X141504027Y-108800000D01*
X148748900Y-108800000D01*
X148815939Y-108819685D01*
X148861694Y-108872489D01*
X148872900Y-108924000D01*
X148872900Y-111842924D01*
X148853215Y-111909963D01*
X148836581Y-111930605D01*
X148824502Y-111942683D01*
X148824500Y-111942686D01*
X148758608Y-112056812D01*
X148724500Y-112184108D01*
X148724500Y-112315891D01*
X148758608Y-112443187D01*
X148787476Y-112493186D01*
X148824500Y-112557314D01*
X148917686Y-112650500D01*
X149031814Y-112716392D01*
X149159108Y-112750500D01*
X149159110Y-112750500D01*
X149290890Y-112750500D01*
X149290892Y-112750500D01*
X149418186Y-112716392D01*
X149532314Y-112650500D01*
X149625500Y-112557314D01*
X149691392Y-112443186D01*
X149725500Y-112315892D01*
X149725500Y-112184108D01*
X149691392Y-112056814D01*
X149625500Y-111942686D01*
X149613419Y-111930605D01*
X149579934Y-111869282D01*
X149577100Y-111842924D01*
X149577100Y-108924000D01*
X149596785Y-108856961D01*
X149649589Y-108811206D01*
X149701100Y-108800000D01*
X164295500Y-108800000D01*
X164362539Y-108819685D01*
X164408294Y-108872489D01*
X164419500Y-108924000D01*
X164419500Y-120795500D01*
X164399815Y-120862539D01*
X164347011Y-120908294D01*
X164295500Y-120919500D01*
X162887199Y-120919500D01*
X162820160Y-120899815D01*
X162774405Y-120847011D01*
X162764461Y-120777853D01*
X162793486Y-120714297D01*
X162801791Y-120706471D01*
X162801567Y-120706247D01*
X162807314Y-120700500D01*
X162900500Y-120607314D01*
X162966392Y-120493186D01*
X163000500Y-120365892D01*
X163000500Y-120234108D01*
X162966392Y-120106814D01*
X162900500Y-119992686D01*
X162807314Y-119899500D01*
X162721576Y-119849999D01*
X162693187Y-119833608D01*
X162629539Y-119816554D01*
X162565892Y-119799500D01*
X162434108Y-119799500D01*
X162306812Y-119833608D01*
X162192686Y-119899500D01*
X162192683Y-119899502D01*
X162099502Y-119992683D01*
X162099500Y-119992686D01*
X162033608Y-120106812D01*
X161999500Y-120234108D01*
X161999500Y-120365891D01*
X162033608Y-120493187D01*
X162066554Y-120550250D01*
X162099500Y-120607314D01*
X162099502Y-120607316D01*
X162198433Y-120706247D01*
X162196418Y-120708261D01*
X162229487Y-120753543D01*
X162233647Y-120823289D01*
X162199440Y-120884212D01*
X162137725Y-120916969D01*
X162112801Y-120919500D01*
X160887199Y-120919500D01*
X160820160Y-120899815D01*
X160774405Y-120847011D01*
X160764461Y-120777853D01*
X160793486Y-120714297D01*
X160801791Y-120706471D01*
X160801567Y-120706247D01*
X160807314Y-120700500D01*
X160900500Y-120607314D01*
X160966392Y-120493186D01*
X161000500Y-120365892D01*
X161000500Y-120234108D01*
X160966392Y-120106814D01*
X160900500Y-119992686D01*
X160807314Y-119899500D01*
X160721576Y-119849999D01*
X160693187Y-119833608D01*
X160629539Y-119816554D01*
X160565892Y-119799500D01*
X160434108Y-119799500D01*
X160306812Y-119833608D01*
X160192686Y-119899500D01*
X160192683Y-119899502D01*
X160099502Y-119992683D01*
X160099500Y-119992686D01*
X160033608Y-120106812D01*
X159999500Y-120234108D01*
X159999500Y-120365891D01*
X160033608Y-120493187D01*
X160066554Y-120550250D01*
X160099500Y-120607314D01*
X160099502Y-120607316D01*
X160198433Y-120706247D01*
X160196418Y-120708261D01*
X160229487Y-120753543D01*
X160233647Y-120823289D01*
X160199440Y-120884212D01*
X160137725Y-120916969D01*
X160112801Y-120919500D01*
X158887199Y-120919500D01*
X158820160Y-120899815D01*
X158774405Y-120847011D01*
X158764461Y-120777853D01*
X158793486Y-120714297D01*
X158801791Y-120706471D01*
X158801567Y-120706247D01*
X158807314Y-120700500D01*
X158900500Y-120607314D01*
X158966392Y-120493186D01*
X159000500Y-120365892D01*
X159000500Y-120234108D01*
X158966392Y-120106814D01*
X158900500Y-119992686D01*
X158807314Y-119899500D01*
X158721576Y-119849999D01*
X158693187Y-119833608D01*
X158629539Y-119816554D01*
X158565892Y-119799500D01*
X158434108Y-119799500D01*
X158306812Y-119833608D01*
X158192686Y-119899500D01*
X158192683Y-119899502D01*
X158099502Y-119992683D01*
X158099500Y-119992686D01*
X158033608Y-120106812D01*
X157999500Y-120234108D01*
X157999500Y-120365891D01*
X158033608Y-120493187D01*
X158066554Y-120550250D01*
X158099500Y-120607314D01*
X158099502Y-120607316D01*
X158198433Y-120706247D01*
X158196418Y-120708261D01*
X158229487Y-120753543D01*
X158233647Y-120823289D01*
X158199440Y-120884212D01*
X158137725Y-120916969D01*
X158112801Y-120919500D01*
X144387199Y-120919500D01*
X144320160Y-120899815D01*
X144274405Y-120847011D01*
X144264461Y-120777853D01*
X144293486Y-120714297D01*
X144301791Y-120706471D01*
X144301567Y-120706247D01*
X144307314Y-120700500D01*
X144400500Y-120607314D01*
X144466392Y-120493186D01*
X144500500Y-120365892D01*
X144500500Y-120234108D01*
X144466392Y-120106814D01*
X144400500Y-119992686D01*
X144307314Y-119899500D01*
X144221576Y-119849999D01*
X144193187Y-119833608D01*
X144129539Y-119816554D01*
X144065892Y-119799500D01*
X143934108Y-119799500D01*
X143806812Y-119833608D01*
X143692686Y-119899500D01*
X143692683Y-119899502D01*
X143599502Y-119992683D01*
X143599500Y-119992686D01*
X143533608Y-120106812D01*
X143499500Y-120234108D01*
X143499500Y-120365891D01*
X143533608Y-120493187D01*
X143566554Y-120550250D01*
X143599500Y-120607314D01*
X143599502Y-120607316D01*
X143698433Y-120706247D01*
X143696418Y-120708261D01*
X143729487Y-120753543D01*
X143733647Y-120823289D01*
X143699440Y-120884212D01*
X143637725Y-120916969D01*
X143612801Y-120919500D01*
X136387199Y-120919500D01*
X136320160Y-120899815D01*
X136274405Y-120847011D01*
X136264461Y-120777853D01*
X136293486Y-120714297D01*
X136301791Y-120706471D01*
X136301567Y-120706247D01*
X136307314Y-120700500D01*
X136400500Y-120607314D01*
X136466392Y-120493186D01*
X136500500Y-120365892D01*
X136500500Y-120234108D01*
X136466392Y-120106814D01*
X136400500Y-119992686D01*
X136307314Y-119899500D01*
X136221576Y-119849999D01*
X136193187Y-119833608D01*
X136129539Y-119816554D01*
X136065892Y-119799500D01*
X135934108Y-119799500D01*
X135806812Y-119833608D01*
X135692686Y-119899500D01*
X135692683Y-119899502D01*
X135599502Y-119992683D01*
X135599500Y-119992686D01*
X135533608Y-120106812D01*
X135499500Y-120234108D01*
X135499500Y-120365891D01*
X135533608Y-120493187D01*
X135566554Y-120550250D01*
X135599500Y-120607314D01*
X135599502Y-120607316D01*
X135698433Y-120706247D01*
X135696418Y-120708261D01*
X135729487Y-120753543D01*
X135733647Y-120823289D01*
X135699440Y-120884212D01*
X135637725Y-120916969D01*
X135612801Y-120919500D01*
X115544500Y-120919500D01*
X115477461Y-120899815D01*
X115431706Y-120847011D01*
X115420500Y-120795500D01*
X115420500Y-119727676D01*
X115440185Y-119660637D01*
X115492989Y-119614882D01*
X115562147Y-119604938D01*
X115625703Y-119633963D01*
X115632181Y-119639995D01*
X115692686Y-119700500D01*
X115806814Y-119766392D01*
X115934108Y-119800500D01*
X115934110Y-119800500D01*
X116065890Y-119800500D01*
X116065892Y-119800500D01*
X116193186Y-119766392D01*
X116307314Y-119700500D01*
X116400500Y-119607314D01*
X116466392Y-119493186D01*
X116500500Y-119365892D01*
X116500500Y-119234108D01*
X117499500Y-119234108D01*
X117499500Y-119365891D01*
X117533608Y-119493187D01*
X117551789Y-119524676D01*
X117599500Y-119607314D01*
X117692686Y-119700500D01*
X117806814Y-119766392D01*
X117934108Y-119800500D01*
X117934110Y-119800500D01*
X118065890Y-119800500D01*
X118065892Y-119800500D01*
X118193186Y-119766392D01*
X118307314Y-119700500D01*
X118400500Y-119607314D01*
X118466392Y-119493186D01*
X118500500Y-119365892D01*
X118500500Y-119234108D01*
X119499500Y-119234108D01*
X119499500Y-119365891D01*
X119533608Y-119493187D01*
X119551789Y-119524676D01*
X119599500Y-119607314D01*
X119692686Y-119700500D01*
X119806814Y-119766392D01*
X119934108Y-119800500D01*
X119934110Y-119800500D01*
X120065890Y-119800500D01*
X120065892Y-119800500D01*
X120193186Y-119766392D01*
X120307314Y-119700500D01*
X120400500Y-119607314D01*
X120466392Y-119493186D01*
X120500500Y-119365892D01*
X120500500Y-119234108D01*
X121499500Y-119234108D01*
X121499500Y-119365891D01*
X121533608Y-119493187D01*
X121551789Y-119524676D01*
X121599500Y-119607314D01*
X121692686Y-119700500D01*
X121806814Y-119766392D01*
X121934108Y-119800500D01*
X121934110Y-119800500D01*
X122065890Y-119800500D01*
X122065892Y-119800500D01*
X122193186Y-119766392D01*
X122307314Y-119700500D01*
X122400500Y-119607314D01*
X122466392Y-119493186D01*
X122500500Y-119365892D01*
X122500500Y-119234108D01*
X122466392Y-119106814D01*
X122400500Y-118992686D01*
X122307314Y-118899500D01*
X122250250Y-118866554D01*
X122193187Y-118833608D01*
X122129539Y-118816554D01*
X122065892Y-118799500D01*
X121934108Y-118799500D01*
X121806812Y-118833608D01*
X121692686Y-118899500D01*
X121692683Y-118899502D01*
X121599502Y-118992683D01*
X121599500Y-118992686D01*
X121533608Y-119106812D01*
X121499500Y-119234108D01*
X120500500Y-119234108D01*
X120466392Y-119106814D01*
X120400500Y-118992686D01*
X120307314Y-118899500D01*
X120250250Y-118866554D01*
X120193187Y-118833608D01*
X120129539Y-118816554D01*
X120065892Y-118799500D01*
X119934108Y-118799500D01*
X119806812Y-118833608D01*
X119692686Y-118899500D01*
X119692683Y-118899502D01*
X119599502Y-118992683D01*
X119599500Y-118992686D01*
X119533608Y-119106812D01*
X119499500Y-119234108D01*
X118500500Y-119234108D01*
X118466392Y-119106814D01*
X118400500Y-118992686D01*
X118307314Y-118899500D01*
X118250250Y-118866554D01*
X118193187Y-118833608D01*
X118129539Y-118816554D01*
X118065892Y-118799500D01*
X117934108Y-118799500D01*
X117806812Y-118833608D01*
X117692686Y-118899500D01*
X117692683Y-118899502D01*
X117599502Y-118992683D01*
X117599500Y-118992686D01*
X117533608Y-119106812D01*
X117499500Y-119234108D01*
X116500500Y-119234108D01*
X116466392Y-119106814D01*
X116400500Y-118992686D01*
X116307314Y-118899500D01*
X116250250Y-118866554D01*
X116193187Y-118833608D01*
X116129539Y-118816554D01*
X116065892Y-118799500D01*
X115934108Y-118799500D01*
X115806812Y-118833608D01*
X115692686Y-118899500D01*
X115692683Y-118899502D01*
X115632181Y-118960005D01*
X115570858Y-118993490D01*
X115501166Y-118988506D01*
X115445233Y-118946634D01*
X115420816Y-118881170D01*
X115420500Y-118872324D01*
X115420500Y-117727676D01*
X115440185Y-117660637D01*
X115492989Y-117614882D01*
X115562147Y-117604938D01*
X115625703Y-117633963D01*
X115632181Y-117639995D01*
X115692686Y-117700500D01*
X115806814Y-117766392D01*
X115934108Y-117800500D01*
X115934110Y-117800500D01*
X116065890Y-117800500D01*
X116065892Y-117800500D01*
X116193186Y-117766392D01*
X116307314Y-117700500D01*
X116400500Y-117607314D01*
X116466392Y-117493186D01*
X116500500Y-117365892D01*
X116500500Y-117234108D01*
X121499500Y-117234108D01*
X121499500Y-117365891D01*
X121533608Y-117493187D01*
X121544015Y-117511212D01*
X121599500Y-117607314D01*
X121692686Y-117700500D01*
X121806814Y-117766392D01*
X121934108Y-117800500D01*
X121934110Y-117800500D01*
X122065890Y-117800500D01*
X122065892Y-117800500D01*
X122191738Y-117766780D01*
X124330000Y-117766780D01*
X124330000Y-118400000D01*
X125096988Y-118400000D01*
X125064075Y-118457007D01*
X125030000Y-118584174D01*
X125030000Y-118715826D01*
X125064075Y-118842993D01*
X125096988Y-118900000D01*
X124330001Y-118900000D01*
X124330001Y-119533217D01*
X124339912Y-119601249D01*
X124391215Y-119706191D01*
X124473811Y-119788787D01*
X124578748Y-119840087D01*
X124578751Y-119840088D01*
X124646780Y-119849999D01*
X125279999Y-119849999D01*
X125280000Y-119849998D01*
X125280000Y-119083012D01*
X125337007Y-119115925D01*
X125464174Y-119150000D01*
X125595826Y-119150000D01*
X125722993Y-119115925D01*
X125780000Y-119083012D01*
X125780000Y-119849999D01*
X126413218Y-119849999D01*
X126481249Y-119840087D01*
X126586191Y-119788784D01*
X126668787Y-119706188D01*
X126720087Y-119601251D01*
X126720088Y-119601248D01*
X126729999Y-119533219D01*
X126729999Y-118800031D01*
X126749683Y-118732992D01*
X126802487Y-118687237D01*
X126871646Y-118677293D01*
X126935202Y-118706318D01*
X126972976Y-118765096D01*
X126976472Y-118780633D01*
X126992396Y-118881170D01*
X126996598Y-118907701D01*
X127050127Y-119072445D01*
X127128768Y-119226788D01*
X127230586Y-119366928D01*
X127353072Y-119489414D01*
X127493212Y-119591232D01*
X127647555Y-119669873D01*
X127812299Y-119723402D01*
X127983389Y-119750500D01*
X127983390Y-119750500D01*
X128156610Y-119750500D01*
X128156611Y-119750500D01*
X128327701Y-119723402D01*
X128492445Y-119669873D01*
X128646788Y-119591232D01*
X128786928Y-119489414D01*
X128909414Y-119366928D01*
X129011232Y-119226788D01*
X129089873Y-119072445D01*
X129143402Y-118907701D01*
X129170500Y-118736611D01*
X129170500Y-118563389D01*
X129509500Y-118563389D01*
X129509500Y-118736611D01*
X129536598Y-118907701D01*
X129590127Y-119072445D01*
X129668768Y-119226788D01*
X129770586Y-119366928D01*
X129893072Y-119489414D01*
X130033212Y-119591232D01*
X130187555Y-119669873D01*
X130352299Y-119723402D01*
X130523389Y-119750500D01*
X130523390Y-119750500D01*
X130696610Y-119750500D01*
X130696611Y-119750500D01*
X130867701Y-119723402D01*
X131032445Y-119669873D01*
X131186788Y-119591232D01*
X131326928Y-119489414D01*
X131449414Y-119366928D01*
X131551232Y-119226788D01*
X131629873Y-119072445D01*
X131683402Y-118907701D01*
X131710500Y-118736611D01*
X131710500Y-118563389D01*
X132049500Y-118563389D01*
X132049500Y-118736611D01*
X132076598Y-118907701D01*
X132130127Y-119072445D01*
X132208768Y-119226788D01*
X132310586Y-119366928D01*
X132433072Y-119489414D01*
X132573212Y-119591232D01*
X132727555Y-119669873D01*
X132892299Y-119723402D01*
X133063389Y-119750500D01*
X133063390Y-119750500D01*
X133236610Y-119750500D01*
X133236611Y-119750500D01*
X133407701Y-119723402D01*
X133572445Y-119669873D01*
X133726788Y-119591232D01*
X133866928Y-119489414D01*
X133989414Y-119366928D01*
X134085914Y-119234108D01*
X142499500Y-119234108D01*
X142499500Y-119365891D01*
X142533608Y-119493187D01*
X142551789Y-119524676D01*
X142599500Y-119607314D01*
X142692686Y-119700500D01*
X142806814Y-119766392D01*
X142934108Y-119800500D01*
X142934110Y-119800500D01*
X143065890Y-119800500D01*
X143065892Y-119800500D01*
X143193186Y-119766392D01*
X143307314Y-119700500D01*
X143400500Y-119607314D01*
X143466392Y-119493186D01*
X143500500Y-119365892D01*
X143500500Y-119234108D01*
X143466392Y-119106814D01*
X143400500Y-118992686D01*
X143307314Y-118899500D01*
X143250250Y-118866554D01*
X143193187Y-118833608D01*
X143129539Y-118816554D01*
X143065892Y-118799500D01*
X142934108Y-118799500D01*
X142806812Y-118833608D01*
X142692686Y-118899500D01*
X142692683Y-118899502D01*
X142599502Y-118992683D01*
X142599500Y-118992686D01*
X142533608Y-119106812D01*
X142499500Y-119234108D01*
X134085914Y-119234108D01*
X134091232Y-119226788D01*
X134169873Y-119072445D01*
X134223402Y-118907701D01*
X134250500Y-118736611D01*
X134250500Y-118563389D01*
X134223402Y-118392299D01*
X134172002Y-118234108D01*
X135499500Y-118234108D01*
X135499500Y-118365892D01*
X135508639Y-118400000D01*
X135533608Y-118493187D01*
X135566554Y-118550250D01*
X135599500Y-118607314D01*
X135692686Y-118700500D01*
X135806814Y-118766392D01*
X135934108Y-118800500D01*
X135934110Y-118800500D01*
X136065890Y-118800500D01*
X136065892Y-118800500D01*
X136193186Y-118766392D01*
X136307314Y-118700500D01*
X136400500Y-118607314D01*
X136466392Y-118493186D01*
X136500500Y-118365892D01*
X136500500Y-118234108D01*
X136466392Y-118106814D01*
X136400500Y-117992686D01*
X136307314Y-117899500D01*
X136267685Y-117876620D01*
X136267684Y-117876619D01*
X136193188Y-117833609D01*
X136193187Y-117833608D01*
X136193186Y-117833608D01*
X136065892Y-117799500D01*
X135934108Y-117799500D01*
X135806812Y-117833608D01*
X135692686Y-117899500D01*
X135692683Y-117899502D01*
X135599502Y-117992683D01*
X135599500Y-117992686D01*
X135533608Y-118106812D01*
X135522036Y-118150000D01*
X135499500Y-118234108D01*
X134172002Y-118234108D01*
X134169873Y-118227555D01*
X134169871Y-118227552D01*
X134169871Y-118227550D01*
X134091231Y-118073211D01*
X133989414Y-117933072D01*
X133866928Y-117810586D01*
X133818390Y-117775321D01*
X145589500Y-117775321D01*
X145589500Y-119524678D01*
X145604032Y-119597735D01*
X145604033Y-119597739D01*
X145606380Y-119601251D01*
X145659399Y-119680601D01*
X145729853Y-119727676D01*
X145742260Y-119735966D01*
X145742264Y-119735967D01*
X145815321Y-119750499D01*
X145815324Y-119750500D01*
X145815326Y-119750500D01*
X147564676Y-119750500D01*
X147564677Y-119750499D01*
X147637740Y-119735966D01*
X147720601Y-119680601D01*
X147775966Y-119597740D01*
X147790500Y-119524674D01*
X147790500Y-118563389D01*
X148129500Y-118563389D01*
X148129500Y-118736611D01*
X148156598Y-118907701D01*
X148210127Y-119072445D01*
X148288768Y-119226788D01*
X148390586Y-119366928D01*
X148513072Y-119489414D01*
X148653212Y-119591232D01*
X148807555Y-119669873D01*
X148972299Y-119723402D01*
X149143389Y-119750500D01*
X149143390Y-119750500D01*
X149316610Y-119750500D01*
X149316611Y-119750500D01*
X149487701Y-119723402D01*
X149652445Y-119669873D01*
X149806788Y-119591232D01*
X149946928Y-119489414D01*
X150069414Y-119366928D01*
X150171232Y-119226788D01*
X150249873Y-119072445D01*
X150303402Y-118907701D01*
X150330500Y-118736611D01*
X150330500Y-118563389D01*
X150669500Y-118563389D01*
X150669500Y-118736611D01*
X150696598Y-118907701D01*
X150750127Y-119072445D01*
X150828768Y-119226788D01*
X150930586Y-119366928D01*
X151053072Y-119489414D01*
X151193212Y-119591232D01*
X151347555Y-119669873D01*
X151512299Y-119723402D01*
X151683389Y-119750500D01*
X151683390Y-119750500D01*
X151856610Y-119750500D01*
X151856611Y-119750500D01*
X152027701Y-119723402D01*
X152192445Y-119669873D01*
X152346788Y-119591232D01*
X152486928Y-119489414D01*
X152609414Y-119366928D01*
X152711232Y-119226788D01*
X152789873Y-119072445D01*
X152843402Y-118907701D01*
X152870500Y-118736611D01*
X152870500Y-118563389D01*
X153209500Y-118563389D01*
X153209500Y-118736611D01*
X153236598Y-118907701D01*
X153290127Y-119072445D01*
X153368768Y-119226788D01*
X153470586Y-119366928D01*
X153593072Y-119489414D01*
X153733212Y-119591232D01*
X153887555Y-119669873D01*
X154052299Y-119723402D01*
X154223389Y-119750500D01*
X154223390Y-119750500D01*
X154396610Y-119750500D01*
X154396611Y-119750500D01*
X154567701Y-119723402D01*
X154732445Y-119669873D01*
X154886788Y-119591232D01*
X155026928Y-119489414D01*
X155149414Y-119366928D01*
X155251232Y-119226788D01*
X155329873Y-119072445D01*
X155383402Y-118907701D01*
X155410500Y-118736611D01*
X155410500Y-118563389D01*
X155383402Y-118392299D01*
X155332002Y-118234108D01*
X157999500Y-118234108D01*
X157999500Y-118365892D01*
X158008639Y-118400000D01*
X158033608Y-118493187D01*
X158066554Y-118550250D01*
X158099500Y-118607314D01*
X158192686Y-118700500D01*
X158306814Y-118766392D01*
X158434108Y-118800500D01*
X158434110Y-118800500D01*
X158565890Y-118800500D01*
X158565892Y-118800500D01*
X158693186Y-118766392D01*
X158807314Y-118700500D01*
X158900500Y-118607314D01*
X158966392Y-118493186D01*
X159000500Y-118365892D01*
X159000500Y-118234108D01*
X159999500Y-118234108D01*
X159999500Y-118365892D01*
X160008639Y-118400000D01*
X160033608Y-118493187D01*
X160066554Y-118550250D01*
X160099500Y-118607314D01*
X160192686Y-118700500D01*
X160306814Y-118766392D01*
X160434108Y-118800500D01*
X160434110Y-118800500D01*
X160565890Y-118800500D01*
X160565892Y-118800500D01*
X160693186Y-118766392D01*
X160807314Y-118700500D01*
X160900500Y-118607314D01*
X160966392Y-118493186D01*
X161000500Y-118365892D01*
X161000500Y-118234108D01*
X161999500Y-118234108D01*
X161999500Y-118365892D01*
X162008639Y-118400000D01*
X162033608Y-118493187D01*
X162066554Y-118550250D01*
X162099500Y-118607314D01*
X162192686Y-118700500D01*
X162306814Y-118766392D01*
X162434108Y-118800500D01*
X162434110Y-118800500D01*
X162565890Y-118800500D01*
X162565892Y-118800500D01*
X162693186Y-118766392D01*
X162807314Y-118700500D01*
X162900500Y-118607314D01*
X162966392Y-118493186D01*
X163000500Y-118365892D01*
X163000500Y-118234108D01*
X162966392Y-118106814D01*
X162900500Y-117992686D01*
X162807314Y-117899500D01*
X162750250Y-117866554D01*
X162693187Y-117833608D01*
X162607266Y-117810586D01*
X162565892Y-117799500D01*
X162434108Y-117799500D01*
X162306812Y-117833608D01*
X162192686Y-117899500D01*
X162192683Y-117899502D01*
X162099502Y-117992683D01*
X162099500Y-117992686D01*
X162033608Y-118106812D01*
X162022036Y-118150000D01*
X161999500Y-118234108D01*
X161000500Y-118234108D01*
X160966392Y-118106814D01*
X160900500Y-117992686D01*
X160807314Y-117899500D01*
X160750250Y-117866554D01*
X160693187Y-117833608D01*
X160607266Y-117810586D01*
X160565892Y-117799500D01*
X160434108Y-117799500D01*
X160306812Y-117833608D01*
X160192686Y-117899500D01*
X160192683Y-117899502D01*
X160099502Y-117992683D01*
X160099500Y-117992686D01*
X160033608Y-118106812D01*
X160022036Y-118150000D01*
X159999500Y-118234108D01*
X159000500Y-118234108D01*
X158966392Y-118106814D01*
X158900500Y-117992686D01*
X158807314Y-117899500D01*
X158750250Y-117866554D01*
X158693187Y-117833608D01*
X158607266Y-117810586D01*
X158565892Y-117799500D01*
X158434108Y-117799500D01*
X158306812Y-117833608D01*
X158192686Y-117899500D01*
X158192683Y-117899502D01*
X158099502Y-117992683D01*
X158099500Y-117992686D01*
X158033608Y-118106812D01*
X158022036Y-118150000D01*
X157999500Y-118234108D01*
X155332002Y-118234108D01*
X155329873Y-118227555D01*
X155329871Y-118227552D01*
X155329871Y-118227550D01*
X155251231Y-118073211D01*
X155149414Y-117933072D01*
X155026928Y-117810586D01*
X154886788Y-117708768D01*
X154732445Y-117630127D01*
X154567701Y-117576598D01*
X154567699Y-117576597D01*
X154567698Y-117576597D01*
X154436271Y-117555781D01*
X154396611Y-117549500D01*
X154223389Y-117549500D01*
X154183728Y-117555781D01*
X154052302Y-117576597D01*
X153887552Y-117630128D01*
X153733211Y-117708768D01*
X153707187Y-117727676D01*
X153593072Y-117810586D01*
X153593070Y-117810588D01*
X153593069Y-117810588D01*
X153470588Y-117933069D01*
X153470588Y-117933070D01*
X153470586Y-117933072D01*
X153427276Y-117992683D01*
X153368768Y-118073211D01*
X153290128Y-118227552D01*
X153236597Y-118392302D01*
X153235378Y-118400000D01*
X153209500Y-118563389D01*
X152870500Y-118563389D01*
X152843402Y-118392299D01*
X152789873Y-118227555D01*
X152711232Y-118073212D01*
X152609414Y-117933072D01*
X152486928Y-117810586D01*
X152346788Y-117708768D01*
X152192445Y-117630127D01*
X152027701Y-117576598D01*
X152027699Y-117576597D01*
X152027698Y-117576597D01*
X151896271Y-117555781D01*
X151856611Y-117549500D01*
X151683389Y-117549500D01*
X151643728Y-117555781D01*
X151512302Y-117576597D01*
X151347552Y-117630128D01*
X151193211Y-117708768D01*
X151167187Y-117727676D01*
X151053072Y-117810586D01*
X151053070Y-117810588D01*
X151053069Y-117810588D01*
X150930588Y-117933069D01*
X150930588Y-117933070D01*
X150930586Y-117933072D01*
X150887276Y-117992683D01*
X150828768Y-118073211D01*
X150750128Y-118227552D01*
X150696597Y-118392302D01*
X150695378Y-118400000D01*
X150669500Y-118563389D01*
X150330500Y-118563389D01*
X150303402Y-118392299D01*
X150249873Y-118227555D01*
X150171232Y-118073212D01*
X150069414Y-117933072D01*
X149946928Y-117810586D01*
X149806788Y-117708768D01*
X149652445Y-117630127D01*
X149487701Y-117576598D01*
X149487699Y-117576597D01*
X149487698Y-117576597D01*
X149356271Y-117555781D01*
X149316611Y-117549500D01*
X149143389Y-117549500D01*
X149103728Y-117555781D01*
X148972302Y-117576597D01*
X148807552Y-117630128D01*
X148653211Y-117708768D01*
X148627187Y-117727676D01*
X148513072Y-117810586D01*
X148513070Y-117810588D01*
X148513069Y-117810588D01*
X148390588Y-117933069D01*
X148390588Y-117933070D01*
X148390586Y-117933072D01*
X148347276Y-117992683D01*
X148288768Y-118073211D01*
X148210128Y-118227552D01*
X148156597Y-118392302D01*
X148155378Y-118400000D01*
X148129500Y-118563389D01*
X147790500Y-118563389D01*
X147790500Y-117775326D01*
X147790500Y-117775323D01*
X147790499Y-117775321D01*
X147775967Y-117702264D01*
X147775966Y-117702260D01*
X147757493Y-117674613D01*
X147720601Y-117619399D01*
X147637740Y-117564034D01*
X147637739Y-117564033D01*
X147637735Y-117564032D01*
X147564677Y-117549500D01*
X147564674Y-117549500D01*
X145815326Y-117549500D01*
X145815323Y-117549500D01*
X145742264Y-117564032D01*
X145742260Y-117564033D01*
X145659399Y-117619399D01*
X145604033Y-117702260D01*
X145604032Y-117702264D01*
X145589500Y-117775321D01*
X133818390Y-117775321D01*
X133726788Y-117708768D01*
X133572445Y-117630127D01*
X133407701Y-117576598D01*
X133407699Y-117576597D01*
X133407698Y-117576597D01*
X133276271Y-117555781D01*
X133236611Y-117549500D01*
X133063389Y-117549500D01*
X133023728Y-117555781D01*
X132892302Y-117576597D01*
X132727552Y-117630128D01*
X132573211Y-117708768D01*
X132547187Y-117727676D01*
X132433072Y-117810586D01*
X132433070Y-117810588D01*
X132433069Y-117810588D01*
X132310588Y-117933069D01*
X132310588Y-117933070D01*
X132310586Y-117933072D01*
X132267276Y-117992683D01*
X132208768Y-118073211D01*
X132130128Y-118227552D01*
X132076597Y-118392302D01*
X132075378Y-118400000D01*
X132049500Y-118563389D01*
X131710500Y-118563389D01*
X131683402Y-118392299D01*
X131629873Y-118227555D01*
X131551232Y-118073212D01*
X131449414Y-117933072D01*
X131326928Y-117810586D01*
X131186788Y-117708768D01*
X131032445Y-117630127D01*
X130867701Y-117576598D01*
X130867699Y-117576597D01*
X130867698Y-117576597D01*
X130736271Y-117555781D01*
X130696611Y-117549500D01*
X130523389Y-117549500D01*
X130483728Y-117555781D01*
X130352302Y-117576597D01*
X130187552Y-117630128D01*
X130033211Y-117708768D01*
X130007187Y-117727676D01*
X129893072Y-117810586D01*
X129893070Y-117810588D01*
X129893069Y-117810588D01*
X129770588Y-117933069D01*
X129770588Y-117933070D01*
X129770586Y-117933072D01*
X129727276Y-117992683D01*
X129668768Y-118073211D01*
X129590128Y-118227552D01*
X129536597Y-118392302D01*
X129535378Y-118400000D01*
X129509500Y-118563389D01*
X129170500Y-118563389D01*
X129143402Y-118392299D01*
X129089873Y-118227555D01*
X129011232Y-118073212D01*
X128909414Y-117933072D01*
X128786928Y-117810586D01*
X128646788Y-117708768D01*
X128492445Y-117630127D01*
X128327701Y-117576598D01*
X128327699Y-117576597D01*
X128327698Y-117576597D01*
X128196271Y-117555781D01*
X128156611Y-117549500D01*
X127983389Y-117549500D01*
X127943728Y-117555781D01*
X127812302Y-117576597D01*
X127647552Y-117630128D01*
X127493211Y-117708768D01*
X127467187Y-117727676D01*
X127353072Y-117810586D01*
X127353070Y-117810588D01*
X127353069Y-117810588D01*
X127230588Y-117933069D01*
X127230588Y-117933070D01*
X127230586Y-117933072D01*
X127187276Y-117992683D01*
X127128768Y-118073211D01*
X127050128Y-118227552D01*
X126996597Y-118392302D01*
X126976472Y-118519367D01*
X126946543Y-118582502D01*
X126887231Y-118619433D01*
X126817369Y-118618435D01*
X126759136Y-118579825D01*
X126731022Y-118515861D01*
X126729999Y-118499969D01*
X126729999Y-117766782D01*
X126720087Y-117698750D01*
X126668784Y-117593808D01*
X126586188Y-117511212D01*
X126481251Y-117459912D01*
X126481248Y-117459911D01*
X126413220Y-117450000D01*
X125780000Y-117450000D01*
X125780000Y-118216988D01*
X125722993Y-118184075D01*
X125595826Y-118150000D01*
X125464174Y-118150000D01*
X125337007Y-118184075D01*
X125280000Y-118216988D01*
X125280000Y-117450000D01*
X124646782Y-117450000D01*
X124578750Y-117459912D01*
X124473808Y-117511215D01*
X124391212Y-117593811D01*
X124339912Y-117698748D01*
X124339911Y-117698751D01*
X124330000Y-117766780D01*
X122191738Y-117766780D01*
X122193186Y-117766392D01*
X122307314Y-117700500D01*
X122400500Y-117607314D01*
X122466392Y-117493186D01*
X122500500Y-117365892D01*
X122500500Y-117234108D01*
X122466392Y-117106814D01*
X122400500Y-116992686D01*
X122307314Y-116899500D01*
X122250250Y-116866554D01*
X122193187Y-116833608D01*
X122114002Y-116812391D01*
X122065892Y-116799500D01*
X121934108Y-116799500D01*
X121806812Y-116833608D01*
X121692686Y-116899500D01*
X121692683Y-116899502D01*
X121599502Y-116992683D01*
X121599500Y-116992686D01*
X121533608Y-117106812D01*
X121499500Y-117234108D01*
X116500500Y-117234108D01*
X116466392Y-117106814D01*
X116400500Y-116992686D01*
X116307314Y-116899500D01*
X116250250Y-116866554D01*
X116193187Y-116833608D01*
X116114002Y-116812391D01*
X116065892Y-116799500D01*
X115934108Y-116799500D01*
X115806812Y-116833608D01*
X115692686Y-116899500D01*
X115692683Y-116899502D01*
X115632181Y-116960005D01*
X115570858Y-116993490D01*
X115501166Y-116988506D01*
X115445233Y-116946634D01*
X115420816Y-116881170D01*
X115420500Y-116872324D01*
X115420500Y-116237399D01*
X134424500Y-116237399D01*
X134424500Y-116362601D01*
X134456905Y-116483536D01*
X134519505Y-116591964D01*
X134608036Y-116680495D01*
X134716464Y-116743095D01*
X134837399Y-116775500D01*
X134837402Y-116775500D01*
X134839365Y-116776026D01*
X134899025Y-116812391D01*
X134929554Y-116875238D01*
X134927048Y-116927888D01*
X134924500Y-116937398D01*
X134924500Y-116937399D01*
X134924500Y-117062601D01*
X134956905Y-117183536D01*
X135019505Y-117291964D01*
X135108036Y-117380495D01*
X135216464Y-117443095D01*
X135337399Y-117475500D01*
X135337401Y-117475500D01*
X135462599Y-117475500D01*
X135462601Y-117475500D01*
X135583536Y-117443095D01*
X135691964Y-117380495D01*
X135780495Y-117291964D01*
X135843095Y-117183536D01*
X135875500Y-117062601D01*
X135875500Y-116937399D01*
X135843095Y-116816464D01*
X135780495Y-116708036D01*
X135691964Y-116619505D01*
X135583536Y-116556905D01*
X135462601Y-116524500D01*
X135462600Y-116524500D01*
X135460633Y-116523973D01*
X135400973Y-116487607D01*
X135370445Y-116424760D01*
X135368821Y-116399401D01*
X135369358Y-116385521D01*
X135375500Y-116362601D01*
X135375500Y-116237399D01*
X143124500Y-116237399D01*
X143124500Y-116362601D01*
X143125382Y-116365891D01*
X143156905Y-116483536D01*
X143219504Y-116591962D01*
X143219506Y-116591965D01*
X143258108Y-116630567D01*
X143291593Y-116691890D01*
X143286609Y-116761582D01*
X143277814Y-116780247D01*
X143256908Y-116816457D01*
X143256905Y-116816462D01*
X143252311Y-116833608D01*
X143224500Y-116937399D01*
X143224500Y-117062601D01*
X143256905Y-117183536D01*
X143319505Y-117291964D01*
X143408036Y-117380495D01*
X143516464Y-117443095D01*
X143637399Y-117475500D01*
X143637401Y-117475500D01*
X143762599Y-117475500D01*
X143762601Y-117475500D01*
X143883536Y-117443095D01*
X143991964Y-117380495D01*
X144080495Y-117291964D01*
X144143095Y-117183536D01*
X144175500Y-117062601D01*
X144175500Y-116937399D01*
X144143095Y-116816464D01*
X144080495Y-116708036D01*
X144041892Y-116669433D01*
X144008407Y-116608110D01*
X144013391Y-116538418D01*
X144022186Y-116519753D01*
X144037523Y-116493187D01*
X144043095Y-116483536D01*
X144075500Y-116362601D01*
X144075500Y-116237399D01*
X144074618Y-116234108D01*
X157999500Y-116234108D01*
X157999500Y-116365892D01*
X158016554Y-116429539D01*
X158033608Y-116493187D01*
X158051383Y-116523973D01*
X158099500Y-116607314D01*
X158192686Y-116700500D01*
X158306814Y-116766392D01*
X158434108Y-116800500D01*
X158434110Y-116800500D01*
X158565890Y-116800500D01*
X158565892Y-116800500D01*
X158693186Y-116766392D01*
X158807314Y-116700500D01*
X158900500Y-116607314D01*
X158966392Y-116493186D01*
X159000500Y-116365892D01*
X159000500Y-116234108D01*
X159999500Y-116234108D01*
X159999500Y-116365892D01*
X160016554Y-116429539D01*
X160033608Y-116493187D01*
X160051383Y-116523973D01*
X160099500Y-116607314D01*
X160192686Y-116700500D01*
X160306814Y-116766392D01*
X160434108Y-116800500D01*
X160434110Y-116800500D01*
X160565890Y-116800500D01*
X160565892Y-116800500D01*
X160693186Y-116766392D01*
X160807314Y-116700500D01*
X160900500Y-116607314D01*
X160966392Y-116493186D01*
X161000500Y-116365892D01*
X161000500Y-116234108D01*
X161999500Y-116234108D01*
X161999500Y-116365892D01*
X162016554Y-116429539D01*
X162033608Y-116493187D01*
X162051383Y-116523973D01*
X162099500Y-116607314D01*
X162192686Y-116700500D01*
X162306814Y-116766392D01*
X162434108Y-116800500D01*
X162434110Y-116800500D01*
X162565890Y-116800500D01*
X162565892Y-116800500D01*
X162693186Y-116766392D01*
X162807314Y-116700500D01*
X162900500Y-116607314D01*
X162966392Y-116493186D01*
X163000500Y-116365892D01*
X163000500Y-116234108D01*
X162966392Y-116106814D01*
X162900500Y-115992686D01*
X162807314Y-115899500D01*
X162750250Y-115866554D01*
X162693187Y-115833608D01*
X162629539Y-115816554D01*
X162565892Y-115799500D01*
X162434108Y-115799500D01*
X162306812Y-115833608D01*
X162192686Y-115899500D01*
X162192683Y-115899502D01*
X162099502Y-115992683D01*
X162099500Y-115992686D01*
X162033608Y-116106812D01*
X162031022Y-116116464D01*
X161999500Y-116234108D01*
X161000500Y-116234108D01*
X160966392Y-116106814D01*
X160900500Y-115992686D01*
X160807314Y-115899500D01*
X160750250Y-115866554D01*
X160693187Y-115833608D01*
X160629539Y-115816554D01*
X160565892Y-115799500D01*
X160434108Y-115799500D01*
X160306812Y-115833608D01*
X160192686Y-115899500D01*
X160192683Y-115899502D01*
X160099502Y-115992683D01*
X160099500Y-115992686D01*
X160033608Y-116106812D01*
X160031022Y-116116464D01*
X159999500Y-116234108D01*
X159000500Y-116234108D01*
X158966392Y-116106814D01*
X158900500Y-115992686D01*
X158807314Y-115899500D01*
X158750250Y-115866554D01*
X158693187Y-115833608D01*
X158629539Y-115816554D01*
X158565892Y-115799500D01*
X158434108Y-115799500D01*
X158306812Y-115833608D01*
X158192686Y-115899500D01*
X158192683Y-115899502D01*
X158099502Y-115992683D01*
X158099500Y-115992686D01*
X158033608Y-116106812D01*
X158031022Y-116116464D01*
X157999500Y-116234108D01*
X144074618Y-116234108D01*
X144043095Y-116116464D01*
X143980495Y-116008036D01*
X143891964Y-115919505D01*
X143783536Y-115856905D01*
X143783537Y-115856905D01*
X143743224Y-115846103D01*
X143662601Y-115824500D01*
X143537399Y-115824500D01*
X143456775Y-115846103D01*
X143416463Y-115856905D01*
X143308037Y-115919504D01*
X143308034Y-115919506D01*
X143219506Y-116008034D01*
X143219504Y-116008037D01*
X143156905Y-116116463D01*
X143156905Y-116116464D01*
X143124500Y-116237399D01*
X135375500Y-116237399D01*
X135343095Y-116116464D01*
X135280495Y-116008036D01*
X135191964Y-115919505D01*
X135083536Y-115856905D01*
X135083537Y-115856905D01*
X135043224Y-115846103D01*
X134962601Y-115824500D01*
X134837399Y-115824500D01*
X134756775Y-115846103D01*
X134716463Y-115856905D01*
X134608037Y-115919504D01*
X134608034Y-115919506D01*
X134519506Y-116008034D01*
X134519504Y-116008037D01*
X134456905Y-116116463D01*
X134456905Y-116116464D01*
X134424500Y-116237399D01*
X115420500Y-116237399D01*
X115420500Y-115727676D01*
X115440185Y-115660637D01*
X115492989Y-115614882D01*
X115562147Y-115604938D01*
X115625703Y-115633963D01*
X115632181Y-115639995D01*
X115692686Y-115700500D01*
X115806814Y-115766392D01*
X115934108Y-115800500D01*
X115934110Y-115800500D01*
X116065890Y-115800500D01*
X116065892Y-115800500D01*
X116193186Y-115766392D01*
X116307314Y-115700500D01*
X116400500Y-115607314D01*
X116466392Y-115493186D01*
X116500500Y-115365892D01*
X116500500Y-115234108D01*
X121499500Y-115234108D01*
X121499500Y-115365891D01*
X121533608Y-115493187D01*
X121566554Y-115550250D01*
X121599500Y-115607314D01*
X121692686Y-115700500D01*
X121806814Y-115766392D01*
X121934108Y-115800500D01*
X121934110Y-115800500D01*
X122065890Y-115800500D01*
X122065892Y-115800500D01*
X122193186Y-115766392D01*
X122307314Y-115700500D01*
X122400500Y-115607314D01*
X122466392Y-115493186D01*
X122500500Y-115365892D01*
X122500500Y-115234108D01*
X123499500Y-115234108D01*
X123499500Y-115365891D01*
X123533608Y-115493187D01*
X123566554Y-115550250D01*
X123599500Y-115607314D01*
X123692686Y-115700500D01*
X123806814Y-115766392D01*
X123934108Y-115800500D01*
X123934110Y-115800500D01*
X124065890Y-115800500D01*
X124065892Y-115800500D01*
X124193186Y-115766392D01*
X124307314Y-115700500D01*
X124400500Y-115607314D01*
X124466392Y-115493186D01*
X124500500Y-115365892D01*
X124500500Y-115234108D01*
X125499500Y-115234108D01*
X125499500Y-115365891D01*
X125533608Y-115493187D01*
X125566554Y-115550250D01*
X125599500Y-115607314D01*
X125692686Y-115700500D01*
X125806814Y-115766392D01*
X125934108Y-115800500D01*
X125934110Y-115800500D01*
X126065890Y-115800500D01*
X126065892Y-115800500D01*
X126193186Y-115766392D01*
X126307314Y-115700500D01*
X126400500Y-115607314D01*
X126466392Y-115493186D01*
X126500500Y-115365892D01*
X126500500Y-115234108D01*
X131499500Y-115234108D01*
X131499500Y-115365891D01*
X131533608Y-115493187D01*
X131566554Y-115550250D01*
X131599500Y-115607314D01*
X131692686Y-115700500D01*
X131806814Y-115766392D01*
X131934108Y-115800500D01*
X131934110Y-115800500D01*
X132065890Y-115800500D01*
X132065892Y-115800500D01*
X132193186Y-115766392D01*
X132307314Y-115700500D01*
X132400500Y-115607314D01*
X132466392Y-115493186D01*
X132500500Y-115365892D01*
X132500500Y-115234108D01*
X132466392Y-115106814D01*
X132400500Y-114992686D01*
X132307314Y-114899500D01*
X132250250Y-114866554D01*
X132193187Y-114833608D01*
X132129539Y-114816554D01*
X132065892Y-114799500D01*
X131934108Y-114799500D01*
X131806812Y-114833608D01*
X131692686Y-114899500D01*
X131692683Y-114899502D01*
X131599502Y-114992683D01*
X131599500Y-114992686D01*
X131533608Y-115106812D01*
X131499500Y-115234108D01*
X126500500Y-115234108D01*
X126466392Y-115106814D01*
X126400500Y-114992686D01*
X126307314Y-114899500D01*
X126250250Y-114866554D01*
X126193187Y-114833608D01*
X126129539Y-114816554D01*
X126065892Y-114799500D01*
X125934108Y-114799500D01*
X125806812Y-114833608D01*
X125692686Y-114899500D01*
X125692683Y-114899502D01*
X125599502Y-114992683D01*
X125599500Y-114992686D01*
X125533608Y-115106812D01*
X125499500Y-115234108D01*
X124500500Y-115234108D01*
X124466392Y-115106814D01*
X124400500Y-114992686D01*
X124307314Y-114899500D01*
X124250250Y-114866554D01*
X124193187Y-114833608D01*
X124129539Y-114816554D01*
X124065892Y-114799500D01*
X123934108Y-114799500D01*
X123806812Y-114833608D01*
X123692686Y-114899500D01*
X123692683Y-114899502D01*
X123599502Y-114992683D01*
X123599500Y-114992686D01*
X123533608Y-115106812D01*
X123499500Y-115234108D01*
X122500500Y-115234108D01*
X122466392Y-115106814D01*
X122400500Y-114992686D01*
X122307314Y-114899500D01*
X122250250Y-114866554D01*
X122193187Y-114833608D01*
X122129539Y-114816554D01*
X122065892Y-114799500D01*
X121934108Y-114799500D01*
X121806812Y-114833608D01*
X121692686Y-114899500D01*
X121692683Y-114899502D01*
X121599502Y-114992683D01*
X121599500Y-114992686D01*
X121533608Y-115106812D01*
X121499500Y-115234108D01*
X116500500Y-115234108D01*
X116466392Y-115106814D01*
X116400500Y-114992686D01*
X116307314Y-114899500D01*
X116250250Y-114866554D01*
X116193187Y-114833608D01*
X116129539Y-114816554D01*
X116065892Y-114799500D01*
X115934108Y-114799500D01*
X115806812Y-114833608D01*
X115692686Y-114899500D01*
X115692683Y-114899502D01*
X115632181Y-114960005D01*
X115570858Y-114993490D01*
X115501166Y-114988506D01*
X115445233Y-114946634D01*
X115420816Y-114881170D01*
X115420500Y-114872324D01*
X115420500Y-114234108D01*
X145999500Y-114234108D01*
X145999500Y-114365891D01*
X146033608Y-114493187D01*
X146066554Y-114550250D01*
X146099500Y-114607314D01*
X146192686Y-114700500D01*
X146306814Y-114766392D01*
X146434108Y-114800500D01*
X146434110Y-114800500D01*
X146565890Y-114800500D01*
X146565892Y-114800500D01*
X146693186Y-114766392D01*
X146807314Y-114700500D01*
X146900500Y-114607314D01*
X146966392Y-114493186D01*
X147000500Y-114365892D01*
X147000500Y-114234108D01*
X149999500Y-114234108D01*
X149999500Y-114365891D01*
X150033608Y-114493187D01*
X150066554Y-114550250D01*
X150099500Y-114607314D01*
X150192686Y-114700500D01*
X150306814Y-114766392D01*
X150434108Y-114800500D01*
X150434110Y-114800500D01*
X150565890Y-114800500D01*
X150565892Y-114800500D01*
X150693186Y-114766392D01*
X150807314Y-114700500D01*
X150900500Y-114607314D01*
X150966392Y-114493186D01*
X151000500Y-114365892D01*
X151000500Y-114234108D01*
X151999500Y-114234108D01*
X151999500Y-114365891D01*
X152033608Y-114493187D01*
X152066554Y-114550250D01*
X152099500Y-114607314D01*
X152192686Y-114700500D01*
X152306814Y-114766392D01*
X152434108Y-114800500D01*
X152434110Y-114800500D01*
X152565890Y-114800500D01*
X152565892Y-114800500D01*
X152693186Y-114766392D01*
X152807314Y-114700500D01*
X152900500Y-114607314D01*
X152966392Y-114493186D01*
X153000500Y-114365892D01*
X153000500Y-114234108D01*
X152966392Y-114106814D01*
X152900500Y-113992686D01*
X152807314Y-113899500D01*
X152750250Y-113866554D01*
X152693187Y-113833608D01*
X152629539Y-113816554D01*
X152565892Y-113799500D01*
X152434108Y-113799500D01*
X152306812Y-113833608D01*
X152192686Y-113899500D01*
X152192683Y-113899502D01*
X152099502Y-113992683D01*
X152099500Y-113992686D01*
X152033608Y-114106812D01*
X151999500Y-114234108D01*
X151000500Y-114234108D01*
X150966392Y-114106814D01*
X150900500Y-113992686D01*
X150807314Y-113899500D01*
X150750250Y-113866554D01*
X150693187Y-113833608D01*
X150629539Y-113816554D01*
X150565892Y-113799500D01*
X150434108Y-113799500D01*
X150306812Y-113833608D01*
X150192686Y-113899500D01*
X150192683Y-113899502D01*
X150099502Y-113992683D01*
X150099500Y-113992686D01*
X150033608Y-114106812D01*
X149999500Y-114234108D01*
X147000500Y-114234108D01*
X146966392Y-114106814D01*
X146900500Y-113992686D01*
X146807314Y-113899500D01*
X146750250Y-113866554D01*
X146693187Y-113833608D01*
X146629539Y-113816554D01*
X146565892Y-113799500D01*
X146434108Y-113799500D01*
X146306812Y-113833608D01*
X146192686Y-113899500D01*
X146192683Y-113899502D01*
X146099502Y-113992683D01*
X146099500Y-113992686D01*
X146033608Y-114106812D01*
X145999500Y-114234108D01*
X115420500Y-114234108D01*
X115420500Y-113234108D01*
X131499500Y-113234108D01*
X131499500Y-113365891D01*
X131533608Y-113493187D01*
X131566554Y-113550250D01*
X131599500Y-113607314D01*
X131692686Y-113700500D01*
X131806814Y-113766392D01*
X131934108Y-113800500D01*
X131934110Y-113800500D01*
X132065890Y-113800500D01*
X132065892Y-113800500D01*
X132193186Y-113766392D01*
X132307314Y-113700500D01*
X132400500Y-113607314D01*
X132466392Y-113493186D01*
X132468824Y-113484108D01*
X140699500Y-113484108D01*
X140699500Y-113615891D01*
X140733608Y-113743187D01*
X140747005Y-113766391D01*
X140799500Y-113857314D01*
X140892686Y-113950500D01*
X141006814Y-114016392D01*
X141134108Y-114050500D01*
X141134110Y-114050500D01*
X141265890Y-114050500D01*
X141265892Y-114050500D01*
X141393186Y-114016392D01*
X141507314Y-113950500D01*
X141600500Y-113857314D01*
X141666392Y-113743186D01*
X141700500Y-113615892D01*
X141700500Y-113484108D01*
X141666392Y-113356814D01*
X141600500Y-113242686D01*
X141507314Y-113149500D01*
X141433380Y-113106814D01*
X141393187Y-113083608D01*
X141329539Y-113066554D01*
X141265892Y-113049500D01*
X141134108Y-113049500D01*
X141006812Y-113083608D01*
X140892686Y-113149500D01*
X140892683Y-113149502D01*
X140799502Y-113242683D01*
X140799500Y-113242686D01*
X140733608Y-113356812D01*
X140699500Y-113484108D01*
X132468824Y-113484108D01*
X132500500Y-113365892D01*
X132500500Y-113234108D01*
X132466392Y-113106814D01*
X132400500Y-112992686D01*
X132307314Y-112899500D01*
X132250250Y-112866554D01*
X132193187Y-112833608D01*
X132129539Y-112816554D01*
X132065892Y-112799500D01*
X131934108Y-112799500D01*
X131806812Y-112833608D01*
X131692686Y-112899500D01*
X131692683Y-112899502D01*
X131599502Y-112992683D01*
X131599500Y-112992686D01*
X131533608Y-113106812D01*
X131499500Y-113234108D01*
X115420500Y-113234108D01*
X115420500Y-112234108D01*
X122374500Y-112234108D01*
X122374500Y-112365891D01*
X122408608Y-112493187D01*
X122441554Y-112550250D01*
X122474500Y-112607314D01*
X122567686Y-112700500D01*
X122681814Y-112766392D01*
X122809108Y-112800500D01*
X122809110Y-112800500D01*
X122940890Y-112800500D01*
X122940892Y-112800500D01*
X123068186Y-112766392D01*
X123182314Y-112700500D01*
X123275500Y-112607314D01*
X123341392Y-112493186D01*
X123375500Y-112365892D01*
X123375500Y-112234108D01*
X141499500Y-112234108D01*
X141499500Y-112365891D01*
X141533608Y-112493187D01*
X141566554Y-112550250D01*
X141599500Y-112607314D01*
X141692686Y-112700500D01*
X141806814Y-112766392D01*
X141934108Y-112800500D01*
X141934110Y-112800500D01*
X142065890Y-112800500D01*
X142065892Y-112800500D01*
X142193186Y-112766392D01*
X142307314Y-112700500D01*
X142400500Y-112607314D01*
X142466392Y-112493186D01*
X142500500Y-112365892D01*
X142500500Y-112234108D01*
X142466392Y-112106814D01*
X142400500Y-111992686D01*
X142307314Y-111899500D01*
X142209322Y-111842924D01*
X142193187Y-111833608D01*
X142129539Y-111816554D01*
X142065892Y-111799500D01*
X141934108Y-111799500D01*
X141806812Y-111833608D01*
X141692686Y-111899500D01*
X141692683Y-111899502D01*
X141599502Y-111992683D01*
X141599500Y-111992686D01*
X141533608Y-112106812D01*
X141499500Y-112234108D01*
X123375500Y-112234108D01*
X123341392Y-112106814D01*
X123275500Y-111992686D01*
X123182314Y-111899500D01*
X123084322Y-111842924D01*
X123068187Y-111833608D01*
X123004539Y-111816554D01*
X122940892Y-111799500D01*
X122809108Y-111799500D01*
X122681812Y-111833608D01*
X122567686Y-111899500D01*
X122567683Y-111899502D01*
X122474502Y-111992683D01*
X122474500Y-111992686D01*
X122408608Y-112106812D01*
X122374500Y-112234108D01*
X115420500Y-112234108D01*
X115420500Y-111234108D01*
X131499500Y-111234108D01*
X131499500Y-111365891D01*
X131533608Y-111493187D01*
X131566554Y-111550250D01*
X131599500Y-111607314D01*
X131692686Y-111700500D01*
X131806814Y-111766392D01*
X131934108Y-111800500D01*
X131934110Y-111800500D01*
X132065890Y-111800500D01*
X132065892Y-111800500D01*
X132193186Y-111766392D01*
X132307314Y-111700500D01*
X132400500Y-111607314D01*
X132466392Y-111493186D01*
X132500500Y-111365892D01*
X132500500Y-111234108D01*
X140499500Y-111234108D01*
X140499500Y-111365891D01*
X140533608Y-111493187D01*
X140566554Y-111550250D01*
X140599500Y-111607314D01*
X140692686Y-111700500D01*
X140806814Y-111766392D01*
X140934108Y-111800500D01*
X140934110Y-111800500D01*
X141065890Y-111800500D01*
X141065892Y-111800500D01*
X141193186Y-111766392D01*
X141307314Y-111700500D01*
X141400500Y-111607314D01*
X141466392Y-111493186D01*
X141500500Y-111365892D01*
X141500500Y-111234108D01*
X141466392Y-111106814D01*
X141400500Y-110992686D01*
X141307314Y-110899500D01*
X141250250Y-110866554D01*
X141193187Y-110833608D01*
X141129539Y-110816554D01*
X141065892Y-110799500D01*
X140934108Y-110799500D01*
X140806812Y-110833608D01*
X140692686Y-110899500D01*
X140692683Y-110899502D01*
X140599502Y-110992683D01*
X140599500Y-110992686D01*
X140533608Y-111106812D01*
X140499500Y-111234108D01*
X132500500Y-111234108D01*
X132466392Y-111106814D01*
X132400500Y-110992686D01*
X132307314Y-110899500D01*
X132250250Y-110866554D01*
X132193187Y-110833608D01*
X132129539Y-110816554D01*
X132065892Y-110799500D01*
X131934108Y-110799500D01*
X131806812Y-110833608D01*
X131692686Y-110899500D01*
X131692683Y-110899502D01*
X131599502Y-110992683D01*
X131599500Y-110992686D01*
X131533608Y-111106812D01*
X131499500Y-111234108D01*
X115420500Y-111234108D01*
X115420500Y-108924000D01*
X115440185Y-108856961D01*
X115492989Y-108811206D01*
X115544500Y-108800000D01*
X129495973Y-108800000D01*
X129563012Y-108819685D01*
G37*
G04 #@! TD.AperFunction*
G04 #@! TA.AperFunction,Conductor*
G36*
X164362539Y-71940185D02*
G01*
X164408294Y-71992989D01*
X164419500Y-72044500D01*
X164419500Y-108420500D01*
X164399815Y-108487539D01*
X164347011Y-108533294D01*
X164295500Y-108544500D01*
X149701098Y-108544500D01*
X149634059Y-108524815D01*
X149588304Y-108472011D01*
X149584697Y-108463242D01*
X149577100Y-108442552D01*
X149577100Y-108428645D01*
X149553105Y-108339095D01*
X149519997Y-108281750D01*
X149506750Y-108258805D01*
X148966194Y-107718250D01*
X148962597Y-107716173D01*
X148885911Y-107671897D01*
X148885908Y-107671896D01*
X148885907Y-107671895D01*
X148885906Y-107671895D01*
X148796355Y-107647900D01*
X141724000Y-107647900D01*
X141656961Y-107628215D01*
X141611206Y-107575411D01*
X141600000Y-107523900D01*
X141600000Y-100734108D01*
X161999500Y-100734108D01*
X161999500Y-100865891D01*
X162033608Y-100993187D01*
X162066554Y-101050250D01*
X162099500Y-101107314D01*
X162192686Y-101200500D01*
X162306814Y-101266392D01*
X162434108Y-101300500D01*
X162434110Y-101300500D01*
X162565890Y-101300500D01*
X162565892Y-101300500D01*
X162693186Y-101266392D01*
X162807314Y-101200500D01*
X162900500Y-101107314D01*
X162966392Y-100993186D01*
X163000500Y-100865892D01*
X163000500Y-100734108D01*
X162966392Y-100606814D01*
X162900500Y-100492686D01*
X162807314Y-100399500D01*
X162750250Y-100366554D01*
X162693187Y-100333608D01*
X162629539Y-100316554D01*
X162565892Y-100299500D01*
X162434108Y-100299500D01*
X162306812Y-100333608D01*
X162192686Y-100399500D01*
X162192683Y-100399502D01*
X162099502Y-100492683D01*
X162099500Y-100492686D01*
X162033608Y-100606812D01*
X161999500Y-100734108D01*
X141600000Y-100734108D01*
X141600000Y-98413303D01*
X141619685Y-98346264D01*
X141672489Y-98300509D01*
X141691895Y-98293532D01*
X141793186Y-98266392D01*
X141849103Y-98234108D01*
X149599500Y-98234108D01*
X149599500Y-98365891D01*
X149633608Y-98493187D01*
X149666554Y-98550250D01*
X149699500Y-98607314D01*
X149792686Y-98700500D01*
X149906814Y-98766392D01*
X150034108Y-98800500D01*
X150034110Y-98800500D01*
X150165890Y-98800500D01*
X150165892Y-98800500D01*
X150293186Y-98766392D01*
X150407314Y-98700500D01*
X150462319Y-98645495D01*
X150523642Y-98612010D01*
X150593334Y-98616994D01*
X150637681Y-98645495D01*
X150692686Y-98700500D01*
X150806814Y-98766392D01*
X150934108Y-98800500D01*
X150934110Y-98800500D01*
X151065890Y-98800500D01*
X151065892Y-98800500D01*
X151193186Y-98766392D01*
X151249103Y-98734108D01*
X161999500Y-98734108D01*
X161999500Y-98865891D01*
X162033608Y-98993187D01*
X162066554Y-99050250D01*
X162099500Y-99107314D01*
X162192686Y-99200500D01*
X162306814Y-99266392D01*
X162434108Y-99300500D01*
X162434110Y-99300500D01*
X162565890Y-99300500D01*
X162565892Y-99300500D01*
X162693186Y-99266392D01*
X162807314Y-99200500D01*
X162900500Y-99107314D01*
X162966392Y-98993186D01*
X163000500Y-98865892D01*
X163000500Y-98734108D01*
X162966392Y-98606814D01*
X162900500Y-98492686D01*
X162807314Y-98399500D01*
X162715107Y-98346264D01*
X162693187Y-98333608D01*
X162629539Y-98316554D01*
X162565892Y-98299500D01*
X162434108Y-98299500D01*
X162306812Y-98333608D01*
X162192686Y-98399500D01*
X162192683Y-98399502D01*
X162099502Y-98492683D01*
X162099500Y-98492686D01*
X162033608Y-98606812D01*
X161999500Y-98734108D01*
X151249103Y-98734108D01*
X151307314Y-98700500D01*
X151400500Y-98607314D01*
X151466392Y-98493186D01*
X151500500Y-98365892D01*
X151500500Y-98234108D01*
X151466392Y-98106814D01*
X151400500Y-97992686D01*
X151307314Y-97899500D01*
X151249100Y-97865890D01*
X151193187Y-97833608D01*
X151129539Y-97816554D01*
X151065892Y-97799500D01*
X150934108Y-97799500D01*
X150806812Y-97833608D01*
X150692686Y-97899500D01*
X150692683Y-97899502D01*
X150637681Y-97954505D01*
X150576358Y-97987990D01*
X150506666Y-97983006D01*
X150462319Y-97954505D01*
X150407316Y-97899502D01*
X150407314Y-97899500D01*
X150349100Y-97865890D01*
X150293187Y-97833608D01*
X150229539Y-97816554D01*
X150165892Y-97799500D01*
X150034108Y-97799500D01*
X149906812Y-97833608D01*
X149792686Y-97899500D01*
X149792683Y-97899502D01*
X149699502Y-97992683D01*
X149699500Y-97992686D01*
X149633608Y-98106812D01*
X149599500Y-98234108D01*
X141849103Y-98234108D01*
X141907314Y-98200500D01*
X142000500Y-98107314D01*
X142066392Y-97993186D01*
X142100500Y-97865892D01*
X142100500Y-97734108D01*
X142066392Y-97606814D01*
X142000500Y-97492686D01*
X141907314Y-97399500D01*
X141850250Y-97366554D01*
X141793187Y-97333608D01*
X141750519Y-97322175D01*
X141691905Y-97306470D01*
X141632246Y-97270106D01*
X141601717Y-97207259D01*
X141600000Y-97186696D01*
X141600000Y-96674500D01*
X141619685Y-96607461D01*
X141672489Y-96561706D01*
X141724000Y-96550500D01*
X141746144Y-96550500D01*
X142603456Y-96550500D01*
X142632896Y-96559144D01*
X142662883Y-96565668D01*
X142667898Y-96569422D01*
X142670495Y-96570185D01*
X142691137Y-96586819D01*
X142763181Y-96658863D01*
X142796666Y-96720186D01*
X142799500Y-96746544D01*
X142799500Y-96765891D01*
X142833608Y-96893187D01*
X142866554Y-96950250D01*
X142899500Y-97007314D01*
X142992686Y-97100500D01*
X143106814Y-97166392D01*
X143234108Y-97200500D01*
X143234110Y-97200500D01*
X143365890Y-97200500D01*
X143365892Y-97200500D01*
X143493186Y-97166392D01*
X143607314Y-97100500D01*
X143700500Y-97007314D01*
X143766392Y-96893186D01*
X143800500Y-96765892D01*
X143800500Y-96734108D01*
X161999500Y-96734108D01*
X161999500Y-96865891D01*
X162033608Y-96993187D01*
X162041766Y-97007316D01*
X162099500Y-97107314D01*
X162192686Y-97200500D01*
X162306814Y-97266392D01*
X162434108Y-97300500D01*
X162434110Y-97300500D01*
X162565890Y-97300500D01*
X162565892Y-97300500D01*
X162693186Y-97266392D01*
X162807314Y-97200500D01*
X162900500Y-97107314D01*
X162966392Y-96993186D01*
X163000500Y-96865892D01*
X163000500Y-96734108D01*
X162966392Y-96606814D01*
X162900500Y-96492686D01*
X162807314Y-96399500D01*
X162750250Y-96366554D01*
X162693187Y-96333608D01*
X162629539Y-96316554D01*
X162565892Y-96299500D01*
X162434108Y-96299500D01*
X162306812Y-96333608D01*
X162192686Y-96399500D01*
X162192683Y-96399502D01*
X162099502Y-96492683D01*
X162099500Y-96492686D01*
X162033608Y-96606812D01*
X161999500Y-96734108D01*
X143800500Y-96734108D01*
X143800500Y-96634108D01*
X143766392Y-96506814D01*
X143700500Y-96392686D01*
X143607314Y-96299500D01*
X143550250Y-96266554D01*
X143493187Y-96233608D01*
X143429539Y-96216554D01*
X143365892Y-96199500D01*
X143365891Y-96199500D01*
X143346544Y-96199500D01*
X143279505Y-96179815D01*
X143258863Y-96163181D01*
X143015213Y-95919531D01*
X143015208Y-95919527D01*
X142935290Y-95873387D01*
X142935289Y-95873386D01*
X142935288Y-95873386D01*
X142846144Y-95849500D01*
X142846143Y-95849500D01*
X141974500Y-95849500D01*
X141907461Y-95829815D01*
X141861706Y-95777011D01*
X141850500Y-95725500D01*
X141850500Y-94734108D01*
X161999500Y-94734108D01*
X161999500Y-94865891D01*
X162033608Y-94993187D01*
X162048818Y-95019531D01*
X162099500Y-95107314D01*
X162192686Y-95200500D01*
X162306814Y-95266392D01*
X162434108Y-95300500D01*
X162434110Y-95300500D01*
X162565890Y-95300500D01*
X162565892Y-95300500D01*
X162693186Y-95266392D01*
X162807314Y-95200500D01*
X162900500Y-95107314D01*
X162966392Y-94993186D01*
X163000500Y-94865892D01*
X163000500Y-94734108D01*
X162966392Y-94606814D01*
X162900500Y-94492686D01*
X162807314Y-94399500D01*
X162750250Y-94366554D01*
X162693187Y-94333608D01*
X162629539Y-94316554D01*
X162565892Y-94299500D01*
X162434108Y-94299500D01*
X162306812Y-94333608D01*
X162192686Y-94399500D01*
X162192683Y-94399502D01*
X162099502Y-94492683D01*
X162099500Y-94492686D01*
X162033608Y-94606812D01*
X161999500Y-94734108D01*
X141850500Y-94734108D01*
X141850500Y-92734108D01*
X161999500Y-92734108D01*
X161999500Y-92865891D01*
X162033608Y-92993187D01*
X162066554Y-93050250D01*
X162099500Y-93107314D01*
X162192686Y-93200500D01*
X162306814Y-93266392D01*
X162434108Y-93300500D01*
X162434110Y-93300500D01*
X162565890Y-93300500D01*
X162565892Y-93300500D01*
X162693186Y-93266392D01*
X162807314Y-93200500D01*
X162900500Y-93107314D01*
X162966392Y-92993186D01*
X163000500Y-92865892D01*
X163000500Y-92734108D01*
X162966392Y-92606814D01*
X162900500Y-92492686D01*
X162807314Y-92399500D01*
X162750250Y-92366554D01*
X162693187Y-92333608D01*
X162629539Y-92316554D01*
X162565892Y-92299500D01*
X162434108Y-92299500D01*
X162306812Y-92333608D01*
X162192686Y-92399500D01*
X162192683Y-92399502D01*
X162099502Y-92492683D01*
X162099500Y-92492686D01*
X162033608Y-92606812D01*
X161999500Y-92734108D01*
X141850500Y-92734108D01*
X141850500Y-90734108D01*
X161999500Y-90734108D01*
X161999500Y-90865891D01*
X162033608Y-90993187D01*
X162066554Y-91050250D01*
X162099500Y-91107314D01*
X162192686Y-91200500D01*
X162306814Y-91266392D01*
X162434108Y-91300500D01*
X162434110Y-91300500D01*
X162565890Y-91300500D01*
X162565892Y-91300500D01*
X162693186Y-91266392D01*
X162807314Y-91200500D01*
X162900500Y-91107314D01*
X162966392Y-90993186D01*
X163000500Y-90865892D01*
X163000500Y-90734108D01*
X162966392Y-90606814D01*
X162900500Y-90492686D01*
X162807314Y-90399500D01*
X162750250Y-90366554D01*
X162693187Y-90333608D01*
X162629539Y-90316554D01*
X162565892Y-90299500D01*
X162434108Y-90299500D01*
X162306812Y-90333608D01*
X162192686Y-90399500D01*
X162192683Y-90399502D01*
X162099502Y-90492683D01*
X162099500Y-90492686D01*
X162033608Y-90606812D01*
X161999500Y-90734108D01*
X141850500Y-90734108D01*
X141850500Y-88924500D01*
X141870185Y-88857461D01*
X141922989Y-88811706D01*
X141974500Y-88800500D01*
X142591324Y-88800500D01*
X142658363Y-88820185D01*
X142679005Y-88836819D01*
X142692686Y-88850500D01*
X142806814Y-88916392D01*
X142934108Y-88950500D01*
X142934110Y-88950500D01*
X143065890Y-88950500D01*
X143065892Y-88950500D01*
X143193186Y-88916392D01*
X143307314Y-88850500D01*
X143400500Y-88757314D01*
X143413898Y-88734108D01*
X161999500Y-88734108D01*
X161999500Y-88865891D01*
X162033608Y-88993187D01*
X162066554Y-89050250D01*
X162099500Y-89107314D01*
X162192686Y-89200500D01*
X162306814Y-89266392D01*
X162434108Y-89300500D01*
X162434110Y-89300500D01*
X162565890Y-89300500D01*
X162565892Y-89300500D01*
X162693186Y-89266392D01*
X162807314Y-89200500D01*
X162900500Y-89107314D01*
X162966392Y-88993186D01*
X163000500Y-88865892D01*
X163000500Y-88734108D01*
X162966392Y-88606814D01*
X162900500Y-88492686D01*
X162807314Y-88399500D01*
X162750250Y-88366554D01*
X162693187Y-88333608D01*
X162629539Y-88316554D01*
X162565892Y-88299500D01*
X162434108Y-88299500D01*
X162306812Y-88333608D01*
X162192686Y-88399500D01*
X162192683Y-88399502D01*
X162099502Y-88492683D01*
X162099500Y-88492686D01*
X162033608Y-88606812D01*
X161999500Y-88734108D01*
X143413898Y-88734108D01*
X143466392Y-88643186D01*
X143500500Y-88515892D01*
X143500500Y-88384108D01*
X143466392Y-88256814D01*
X143400500Y-88142686D01*
X143307314Y-88049500D01*
X143250250Y-88016554D01*
X143193187Y-87983608D01*
X143129539Y-87966554D01*
X143065892Y-87949500D01*
X142934108Y-87949500D01*
X142806812Y-87983608D01*
X142692686Y-88049500D01*
X142692683Y-88049502D01*
X142679005Y-88063181D01*
X142617682Y-88096666D01*
X142591324Y-88099500D01*
X141724000Y-88099500D01*
X141656961Y-88079815D01*
X141611206Y-88027011D01*
X141600000Y-87975500D01*
X141600000Y-86734108D01*
X161999500Y-86734108D01*
X161999500Y-86865891D01*
X162033608Y-86993187D01*
X162066554Y-87050250D01*
X162099500Y-87107314D01*
X162192686Y-87200500D01*
X162306814Y-87266392D01*
X162434108Y-87300500D01*
X162434110Y-87300500D01*
X162565890Y-87300500D01*
X162565892Y-87300500D01*
X162693186Y-87266392D01*
X162807314Y-87200500D01*
X162900500Y-87107314D01*
X162966392Y-86993186D01*
X163000500Y-86865892D01*
X163000500Y-86734108D01*
X162966392Y-86606814D01*
X162900500Y-86492686D01*
X162807314Y-86399500D01*
X162750250Y-86366554D01*
X162693187Y-86333608D01*
X162629539Y-86316554D01*
X162565892Y-86299500D01*
X162434108Y-86299500D01*
X162306812Y-86333608D01*
X162192686Y-86399500D01*
X162192683Y-86399502D01*
X162099502Y-86492683D01*
X162099500Y-86492686D01*
X162033608Y-86606812D01*
X161999500Y-86734108D01*
X141600000Y-86734108D01*
X141600000Y-84734108D01*
X149999500Y-84734108D01*
X149999500Y-84865891D01*
X150033608Y-84993187D01*
X150066554Y-85050250D01*
X150099500Y-85107314D01*
X150192686Y-85200500D01*
X150306814Y-85266392D01*
X150434108Y-85300500D01*
X150434110Y-85300500D01*
X150565890Y-85300500D01*
X150565892Y-85300500D01*
X150693186Y-85266392D01*
X150807314Y-85200500D01*
X150900500Y-85107314D01*
X150966392Y-84993186D01*
X151000500Y-84865892D01*
X151000500Y-84734108D01*
X151999500Y-84734108D01*
X151999500Y-84865891D01*
X152033608Y-84993187D01*
X152066554Y-85050250D01*
X152099500Y-85107314D01*
X152192686Y-85200500D01*
X152306814Y-85266392D01*
X152434108Y-85300500D01*
X152434110Y-85300500D01*
X152565890Y-85300500D01*
X152565892Y-85300500D01*
X152693186Y-85266392D01*
X152807314Y-85200500D01*
X152900500Y-85107314D01*
X152966392Y-84993186D01*
X153000500Y-84865892D01*
X153000500Y-84734108D01*
X153999500Y-84734108D01*
X153999500Y-84865891D01*
X154033608Y-84993187D01*
X154066554Y-85050250D01*
X154099500Y-85107314D01*
X154192686Y-85200500D01*
X154306814Y-85266392D01*
X154434108Y-85300500D01*
X154434110Y-85300500D01*
X154565890Y-85300500D01*
X154565892Y-85300500D01*
X154693186Y-85266392D01*
X154807314Y-85200500D01*
X154900500Y-85107314D01*
X154966392Y-84993186D01*
X155000500Y-84865892D01*
X155000500Y-84734108D01*
X155999500Y-84734108D01*
X155999500Y-84865891D01*
X156033608Y-84993187D01*
X156066554Y-85050250D01*
X156099500Y-85107314D01*
X156192686Y-85200500D01*
X156306814Y-85266392D01*
X156434108Y-85300500D01*
X156434110Y-85300500D01*
X156565890Y-85300500D01*
X156565892Y-85300500D01*
X156693186Y-85266392D01*
X156807314Y-85200500D01*
X156900500Y-85107314D01*
X156966392Y-84993186D01*
X157000500Y-84865892D01*
X157000500Y-84734108D01*
X157999500Y-84734108D01*
X157999500Y-84865891D01*
X158033608Y-84993187D01*
X158066554Y-85050250D01*
X158099500Y-85107314D01*
X158192686Y-85200500D01*
X158306814Y-85266392D01*
X158434108Y-85300500D01*
X158434110Y-85300500D01*
X158565890Y-85300500D01*
X158565892Y-85300500D01*
X158693186Y-85266392D01*
X158807314Y-85200500D01*
X158900500Y-85107314D01*
X158966392Y-84993186D01*
X159000500Y-84865892D01*
X159000500Y-84734108D01*
X159999500Y-84734108D01*
X159999500Y-84865891D01*
X160033608Y-84993187D01*
X160066554Y-85050250D01*
X160099500Y-85107314D01*
X160192686Y-85200500D01*
X160306814Y-85266392D01*
X160434108Y-85300500D01*
X160434110Y-85300500D01*
X160565890Y-85300500D01*
X160565892Y-85300500D01*
X160693186Y-85266392D01*
X160807314Y-85200500D01*
X160900500Y-85107314D01*
X160966392Y-84993186D01*
X161000500Y-84865892D01*
X161000500Y-84734108D01*
X161999500Y-84734108D01*
X161999500Y-84865891D01*
X162033608Y-84993187D01*
X162066554Y-85050250D01*
X162099500Y-85107314D01*
X162192686Y-85200500D01*
X162306814Y-85266392D01*
X162434108Y-85300500D01*
X162434110Y-85300500D01*
X162565890Y-85300500D01*
X162565892Y-85300500D01*
X162693186Y-85266392D01*
X162807314Y-85200500D01*
X162900500Y-85107314D01*
X162966392Y-84993186D01*
X163000500Y-84865892D01*
X163000500Y-84734108D01*
X162966392Y-84606814D01*
X162900500Y-84492686D01*
X162807314Y-84399500D01*
X162750250Y-84366554D01*
X162693187Y-84333608D01*
X162629539Y-84316554D01*
X162565892Y-84299500D01*
X162434108Y-84299500D01*
X162306812Y-84333608D01*
X162192686Y-84399500D01*
X162192683Y-84399502D01*
X162099502Y-84492683D01*
X162099500Y-84492686D01*
X162033608Y-84606812D01*
X161999500Y-84734108D01*
X161000500Y-84734108D01*
X160966392Y-84606814D01*
X160900500Y-84492686D01*
X160807314Y-84399500D01*
X160750250Y-84366554D01*
X160693187Y-84333608D01*
X160629539Y-84316554D01*
X160565892Y-84299500D01*
X160434108Y-84299500D01*
X160306812Y-84333608D01*
X160192686Y-84399500D01*
X160192683Y-84399502D01*
X160099502Y-84492683D01*
X160099500Y-84492686D01*
X160033608Y-84606812D01*
X159999500Y-84734108D01*
X159000500Y-84734108D01*
X158966392Y-84606814D01*
X158900500Y-84492686D01*
X158807314Y-84399500D01*
X158750250Y-84366554D01*
X158693187Y-84333608D01*
X158629539Y-84316554D01*
X158565892Y-84299500D01*
X158434108Y-84299500D01*
X158306812Y-84333608D01*
X158192686Y-84399500D01*
X158192683Y-84399502D01*
X158099502Y-84492683D01*
X158099500Y-84492686D01*
X158033608Y-84606812D01*
X157999500Y-84734108D01*
X157000500Y-84734108D01*
X156966392Y-84606814D01*
X156900500Y-84492686D01*
X156807314Y-84399500D01*
X156750250Y-84366554D01*
X156693187Y-84333608D01*
X156629539Y-84316554D01*
X156565892Y-84299500D01*
X156434108Y-84299500D01*
X156306812Y-84333608D01*
X156192686Y-84399500D01*
X156192683Y-84399502D01*
X156099502Y-84492683D01*
X156099500Y-84492686D01*
X156033608Y-84606812D01*
X155999500Y-84734108D01*
X155000500Y-84734108D01*
X154966392Y-84606814D01*
X154900500Y-84492686D01*
X154807314Y-84399500D01*
X154750250Y-84366554D01*
X154693187Y-84333608D01*
X154629539Y-84316554D01*
X154565892Y-84299500D01*
X154434108Y-84299500D01*
X154306812Y-84333608D01*
X154192686Y-84399500D01*
X154192683Y-84399502D01*
X154099502Y-84492683D01*
X154099500Y-84492686D01*
X154033608Y-84606812D01*
X153999500Y-84734108D01*
X153000500Y-84734108D01*
X152966392Y-84606814D01*
X152900500Y-84492686D01*
X152807314Y-84399500D01*
X152750250Y-84366554D01*
X152693187Y-84333608D01*
X152629539Y-84316554D01*
X152565892Y-84299500D01*
X152434108Y-84299500D01*
X152306812Y-84333608D01*
X152192686Y-84399500D01*
X152192683Y-84399502D01*
X152099502Y-84492683D01*
X152099500Y-84492686D01*
X152033608Y-84606812D01*
X151999500Y-84734108D01*
X151000500Y-84734108D01*
X150966392Y-84606814D01*
X150900500Y-84492686D01*
X150807314Y-84399500D01*
X150750250Y-84366554D01*
X150693187Y-84333608D01*
X150629539Y-84316554D01*
X150565892Y-84299500D01*
X150434108Y-84299500D01*
X150306812Y-84333608D01*
X150192686Y-84399500D01*
X150192683Y-84399502D01*
X150099502Y-84492683D01*
X150099500Y-84492686D01*
X150033608Y-84606812D01*
X149999500Y-84734108D01*
X141600000Y-84734108D01*
X141600000Y-82734108D01*
X149999500Y-82734108D01*
X149999500Y-82865891D01*
X150033608Y-82993187D01*
X150066554Y-83050250D01*
X150099500Y-83107314D01*
X150192686Y-83200500D01*
X150306814Y-83266392D01*
X150434108Y-83300500D01*
X150434110Y-83300500D01*
X150565890Y-83300500D01*
X150565892Y-83300500D01*
X150693186Y-83266392D01*
X150807314Y-83200500D01*
X150900500Y-83107314D01*
X150966392Y-82993186D01*
X151000500Y-82865892D01*
X151000500Y-82734108D01*
X151999500Y-82734108D01*
X151999500Y-82865891D01*
X152033608Y-82993187D01*
X152066554Y-83050250D01*
X152099500Y-83107314D01*
X152192686Y-83200500D01*
X152306814Y-83266392D01*
X152434108Y-83300500D01*
X152434110Y-83300500D01*
X152565890Y-83300500D01*
X152565892Y-83300500D01*
X152693186Y-83266392D01*
X152807314Y-83200500D01*
X152900500Y-83107314D01*
X152966392Y-82993186D01*
X153000500Y-82865892D01*
X153000500Y-82734108D01*
X153999500Y-82734108D01*
X153999500Y-82865891D01*
X154033608Y-82993187D01*
X154066554Y-83050250D01*
X154099500Y-83107314D01*
X154192686Y-83200500D01*
X154306814Y-83266392D01*
X154434108Y-83300500D01*
X154434110Y-83300500D01*
X154565890Y-83300500D01*
X154565892Y-83300500D01*
X154693186Y-83266392D01*
X154807314Y-83200500D01*
X154900500Y-83107314D01*
X154966392Y-82993186D01*
X155000500Y-82865892D01*
X155000500Y-82734108D01*
X155999500Y-82734108D01*
X155999500Y-82865891D01*
X156033608Y-82993187D01*
X156066554Y-83050250D01*
X156099500Y-83107314D01*
X156192686Y-83200500D01*
X156306814Y-83266392D01*
X156434108Y-83300500D01*
X156434110Y-83300500D01*
X156565890Y-83300500D01*
X156565892Y-83300500D01*
X156693186Y-83266392D01*
X156807314Y-83200500D01*
X156900500Y-83107314D01*
X156966392Y-82993186D01*
X157000500Y-82865892D01*
X157000500Y-82734108D01*
X157999500Y-82734108D01*
X157999500Y-82865891D01*
X158033608Y-82993187D01*
X158066554Y-83050250D01*
X158099500Y-83107314D01*
X158192686Y-83200500D01*
X158306814Y-83266392D01*
X158434108Y-83300500D01*
X158434110Y-83300500D01*
X158565890Y-83300500D01*
X158565892Y-83300500D01*
X158693186Y-83266392D01*
X158807314Y-83200500D01*
X158900500Y-83107314D01*
X158966392Y-82993186D01*
X159000500Y-82865892D01*
X159000500Y-82734108D01*
X159999500Y-82734108D01*
X159999500Y-82865891D01*
X160033608Y-82993187D01*
X160066554Y-83050250D01*
X160099500Y-83107314D01*
X160192686Y-83200500D01*
X160306814Y-83266392D01*
X160434108Y-83300500D01*
X160434110Y-83300500D01*
X160565890Y-83300500D01*
X160565892Y-83300500D01*
X160693186Y-83266392D01*
X160807314Y-83200500D01*
X160900500Y-83107314D01*
X160966392Y-82993186D01*
X161000500Y-82865892D01*
X161000500Y-82734108D01*
X161999500Y-82734108D01*
X161999500Y-82865891D01*
X162033608Y-82993187D01*
X162066554Y-83050250D01*
X162099500Y-83107314D01*
X162192686Y-83200500D01*
X162306814Y-83266392D01*
X162434108Y-83300500D01*
X162434110Y-83300500D01*
X162565890Y-83300500D01*
X162565892Y-83300500D01*
X162693186Y-83266392D01*
X162807314Y-83200500D01*
X162900500Y-83107314D01*
X162966392Y-82993186D01*
X163000500Y-82865892D01*
X163000500Y-82734108D01*
X162966392Y-82606814D01*
X162900500Y-82492686D01*
X162807314Y-82399500D01*
X162750250Y-82366554D01*
X162693187Y-82333608D01*
X162629539Y-82316554D01*
X162565892Y-82299500D01*
X162434108Y-82299500D01*
X162306812Y-82333608D01*
X162192686Y-82399500D01*
X162192683Y-82399502D01*
X162099502Y-82492683D01*
X162099500Y-82492686D01*
X162033608Y-82606812D01*
X161999500Y-82734108D01*
X161000500Y-82734108D01*
X160966392Y-82606814D01*
X160900500Y-82492686D01*
X160807314Y-82399500D01*
X160750250Y-82366554D01*
X160693187Y-82333608D01*
X160629539Y-82316554D01*
X160565892Y-82299500D01*
X160434108Y-82299500D01*
X160306812Y-82333608D01*
X160192686Y-82399500D01*
X160192683Y-82399502D01*
X160099502Y-82492683D01*
X160099500Y-82492686D01*
X160033608Y-82606812D01*
X159999500Y-82734108D01*
X159000500Y-82734108D01*
X158966392Y-82606814D01*
X158900500Y-82492686D01*
X158807314Y-82399500D01*
X158750250Y-82366554D01*
X158693187Y-82333608D01*
X158629539Y-82316554D01*
X158565892Y-82299500D01*
X158434108Y-82299500D01*
X158306812Y-82333608D01*
X158192686Y-82399500D01*
X158192683Y-82399502D01*
X158099502Y-82492683D01*
X158099500Y-82492686D01*
X158033608Y-82606812D01*
X157999500Y-82734108D01*
X157000500Y-82734108D01*
X156966392Y-82606814D01*
X156900500Y-82492686D01*
X156807314Y-82399500D01*
X156750250Y-82366554D01*
X156693187Y-82333608D01*
X156629539Y-82316554D01*
X156565892Y-82299500D01*
X156434108Y-82299500D01*
X156306812Y-82333608D01*
X156192686Y-82399500D01*
X156192683Y-82399502D01*
X156099502Y-82492683D01*
X156099500Y-82492686D01*
X156033608Y-82606812D01*
X155999500Y-82734108D01*
X155000500Y-82734108D01*
X154966392Y-82606814D01*
X154900500Y-82492686D01*
X154807314Y-82399500D01*
X154750250Y-82366554D01*
X154693187Y-82333608D01*
X154629539Y-82316554D01*
X154565892Y-82299500D01*
X154434108Y-82299500D01*
X154306812Y-82333608D01*
X154192686Y-82399500D01*
X154192683Y-82399502D01*
X154099502Y-82492683D01*
X154099500Y-82492686D01*
X154033608Y-82606812D01*
X153999500Y-82734108D01*
X153000500Y-82734108D01*
X152966392Y-82606814D01*
X152900500Y-82492686D01*
X152807314Y-82399500D01*
X152750250Y-82366554D01*
X152693187Y-82333608D01*
X152629539Y-82316554D01*
X152565892Y-82299500D01*
X152434108Y-82299500D01*
X152306812Y-82333608D01*
X152192686Y-82399500D01*
X152192683Y-82399502D01*
X152099502Y-82492683D01*
X152099500Y-82492686D01*
X152033608Y-82606812D01*
X151999500Y-82734108D01*
X151000500Y-82734108D01*
X150966392Y-82606814D01*
X150900500Y-82492686D01*
X150807314Y-82399500D01*
X150750250Y-82366554D01*
X150693187Y-82333608D01*
X150629539Y-82316554D01*
X150565892Y-82299500D01*
X150434108Y-82299500D01*
X150306812Y-82333608D01*
X150192686Y-82399500D01*
X150192683Y-82399502D01*
X150099502Y-82492683D01*
X150099500Y-82492686D01*
X150033608Y-82606812D01*
X149999500Y-82734108D01*
X141600000Y-82734108D01*
X141600000Y-80734108D01*
X149999500Y-80734108D01*
X149999500Y-80865891D01*
X150033608Y-80993187D01*
X150066554Y-81050250D01*
X150099500Y-81107314D01*
X150192686Y-81200500D01*
X150306814Y-81266392D01*
X150434108Y-81300500D01*
X150434110Y-81300500D01*
X150565890Y-81300500D01*
X150565892Y-81300500D01*
X150693186Y-81266392D01*
X150807314Y-81200500D01*
X150900500Y-81107314D01*
X150966392Y-80993186D01*
X151000500Y-80865892D01*
X151000500Y-80734108D01*
X151999500Y-80734108D01*
X151999500Y-80865891D01*
X152033608Y-80993187D01*
X152066554Y-81050250D01*
X152099500Y-81107314D01*
X152192686Y-81200500D01*
X152306814Y-81266392D01*
X152434108Y-81300500D01*
X152434110Y-81300500D01*
X152565890Y-81300500D01*
X152565892Y-81300500D01*
X152693186Y-81266392D01*
X152807314Y-81200500D01*
X152900500Y-81107314D01*
X152966392Y-80993186D01*
X153000500Y-80865892D01*
X153000500Y-80734108D01*
X153999500Y-80734108D01*
X153999500Y-80865891D01*
X154033608Y-80993187D01*
X154066554Y-81050250D01*
X154099500Y-81107314D01*
X154192686Y-81200500D01*
X154306814Y-81266392D01*
X154434108Y-81300500D01*
X154434110Y-81300500D01*
X154565890Y-81300500D01*
X154565892Y-81300500D01*
X154693186Y-81266392D01*
X154807314Y-81200500D01*
X154900500Y-81107314D01*
X154966392Y-80993186D01*
X155000500Y-80865892D01*
X155000500Y-80734108D01*
X155999500Y-80734108D01*
X155999500Y-80865891D01*
X156033608Y-80993187D01*
X156066554Y-81050250D01*
X156099500Y-81107314D01*
X156192686Y-81200500D01*
X156306814Y-81266392D01*
X156434108Y-81300500D01*
X156434110Y-81300500D01*
X156565890Y-81300500D01*
X156565892Y-81300500D01*
X156693186Y-81266392D01*
X156807314Y-81200500D01*
X156900500Y-81107314D01*
X156966392Y-80993186D01*
X157000500Y-80865892D01*
X157000500Y-80734108D01*
X157999500Y-80734108D01*
X157999500Y-80865891D01*
X158033608Y-80993187D01*
X158066554Y-81050250D01*
X158099500Y-81107314D01*
X158192686Y-81200500D01*
X158306814Y-81266392D01*
X158434108Y-81300500D01*
X158434110Y-81300500D01*
X158565890Y-81300500D01*
X158565892Y-81300500D01*
X158693186Y-81266392D01*
X158807314Y-81200500D01*
X158900500Y-81107314D01*
X158966392Y-80993186D01*
X159000500Y-80865892D01*
X159000500Y-80734108D01*
X159999500Y-80734108D01*
X159999500Y-80865891D01*
X160033608Y-80993187D01*
X160066554Y-81050250D01*
X160099500Y-81107314D01*
X160192686Y-81200500D01*
X160306814Y-81266392D01*
X160434108Y-81300500D01*
X160434110Y-81300500D01*
X160565890Y-81300500D01*
X160565892Y-81300500D01*
X160693186Y-81266392D01*
X160807314Y-81200500D01*
X160900500Y-81107314D01*
X160966392Y-80993186D01*
X161000500Y-80865892D01*
X161000500Y-80734108D01*
X161999500Y-80734108D01*
X161999500Y-80865891D01*
X162033608Y-80993187D01*
X162066554Y-81050250D01*
X162099500Y-81107314D01*
X162192686Y-81200500D01*
X162306814Y-81266392D01*
X162434108Y-81300500D01*
X162434110Y-81300500D01*
X162565890Y-81300500D01*
X162565892Y-81300500D01*
X162693186Y-81266392D01*
X162807314Y-81200500D01*
X162900500Y-81107314D01*
X162966392Y-80993186D01*
X163000500Y-80865892D01*
X163000500Y-80734108D01*
X162966392Y-80606814D01*
X162900500Y-80492686D01*
X162807314Y-80399500D01*
X162750250Y-80366554D01*
X162693187Y-80333608D01*
X162629539Y-80316554D01*
X162565892Y-80299500D01*
X162434108Y-80299500D01*
X162306812Y-80333608D01*
X162192686Y-80399500D01*
X162192683Y-80399502D01*
X162099502Y-80492683D01*
X162099500Y-80492686D01*
X162033608Y-80606812D01*
X161999500Y-80734108D01*
X161000500Y-80734108D01*
X160966392Y-80606814D01*
X160900500Y-80492686D01*
X160807314Y-80399500D01*
X160750250Y-80366554D01*
X160693187Y-80333608D01*
X160629539Y-80316554D01*
X160565892Y-80299500D01*
X160434108Y-80299500D01*
X160306812Y-80333608D01*
X160192686Y-80399500D01*
X160192683Y-80399502D01*
X160099502Y-80492683D01*
X160099500Y-80492686D01*
X160033608Y-80606812D01*
X159999500Y-80734108D01*
X159000500Y-80734108D01*
X158966392Y-80606814D01*
X158900500Y-80492686D01*
X158807314Y-80399500D01*
X158750250Y-80366554D01*
X158693187Y-80333608D01*
X158629539Y-80316554D01*
X158565892Y-80299500D01*
X158434108Y-80299500D01*
X158306812Y-80333608D01*
X158192686Y-80399500D01*
X158192683Y-80399502D01*
X158099502Y-80492683D01*
X158099500Y-80492686D01*
X158033608Y-80606812D01*
X157999500Y-80734108D01*
X157000500Y-80734108D01*
X156966392Y-80606814D01*
X156900500Y-80492686D01*
X156807314Y-80399500D01*
X156750250Y-80366554D01*
X156693187Y-80333608D01*
X156629539Y-80316554D01*
X156565892Y-80299500D01*
X156434108Y-80299500D01*
X156306812Y-80333608D01*
X156192686Y-80399500D01*
X156192683Y-80399502D01*
X156099502Y-80492683D01*
X156099500Y-80492686D01*
X156033608Y-80606812D01*
X155999500Y-80734108D01*
X155000500Y-80734108D01*
X154966392Y-80606814D01*
X154900500Y-80492686D01*
X154807314Y-80399500D01*
X154750250Y-80366554D01*
X154693187Y-80333608D01*
X154629539Y-80316554D01*
X154565892Y-80299500D01*
X154434108Y-80299500D01*
X154306812Y-80333608D01*
X154192686Y-80399500D01*
X154192683Y-80399502D01*
X154099502Y-80492683D01*
X154099500Y-80492686D01*
X154033608Y-80606812D01*
X153999500Y-80734108D01*
X153000500Y-80734108D01*
X152966392Y-80606814D01*
X152900500Y-80492686D01*
X152807314Y-80399500D01*
X152750250Y-80366554D01*
X152693187Y-80333608D01*
X152629539Y-80316554D01*
X152565892Y-80299500D01*
X152434108Y-80299500D01*
X152306812Y-80333608D01*
X152192686Y-80399500D01*
X152192683Y-80399502D01*
X152099502Y-80492683D01*
X152099500Y-80492686D01*
X152033608Y-80606812D01*
X151999500Y-80734108D01*
X151000500Y-80734108D01*
X150966392Y-80606814D01*
X150900500Y-80492686D01*
X150807314Y-80399500D01*
X150750250Y-80366554D01*
X150693187Y-80333608D01*
X150629539Y-80316554D01*
X150565892Y-80299500D01*
X150434108Y-80299500D01*
X150306812Y-80333608D01*
X150192686Y-80399500D01*
X150192683Y-80399502D01*
X150099502Y-80492683D01*
X150099500Y-80492686D01*
X150033608Y-80606812D01*
X149999500Y-80734108D01*
X141600000Y-80734108D01*
X141600000Y-78734108D01*
X149999500Y-78734108D01*
X149999500Y-78865891D01*
X150033608Y-78993187D01*
X150066554Y-79050250D01*
X150099500Y-79107314D01*
X150192686Y-79200500D01*
X150306814Y-79266392D01*
X150434108Y-79300500D01*
X150434110Y-79300500D01*
X150565890Y-79300500D01*
X150565892Y-79300500D01*
X150693186Y-79266392D01*
X150807314Y-79200500D01*
X150900500Y-79107314D01*
X150966392Y-78993186D01*
X151000500Y-78865892D01*
X151000500Y-78734108D01*
X151999500Y-78734108D01*
X151999500Y-78865891D01*
X152033608Y-78993187D01*
X152066554Y-79050250D01*
X152099500Y-79107314D01*
X152192686Y-79200500D01*
X152306814Y-79266392D01*
X152434108Y-79300500D01*
X152434110Y-79300500D01*
X152565890Y-79300500D01*
X152565892Y-79300500D01*
X152693186Y-79266392D01*
X152807314Y-79200500D01*
X152900500Y-79107314D01*
X152966392Y-78993186D01*
X153000500Y-78865892D01*
X153000500Y-78734108D01*
X153999500Y-78734108D01*
X153999500Y-78865891D01*
X154033608Y-78993187D01*
X154066554Y-79050250D01*
X154099500Y-79107314D01*
X154192686Y-79200500D01*
X154306814Y-79266392D01*
X154434108Y-79300500D01*
X154434110Y-79300500D01*
X154565890Y-79300500D01*
X154565892Y-79300500D01*
X154693186Y-79266392D01*
X154807314Y-79200500D01*
X154900500Y-79107314D01*
X154966392Y-78993186D01*
X155000500Y-78865892D01*
X155000500Y-78734108D01*
X154966392Y-78606814D01*
X154900500Y-78492686D01*
X154807314Y-78399500D01*
X154750250Y-78366554D01*
X154693187Y-78333608D01*
X154629539Y-78316554D01*
X154565892Y-78299500D01*
X154434108Y-78299500D01*
X154306812Y-78333608D01*
X154192686Y-78399500D01*
X154192683Y-78399502D01*
X154099502Y-78492683D01*
X154099500Y-78492686D01*
X154033608Y-78606812D01*
X153999500Y-78734108D01*
X153000500Y-78734108D01*
X152966392Y-78606814D01*
X152900500Y-78492686D01*
X152807314Y-78399500D01*
X152750250Y-78366554D01*
X152693187Y-78333608D01*
X152629539Y-78316554D01*
X152565892Y-78299500D01*
X152434108Y-78299500D01*
X152306812Y-78333608D01*
X152192686Y-78399500D01*
X152192683Y-78399502D01*
X152099502Y-78492683D01*
X152099500Y-78492686D01*
X152033608Y-78606812D01*
X151999500Y-78734108D01*
X151000500Y-78734108D01*
X150966392Y-78606814D01*
X150900500Y-78492686D01*
X150807314Y-78399500D01*
X150750250Y-78366554D01*
X150693187Y-78333608D01*
X150629539Y-78316554D01*
X150565892Y-78299500D01*
X150434108Y-78299500D01*
X150306812Y-78333608D01*
X150192686Y-78399500D01*
X150192683Y-78399502D01*
X150099502Y-78492683D01*
X150099500Y-78492686D01*
X150033608Y-78606812D01*
X149999500Y-78734108D01*
X141600000Y-78734108D01*
X141600000Y-76734108D01*
X149999500Y-76734108D01*
X149999500Y-76865891D01*
X150033608Y-76993187D01*
X150066554Y-77050250D01*
X150099500Y-77107314D01*
X150192686Y-77200500D01*
X150306814Y-77266392D01*
X150434108Y-77300500D01*
X150434110Y-77300500D01*
X150565890Y-77300500D01*
X150565892Y-77300500D01*
X150693186Y-77266392D01*
X150807314Y-77200500D01*
X150900500Y-77107314D01*
X150966392Y-76993186D01*
X151000500Y-76865892D01*
X151000500Y-76734108D01*
X151999500Y-76734108D01*
X151999500Y-76865891D01*
X152033608Y-76993187D01*
X152066554Y-77050250D01*
X152099500Y-77107314D01*
X152192686Y-77200500D01*
X152306814Y-77266392D01*
X152434108Y-77300500D01*
X152434110Y-77300500D01*
X152565890Y-77300500D01*
X152565892Y-77300500D01*
X152693186Y-77266392D01*
X152807314Y-77200500D01*
X152900500Y-77107314D01*
X152966392Y-76993186D01*
X153000500Y-76865892D01*
X153000500Y-76734108D01*
X153999500Y-76734108D01*
X153999500Y-76865891D01*
X154033608Y-76993187D01*
X154066554Y-77050250D01*
X154099500Y-77107314D01*
X154192686Y-77200500D01*
X154306814Y-77266392D01*
X154434108Y-77300500D01*
X154434110Y-77300500D01*
X154565890Y-77300500D01*
X154565892Y-77300500D01*
X154693186Y-77266392D01*
X154807314Y-77200500D01*
X154900500Y-77107314D01*
X154966392Y-76993186D01*
X155000500Y-76865892D01*
X155000500Y-76734108D01*
X154966392Y-76606814D01*
X154900500Y-76492686D01*
X154807314Y-76399500D01*
X154807312Y-76399499D01*
X154807310Y-76399497D01*
X154693188Y-76333609D01*
X154693187Y-76333608D01*
X154693186Y-76333608D01*
X154565892Y-76299500D01*
X154434108Y-76299500D01*
X154306812Y-76333608D01*
X154192686Y-76399500D01*
X154192683Y-76399502D01*
X154099502Y-76492683D01*
X154099500Y-76492686D01*
X154033608Y-76606812D01*
X153999500Y-76734108D01*
X153000500Y-76734108D01*
X152966392Y-76606814D01*
X152900500Y-76492686D01*
X152807314Y-76399500D01*
X152750250Y-76366554D01*
X152693187Y-76333608D01*
X152629539Y-76316554D01*
X152565892Y-76299500D01*
X152434108Y-76299500D01*
X152306812Y-76333608D01*
X152192686Y-76399500D01*
X152192683Y-76399502D01*
X152099502Y-76492683D01*
X152099500Y-76492686D01*
X152033608Y-76606812D01*
X151999500Y-76734108D01*
X151000500Y-76734108D01*
X150966392Y-76606814D01*
X150900500Y-76492686D01*
X150807314Y-76399500D01*
X150750250Y-76366554D01*
X150693187Y-76333608D01*
X150629539Y-76316554D01*
X150565892Y-76299500D01*
X150434108Y-76299500D01*
X150306812Y-76333608D01*
X150192686Y-76399500D01*
X150192683Y-76399502D01*
X150099502Y-76492683D01*
X150099500Y-76492686D01*
X150033608Y-76606812D01*
X149999500Y-76734108D01*
X141600000Y-76734108D01*
X141600000Y-76228681D01*
X156949500Y-76228681D01*
X156949500Y-76571318D01*
X156987858Y-76911768D01*
X156987861Y-76911782D01*
X157064102Y-77245816D01*
X157064103Y-77245818D01*
X157177264Y-77569216D01*
X157325922Y-77877907D01*
X157325924Y-77877910D01*
X157508211Y-78168018D01*
X157640265Y-78333608D01*
X157692811Y-78399500D01*
X157721834Y-78435893D01*
X157964107Y-78678166D01*
X158231982Y-78891789D01*
X158522090Y-79074076D01*
X158830785Y-79222736D01*
X159154183Y-79335897D01*
X159488217Y-79412139D01*
X159488226Y-79412140D01*
X159488231Y-79412141D01*
X159715197Y-79437713D01*
X159828682Y-79450499D01*
X159828685Y-79450500D01*
X159828688Y-79450500D01*
X160171315Y-79450500D01*
X160171316Y-79450499D01*
X160345311Y-79430895D01*
X160511768Y-79412141D01*
X160511771Y-79412140D01*
X160511783Y-79412139D01*
X160845817Y-79335897D01*
X161169215Y-79222736D01*
X161477910Y-79074076D01*
X161768018Y-78891789D01*
X162035893Y-78678166D01*
X162278166Y-78435893D01*
X162491789Y-78168018D01*
X162674076Y-77877910D01*
X162822736Y-77569215D01*
X162935897Y-77245817D01*
X163012139Y-76911783D01*
X163050500Y-76571312D01*
X163050500Y-76228688D01*
X163012139Y-75888217D01*
X162935897Y-75554183D01*
X162822736Y-75230785D01*
X162674076Y-74922090D01*
X162491789Y-74631982D01*
X162278166Y-74364107D01*
X162035893Y-74121834D01*
X161768018Y-73908211D01*
X161477910Y-73725924D01*
X161477907Y-73725922D01*
X161169216Y-73577264D01*
X160845818Y-73464103D01*
X160845816Y-73464102D01*
X160588024Y-73405262D01*
X160511783Y-73387861D01*
X160511780Y-73387860D01*
X160511768Y-73387858D01*
X160171318Y-73349500D01*
X160171312Y-73349500D01*
X159828688Y-73349500D01*
X159828681Y-73349500D01*
X159488231Y-73387858D01*
X159488217Y-73387861D01*
X159154183Y-73464102D01*
X159154181Y-73464103D01*
X158830783Y-73577264D01*
X158522092Y-73725922D01*
X158231983Y-73908210D01*
X157964107Y-74121833D01*
X157721833Y-74364107D01*
X157508210Y-74631983D01*
X157325922Y-74922092D01*
X157177264Y-75230783D01*
X157064103Y-75554181D01*
X157064102Y-75554183D01*
X156987861Y-75888217D01*
X156987858Y-75888231D01*
X156949500Y-76228681D01*
X141600000Y-76228681D01*
X141600000Y-74734108D01*
X141999500Y-74734108D01*
X141999500Y-74865891D01*
X142033608Y-74993187D01*
X142066554Y-75050250D01*
X142099500Y-75107314D01*
X142192686Y-75200500D01*
X142306814Y-75266392D01*
X142434108Y-75300500D01*
X142434110Y-75300500D01*
X142565890Y-75300500D01*
X142565892Y-75300500D01*
X142693186Y-75266392D01*
X142807314Y-75200500D01*
X142900500Y-75107314D01*
X142966392Y-74993186D01*
X143000500Y-74865892D01*
X143000500Y-74734108D01*
X143999500Y-74734108D01*
X143999500Y-74865891D01*
X144033608Y-74993187D01*
X144066554Y-75050250D01*
X144099500Y-75107314D01*
X144192686Y-75200500D01*
X144306814Y-75266392D01*
X144434108Y-75300500D01*
X144434110Y-75300500D01*
X144565890Y-75300500D01*
X144565892Y-75300500D01*
X144693186Y-75266392D01*
X144807314Y-75200500D01*
X144900500Y-75107314D01*
X144966392Y-74993186D01*
X145000500Y-74865892D01*
X145000500Y-74734108D01*
X145999500Y-74734108D01*
X145999500Y-74865891D01*
X146033608Y-74993187D01*
X146066554Y-75050250D01*
X146099500Y-75107314D01*
X146192686Y-75200500D01*
X146306814Y-75266392D01*
X146434108Y-75300500D01*
X146434110Y-75300500D01*
X146565890Y-75300500D01*
X146565892Y-75300500D01*
X146693186Y-75266392D01*
X146807314Y-75200500D01*
X146900500Y-75107314D01*
X146966392Y-74993186D01*
X147000500Y-74865892D01*
X147000500Y-74734108D01*
X147999500Y-74734108D01*
X147999500Y-74865891D01*
X148033608Y-74993187D01*
X148066554Y-75050250D01*
X148099500Y-75107314D01*
X148192686Y-75200500D01*
X148306814Y-75266392D01*
X148434108Y-75300500D01*
X148434110Y-75300500D01*
X148565890Y-75300500D01*
X148565892Y-75300500D01*
X148693186Y-75266392D01*
X148807314Y-75200500D01*
X148900500Y-75107314D01*
X148966392Y-74993186D01*
X149000500Y-74865892D01*
X149000500Y-74734108D01*
X149999500Y-74734108D01*
X149999500Y-74865891D01*
X150033608Y-74993187D01*
X150066554Y-75050250D01*
X150099500Y-75107314D01*
X150192686Y-75200500D01*
X150306814Y-75266392D01*
X150434108Y-75300500D01*
X150434110Y-75300500D01*
X150565890Y-75300500D01*
X150565892Y-75300500D01*
X150693186Y-75266392D01*
X150807314Y-75200500D01*
X150900500Y-75107314D01*
X150966392Y-74993186D01*
X151000500Y-74865892D01*
X151000500Y-74734108D01*
X151999500Y-74734108D01*
X151999500Y-74865891D01*
X152033608Y-74993187D01*
X152066554Y-75050250D01*
X152099500Y-75107314D01*
X152192686Y-75200500D01*
X152306814Y-75266392D01*
X152434108Y-75300500D01*
X152434110Y-75300500D01*
X152565890Y-75300500D01*
X152565892Y-75300500D01*
X152693186Y-75266392D01*
X152807314Y-75200500D01*
X152900500Y-75107314D01*
X152966392Y-74993186D01*
X153000500Y-74865892D01*
X153000500Y-74734108D01*
X152966392Y-74606814D01*
X152900500Y-74492686D01*
X152807314Y-74399500D01*
X152746012Y-74364107D01*
X152693187Y-74333608D01*
X152629539Y-74316554D01*
X152565892Y-74299500D01*
X152434108Y-74299500D01*
X152306812Y-74333608D01*
X152192686Y-74399500D01*
X152192683Y-74399502D01*
X152099502Y-74492683D01*
X152099500Y-74492686D01*
X152033608Y-74606812D01*
X151999500Y-74734108D01*
X151000500Y-74734108D01*
X150966392Y-74606814D01*
X150900500Y-74492686D01*
X150807314Y-74399500D01*
X150746012Y-74364107D01*
X150693187Y-74333608D01*
X150629539Y-74316554D01*
X150565892Y-74299500D01*
X150434108Y-74299500D01*
X150306812Y-74333608D01*
X150192686Y-74399500D01*
X150192683Y-74399502D01*
X150099502Y-74492683D01*
X150099500Y-74492686D01*
X150033608Y-74606812D01*
X149999500Y-74734108D01*
X149000500Y-74734108D01*
X148966392Y-74606814D01*
X148900500Y-74492686D01*
X148807314Y-74399500D01*
X148746012Y-74364107D01*
X148693187Y-74333608D01*
X148629539Y-74316554D01*
X148565892Y-74299500D01*
X148434108Y-74299500D01*
X148306812Y-74333608D01*
X148192686Y-74399500D01*
X148192683Y-74399502D01*
X148099502Y-74492683D01*
X148099500Y-74492686D01*
X148033608Y-74606812D01*
X147999500Y-74734108D01*
X147000500Y-74734108D01*
X146966392Y-74606814D01*
X146900500Y-74492686D01*
X146807314Y-74399500D01*
X146746012Y-74364107D01*
X146693187Y-74333608D01*
X146629539Y-74316554D01*
X146565892Y-74299500D01*
X146434108Y-74299500D01*
X146306812Y-74333608D01*
X146192686Y-74399500D01*
X146192683Y-74399502D01*
X146099502Y-74492683D01*
X146099500Y-74492686D01*
X146033608Y-74606812D01*
X145999500Y-74734108D01*
X145000500Y-74734108D01*
X144966392Y-74606814D01*
X144900500Y-74492686D01*
X144807314Y-74399500D01*
X144746012Y-74364107D01*
X144693187Y-74333608D01*
X144629539Y-74316554D01*
X144565892Y-74299500D01*
X144434108Y-74299500D01*
X144306812Y-74333608D01*
X144192686Y-74399500D01*
X144192683Y-74399502D01*
X144099502Y-74492683D01*
X144099500Y-74492686D01*
X144033608Y-74606812D01*
X143999500Y-74734108D01*
X143000500Y-74734108D01*
X142966392Y-74606814D01*
X142900500Y-74492686D01*
X142807314Y-74399500D01*
X142746012Y-74364107D01*
X142693187Y-74333608D01*
X142629539Y-74316554D01*
X142565892Y-74299500D01*
X142434108Y-74299500D01*
X142306812Y-74333608D01*
X142192686Y-74399500D01*
X142192683Y-74399502D01*
X142099502Y-74492683D01*
X142099500Y-74492686D01*
X142033608Y-74606812D01*
X141999500Y-74734108D01*
X141600000Y-74734108D01*
X141600000Y-72734108D01*
X141999500Y-72734108D01*
X141999500Y-72865891D01*
X142033608Y-72993187D01*
X142066554Y-73050250D01*
X142099500Y-73107314D01*
X142192686Y-73200500D01*
X142306814Y-73266392D01*
X142434108Y-73300500D01*
X142434110Y-73300500D01*
X142565890Y-73300500D01*
X142565892Y-73300500D01*
X142693186Y-73266392D01*
X142807314Y-73200500D01*
X142900500Y-73107314D01*
X142966392Y-72993186D01*
X143000500Y-72865892D01*
X143000500Y-72734108D01*
X143999500Y-72734108D01*
X143999500Y-72865891D01*
X144033608Y-72993187D01*
X144066554Y-73050250D01*
X144099500Y-73107314D01*
X144192686Y-73200500D01*
X144306814Y-73266392D01*
X144434108Y-73300500D01*
X144434110Y-73300500D01*
X144565890Y-73300500D01*
X144565892Y-73300500D01*
X144693186Y-73266392D01*
X144807314Y-73200500D01*
X144900500Y-73107314D01*
X144966392Y-72993186D01*
X145000500Y-72865892D01*
X145000500Y-72734108D01*
X145999500Y-72734108D01*
X145999500Y-72865891D01*
X146033608Y-72993187D01*
X146066554Y-73050250D01*
X146099500Y-73107314D01*
X146192686Y-73200500D01*
X146306814Y-73266392D01*
X146434108Y-73300500D01*
X146434110Y-73300500D01*
X146565890Y-73300500D01*
X146565892Y-73300500D01*
X146693186Y-73266392D01*
X146807314Y-73200500D01*
X146900500Y-73107314D01*
X146966392Y-72993186D01*
X147000500Y-72865892D01*
X147000500Y-72734108D01*
X147999500Y-72734108D01*
X147999500Y-72865891D01*
X148033608Y-72993187D01*
X148066554Y-73050250D01*
X148099500Y-73107314D01*
X148192686Y-73200500D01*
X148306814Y-73266392D01*
X148434108Y-73300500D01*
X148434110Y-73300500D01*
X148565890Y-73300500D01*
X148565892Y-73300500D01*
X148693186Y-73266392D01*
X148807314Y-73200500D01*
X148900500Y-73107314D01*
X148966392Y-72993186D01*
X149000500Y-72865892D01*
X149000500Y-72734108D01*
X149999500Y-72734108D01*
X149999500Y-72865891D01*
X150033608Y-72993187D01*
X150066554Y-73050250D01*
X150099500Y-73107314D01*
X150192686Y-73200500D01*
X150306814Y-73266392D01*
X150434108Y-73300500D01*
X150434110Y-73300500D01*
X150565890Y-73300500D01*
X150565892Y-73300500D01*
X150693186Y-73266392D01*
X150807314Y-73200500D01*
X150900500Y-73107314D01*
X150966392Y-72993186D01*
X151000500Y-72865892D01*
X151000500Y-72734108D01*
X151999500Y-72734108D01*
X151999500Y-72865891D01*
X152033608Y-72993187D01*
X152066554Y-73050250D01*
X152099500Y-73107314D01*
X152192686Y-73200500D01*
X152306814Y-73266392D01*
X152434108Y-73300500D01*
X152434110Y-73300500D01*
X152565890Y-73300500D01*
X152565892Y-73300500D01*
X152693186Y-73266392D01*
X152807314Y-73200500D01*
X152900500Y-73107314D01*
X152966392Y-72993186D01*
X153000500Y-72865892D01*
X153000500Y-72734108D01*
X153999500Y-72734108D01*
X153999500Y-72865891D01*
X154033608Y-72993187D01*
X154066554Y-73050250D01*
X154099500Y-73107314D01*
X154192686Y-73200500D01*
X154306814Y-73266392D01*
X154434108Y-73300500D01*
X154434110Y-73300500D01*
X154565890Y-73300500D01*
X154565892Y-73300500D01*
X154693186Y-73266392D01*
X154807314Y-73200500D01*
X154900500Y-73107314D01*
X154966392Y-72993186D01*
X155000500Y-72865892D01*
X155000500Y-72734108D01*
X154966392Y-72606814D01*
X154900500Y-72492686D01*
X154807314Y-72399500D01*
X154750250Y-72366554D01*
X154693187Y-72333608D01*
X154629539Y-72316554D01*
X154565892Y-72299500D01*
X154434108Y-72299500D01*
X154306812Y-72333608D01*
X154192686Y-72399500D01*
X154192683Y-72399502D01*
X154099502Y-72492683D01*
X154099500Y-72492686D01*
X154033608Y-72606812D01*
X153999500Y-72734108D01*
X153000500Y-72734108D01*
X152966392Y-72606814D01*
X152900500Y-72492686D01*
X152807314Y-72399500D01*
X152750250Y-72366554D01*
X152693187Y-72333608D01*
X152629539Y-72316554D01*
X152565892Y-72299500D01*
X152434108Y-72299500D01*
X152306812Y-72333608D01*
X152192686Y-72399500D01*
X152192683Y-72399502D01*
X152099502Y-72492683D01*
X152099500Y-72492686D01*
X152033608Y-72606812D01*
X151999500Y-72734108D01*
X151000500Y-72734108D01*
X150966392Y-72606814D01*
X150900500Y-72492686D01*
X150807314Y-72399500D01*
X150750250Y-72366554D01*
X150693187Y-72333608D01*
X150629539Y-72316554D01*
X150565892Y-72299500D01*
X150434108Y-72299500D01*
X150306812Y-72333608D01*
X150192686Y-72399500D01*
X150192683Y-72399502D01*
X150099502Y-72492683D01*
X150099500Y-72492686D01*
X150033608Y-72606812D01*
X149999500Y-72734108D01*
X149000500Y-72734108D01*
X148966392Y-72606814D01*
X148900500Y-72492686D01*
X148807314Y-72399500D01*
X148750250Y-72366554D01*
X148693187Y-72333608D01*
X148629539Y-72316554D01*
X148565892Y-72299500D01*
X148434108Y-72299500D01*
X148306812Y-72333608D01*
X148192686Y-72399500D01*
X148192683Y-72399502D01*
X148099502Y-72492683D01*
X148099500Y-72492686D01*
X148033608Y-72606812D01*
X147999500Y-72734108D01*
X147000500Y-72734108D01*
X146966392Y-72606814D01*
X146900500Y-72492686D01*
X146807314Y-72399500D01*
X146750250Y-72366554D01*
X146693187Y-72333608D01*
X146629539Y-72316554D01*
X146565892Y-72299500D01*
X146434108Y-72299500D01*
X146306812Y-72333608D01*
X146192686Y-72399500D01*
X146192683Y-72399502D01*
X146099502Y-72492683D01*
X146099500Y-72492686D01*
X146033608Y-72606812D01*
X145999500Y-72734108D01*
X145000500Y-72734108D01*
X144966392Y-72606814D01*
X144900500Y-72492686D01*
X144807314Y-72399500D01*
X144750250Y-72366554D01*
X144693187Y-72333608D01*
X144629539Y-72316554D01*
X144565892Y-72299500D01*
X144434108Y-72299500D01*
X144306812Y-72333608D01*
X144192686Y-72399500D01*
X144192683Y-72399502D01*
X144099502Y-72492683D01*
X144099500Y-72492686D01*
X144033608Y-72606812D01*
X143999500Y-72734108D01*
X143000500Y-72734108D01*
X142966392Y-72606814D01*
X142900500Y-72492686D01*
X142807314Y-72399500D01*
X142750250Y-72366554D01*
X142693187Y-72333608D01*
X142629539Y-72316554D01*
X142565892Y-72299500D01*
X142434108Y-72299500D01*
X142306812Y-72333608D01*
X142192686Y-72399500D01*
X142192683Y-72399502D01*
X142099502Y-72492683D01*
X142099500Y-72492686D01*
X142033608Y-72606812D01*
X141999500Y-72734108D01*
X141600000Y-72734108D01*
X141600000Y-72044500D01*
X141619685Y-71977461D01*
X141672489Y-71931706D01*
X141724000Y-71920500D01*
X164295500Y-71920500D01*
X164362539Y-71940185D01*
G37*
G04 #@! TD.AperFunction*
G04 #@! TA.AperFunction,Conductor*
G36*
X141092539Y-95670185D02*
G01*
X141138294Y-95722989D01*
X141149500Y-95774500D01*
X141149500Y-96046145D01*
X141167004Y-96111472D01*
X141173385Y-96135285D01*
X141173387Y-96135290D01*
X141219527Y-96215208D01*
X141219531Y-96215213D01*
X141366867Y-96362549D01*
X141400352Y-96423872D01*
X141395368Y-96493564D01*
X141389061Y-96507705D01*
X141374536Y-96535472D01*
X141374533Y-96535477D01*
X141354851Y-96602509D01*
X141354848Y-96602521D01*
X141344500Y-96674498D01*
X141344500Y-97186707D01*
X141345384Y-97207944D01*
X141347102Y-97228518D01*
X141354827Y-97256674D01*
X141353580Y-97326533D01*
X141314762Y-97384627D01*
X141297251Y-97396864D01*
X141292686Y-97399499D01*
X141199500Y-97492686D01*
X141133608Y-97606812D01*
X141099500Y-97734108D01*
X141099500Y-97865891D01*
X141133608Y-97993187D01*
X141166554Y-98050250D01*
X141199500Y-98107314D01*
X141292686Y-98200500D01*
X141296741Y-98202841D01*
X141344958Y-98253407D01*
X141358182Y-98322014D01*
X141355320Y-98336890D01*
X141355791Y-98336993D01*
X141354848Y-98341324D01*
X141344500Y-98413301D01*
X141344500Y-107523900D01*
X141324815Y-107590939D01*
X141272011Y-107636694D01*
X141220500Y-107647900D01*
X136279500Y-107647900D01*
X136212461Y-107628215D01*
X136166706Y-107575411D01*
X136155500Y-107523900D01*
X136155500Y-95774500D01*
X136175185Y-95707461D01*
X136227989Y-95661706D01*
X136279500Y-95650500D01*
X141025500Y-95650500D01*
X141092539Y-95670185D01*
G37*
G04 #@! TD.AperFunction*
G04 #@! TA.AperFunction,Conductor*
G36*
X141287539Y-71940185D02*
G01*
X141333294Y-71992989D01*
X141344500Y-72044500D01*
X141344500Y-72767742D01*
X141344500Y-74767742D01*
X141344500Y-76243032D01*
X141344500Y-76767742D01*
X141344500Y-78767742D01*
X141344500Y-80767742D01*
X141344500Y-82767742D01*
X141344500Y-84767742D01*
X141344500Y-86767742D01*
X141344500Y-87975500D01*
X141350339Y-88029813D01*
X141361545Y-88081324D01*
X141368781Y-88107698D01*
X141377929Y-88123762D01*
X141381929Y-88142659D01*
X141380667Y-88159013D01*
X141384439Y-88174976D01*
X141378034Y-88193128D01*
X141376554Y-88212321D01*
X141366650Y-88225397D01*
X141361194Y-88240865D01*
X141348302Y-88256014D01*
X141297184Y-88307132D01*
X141219528Y-88384789D01*
X141200504Y-88417743D01*
X141200503Y-88417744D01*
X141173387Y-88464709D01*
X141173386Y-88464712D01*
X141149500Y-88553856D01*
X141149500Y-94825500D01*
X141129815Y-94892539D01*
X141077011Y-94938294D01*
X141025500Y-94949500D01*
X136279500Y-94949500D01*
X136212461Y-94929815D01*
X136166706Y-94877011D01*
X136155500Y-94825500D01*
X136155500Y-72044500D01*
X136175185Y-71977461D01*
X136227989Y-71931706D01*
X136279500Y-71920500D01*
X141220500Y-71920500D01*
X141287539Y-71940185D01*
G37*
G04 #@! TD.AperFunction*
G04 #@! TA.AperFunction,Conductor*
G36*
X135843039Y-71940185D02*
G01*
X135888794Y-71992989D01*
X135900000Y-72044500D01*
X135900000Y-94825500D01*
X135880315Y-94892539D01*
X135827511Y-94938294D01*
X135776000Y-94949500D01*
X135124437Y-94949500D01*
X135057398Y-94929815D01*
X135011643Y-94877011D01*
X135001498Y-94841690D01*
X135000500Y-94834114D01*
X135000500Y-94834108D01*
X134966392Y-94706814D01*
X134900500Y-94592686D01*
X134807314Y-94499500D01*
X134750250Y-94466554D01*
X134693187Y-94433608D01*
X134629539Y-94416554D01*
X134565892Y-94399500D01*
X134434108Y-94399500D01*
X134306812Y-94433608D01*
X134192686Y-94499500D01*
X134192683Y-94499502D01*
X134099502Y-94592683D01*
X134099500Y-94592686D01*
X134033608Y-94706812D01*
X133999500Y-94834108D01*
X133999500Y-94965891D01*
X134033608Y-95093187D01*
X134066554Y-95150250D01*
X134099500Y-95207314D01*
X134192686Y-95300500D01*
X134306814Y-95366392D01*
X134434108Y-95400500D01*
X134453457Y-95400500D01*
X134520496Y-95420185D01*
X134541138Y-95436819D01*
X134619531Y-95515212D01*
X134684788Y-95580469D01*
X134684791Y-95580470D01*
X134684794Y-95580473D01*
X134764706Y-95626611D01*
X134764707Y-95626611D01*
X134764712Y-95626614D01*
X134853856Y-95650500D01*
X134853858Y-95650500D01*
X135776000Y-95650500D01*
X135843039Y-95670185D01*
X135888794Y-95722989D01*
X135900000Y-95774500D01*
X135900000Y-107523900D01*
X135880315Y-107590939D01*
X135827511Y-107636694D01*
X135776000Y-107647900D01*
X132832076Y-107647900D01*
X132765037Y-107628215D01*
X132744395Y-107611581D01*
X132732316Y-107599502D01*
X132732314Y-107599500D01*
X132675250Y-107566554D01*
X132618187Y-107533608D01*
X132554539Y-107516554D01*
X132490892Y-107499500D01*
X132359108Y-107499500D01*
X132231812Y-107533608D01*
X132117686Y-107599500D01*
X132117683Y-107599502D01*
X132024502Y-107692683D01*
X132024500Y-107692686D01*
X131958608Y-107806812D01*
X131924500Y-107934108D01*
X131924500Y-108065891D01*
X131958608Y-108193187D01*
X131991554Y-108250250D01*
X132024500Y-108307314D01*
X132117686Y-108400500D01*
X132186947Y-108440488D01*
X132217337Y-108458034D01*
X132265553Y-108508601D01*
X132278775Y-108577208D01*
X132254343Y-108640078D01*
X132247166Y-108649595D01*
X132245080Y-108651236D01*
X132211929Y-108682471D01*
X132175696Y-108744373D01*
X132171336Y-108750157D01*
X132148868Y-108766854D01*
X132128494Y-108786051D01*
X132120443Y-108787978D01*
X132115257Y-108791833D01*
X132100021Y-108792868D01*
X132072330Y-108799500D01*
X131927660Y-108799500D01*
X131860621Y-108779815D01*
X131819906Y-108736860D01*
X131801864Y-108705177D01*
X131801863Y-108705176D01*
X131801861Y-108705172D01*
X131756106Y-108652368D01*
X131723332Y-108620743D01*
X131634997Y-108574535D01*
X131634996Y-108574534D01*
X131634995Y-108574534D01*
X131634995Y-108574533D01*
X131567963Y-108554851D01*
X131567951Y-108554848D01*
X131495974Y-108544500D01*
X131495973Y-108544500D01*
X130504027Y-108544500D01*
X130504021Y-108544500D01*
X130504007Y-108544501D01*
X130455677Y-108549116D01*
X130409574Y-108558003D01*
X130388880Y-108562893D01*
X130388879Y-108562893D01*
X130300001Y-108608045D01*
X130245080Y-108651236D01*
X130211927Y-108682472D01*
X130179347Y-108738137D01*
X130170877Y-108746117D01*
X130166043Y-108756703D01*
X130145909Y-108769641D01*
X130128494Y-108786051D01*
X130115555Y-108789149D01*
X130107265Y-108794477D01*
X130072330Y-108799500D01*
X129927660Y-108799500D01*
X129860621Y-108779815D01*
X129819906Y-108736860D01*
X129801864Y-108705177D01*
X129801863Y-108705176D01*
X129801861Y-108705172D01*
X129756106Y-108652368D01*
X129723332Y-108620743D01*
X129634997Y-108574535D01*
X129634996Y-108574534D01*
X129634995Y-108574534D01*
X129634995Y-108574533D01*
X129567963Y-108554851D01*
X129567951Y-108554848D01*
X129495974Y-108544500D01*
X129495973Y-108544500D01*
X115544500Y-108544500D01*
X115477461Y-108524815D01*
X115431706Y-108472011D01*
X115420500Y-108420500D01*
X115420500Y-100734108D01*
X115999500Y-100734108D01*
X115999500Y-100865891D01*
X116033608Y-100993187D01*
X116066554Y-101050250D01*
X116099500Y-101107314D01*
X116192686Y-101200500D01*
X116306814Y-101266392D01*
X116434108Y-101300500D01*
X116434110Y-101300500D01*
X116565890Y-101300500D01*
X116565892Y-101300500D01*
X116693186Y-101266392D01*
X116807314Y-101200500D01*
X116900500Y-101107314D01*
X116966392Y-100993186D01*
X117000500Y-100865892D01*
X117000500Y-100734108D01*
X116966392Y-100606814D01*
X116900500Y-100492686D01*
X116807314Y-100399500D01*
X116750250Y-100366554D01*
X116693187Y-100333608D01*
X116629539Y-100316554D01*
X116565892Y-100299500D01*
X116434108Y-100299500D01*
X116306812Y-100333608D01*
X116192686Y-100399500D01*
X116192683Y-100399502D01*
X116099502Y-100492683D01*
X116099500Y-100492686D01*
X116033608Y-100606812D01*
X115999500Y-100734108D01*
X115420500Y-100734108D01*
X115420500Y-99034108D01*
X130899500Y-99034108D01*
X130899500Y-99165891D01*
X130933608Y-99293187D01*
X130957387Y-99334372D01*
X130999500Y-99407314D01*
X131092686Y-99500500D01*
X131165628Y-99542613D01*
X131213843Y-99593180D01*
X131227065Y-99661788D01*
X131201097Y-99726652D01*
X131165628Y-99757387D01*
X131092686Y-99799500D01*
X131092683Y-99799502D01*
X130999502Y-99892683D01*
X130999500Y-99892686D01*
X130933608Y-100006812D01*
X130899500Y-100134108D01*
X130899500Y-100265891D01*
X130933608Y-100393187D01*
X130957387Y-100434372D01*
X130999500Y-100507314D01*
X131092686Y-100600500D01*
X131206814Y-100666392D01*
X131334108Y-100700500D01*
X131334110Y-100700500D01*
X131465890Y-100700500D01*
X131465892Y-100700500D01*
X131593186Y-100666392D01*
X131707314Y-100600500D01*
X131800500Y-100507314D01*
X131842613Y-100434371D01*
X131893180Y-100386156D01*
X131961787Y-100372933D01*
X132026652Y-100398901D01*
X132057386Y-100434371D01*
X132099500Y-100507314D01*
X132192686Y-100600500D01*
X132306814Y-100666392D01*
X132434108Y-100700500D01*
X132434110Y-100700500D01*
X132565890Y-100700500D01*
X132565892Y-100700500D01*
X132693186Y-100666392D01*
X132807314Y-100600500D01*
X132900500Y-100507314D01*
X132942613Y-100434371D01*
X132993180Y-100386156D01*
X133061787Y-100372933D01*
X133126652Y-100398901D01*
X133157386Y-100434371D01*
X133199500Y-100507314D01*
X133292686Y-100600500D01*
X133406814Y-100666392D01*
X133534108Y-100700500D01*
X133534110Y-100700500D01*
X133665890Y-100700500D01*
X133665892Y-100700500D01*
X133793186Y-100666392D01*
X133907314Y-100600500D01*
X134000500Y-100507314D01*
X134066392Y-100393186D01*
X134100500Y-100265892D01*
X134100500Y-100134108D01*
X134066392Y-100006814D01*
X134000500Y-99892686D01*
X133907314Y-99799500D01*
X133834371Y-99757386D01*
X133786156Y-99706820D01*
X133772933Y-99638213D01*
X133798901Y-99573348D01*
X133834372Y-99542613D01*
X133907314Y-99500500D01*
X134000500Y-99407314D01*
X134066392Y-99293186D01*
X134100500Y-99165892D01*
X134100500Y-99034108D01*
X134066392Y-98906814D01*
X134000500Y-98792686D01*
X133907314Y-98699500D01*
X133850250Y-98666554D01*
X133793187Y-98633608D01*
X133729539Y-98616554D01*
X133665892Y-98599500D01*
X133534108Y-98599500D01*
X133406812Y-98633608D01*
X133292686Y-98699500D01*
X133292683Y-98699502D01*
X133199502Y-98792683D01*
X133199500Y-98792686D01*
X133157387Y-98865628D01*
X133106820Y-98913843D01*
X133038212Y-98927065D01*
X132973348Y-98901097D01*
X132942613Y-98865628D01*
X132900500Y-98792686D01*
X132807314Y-98699500D01*
X132750250Y-98666554D01*
X132693187Y-98633608D01*
X132629539Y-98616554D01*
X132565892Y-98599500D01*
X132434108Y-98599500D01*
X132306812Y-98633608D01*
X132192686Y-98699500D01*
X132192683Y-98699502D01*
X132099502Y-98792683D01*
X132099500Y-98792686D01*
X132057387Y-98865628D01*
X132006820Y-98913843D01*
X131938212Y-98927065D01*
X131873348Y-98901097D01*
X131842613Y-98865628D01*
X131800500Y-98792686D01*
X131707314Y-98699500D01*
X131650250Y-98666554D01*
X131593187Y-98633608D01*
X131529539Y-98616554D01*
X131465892Y-98599500D01*
X131334108Y-98599500D01*
X131206812Y-98633608D01*
X131092686Y-98699500D01*
X131092683Y-98699502D01*
X130999502Y-98792683D01*
X130999500Y-98792686D01*
X130933608Y-98906812D01*
X130899500Y-99034108D01*
X115420500Y-99034108D01*
X115420500Y-84734108D01*
X115999500Y-84734108D01*
X115999500Y-84865891D01*
X116033608Y-84993187D01*
X116066554Y-85050250D01*
X116099500Y-85107314D01*
X116192686Y-85200500D01*
X116306814Y-85266392D01*
X116434108Y-85300500D01*
X116434110Y-85300500D01*
X116565890Y-85300500D01*
X116565892Y-85300500D01*
X116693186Y-85266392D01*
X116807314Y-85200500D01*
X116900500Y-85107314D01*
X116966392Y-84993186D01*
X117000500Y-84865892D01*
X117000500Y-84734108D01*
X117999500Y-84734108D01*
X117999500Y-84865891D01*
X118033608Y-84993187D01*
X118066554Y-85050250D01*
X118099500Y-85107314D01*
X118192686Y-85200500D01*
X118306814Y-85266392D01*
X118434108Y-85300500D01*
X118434110Y-85300500D01*
X118565890Y-85300500D01*
X118565892Y-85300500D01*
X118693186Y-85266392D01*
X118807314Y-85200500D01*
X118900500Y-85107314D01*
X118966392Y-84993186D01*
X119000500Y-84865892D01*
X119000500Y-84734108D01*
X119999500Y-84734108D01*
X119999500Y-84865891D01*
X120033608Y-84993187D01*
X120066554Y-85050250D01*
X120099500Y-85107314D01*
X120192686Y-85200500D01*
X120306814Y-85266392D01*
X120434108Y-85300500D01*
X120434110Y-85300500D01*
X120565890Y-85300500D01*
X120565892Y-85300500D01*
X120693186Y-85266392D01*
X120807314Y-85200500D01*
X120900500Y-85107314D01*
X120966392Y-84993186D01*
X121000500Y-84865892D01*
X121000500Y-84734108D01*
X121999500Y-84734108D01*
X121999500Y-84865891D01*
X122033608Y-84993187D01*
X122066554Y-85050250D01*
X122099500Y-85107314D01*
X122192686Y-85200500D01*
X122306814Y-85266392D01*
X122434108Y-85300500D01*
X122434110Y-85300500D01*
X122565890Y-85300500D01*
X122565892Y-85300500D01*
X122693186Y-85266392D01*
X122807314Y-85200500D01*
X122900500Y-85107314D01*
X122966392Y-84993186D01*
X123000500Y-84865892D01*
X123000500Y-84734108D01*
X123999500Y-84734108D01*
X123999500Y-84865891D01*
X124033608Y-84993187D01*
X124066554Y-85050250D01*
X124099500Y-85107314D01*
X124192686Y-85200500D01*
X124306814Y-85266392D01*
X124434108Y-85300500D01*
X124434110Y-85300500D01*
X124565890Y-85300500D01*
X124565892Y-85300500D01*
X124693186Y-85266392D01*
X124807314Y-85200500D01*
X124900500Y-85107314D01*
X124966392Y-84993186D01*
X125000500Y-84865892D01*
X125000500Y-84734108D01*
X125999500Y-84734108D01*
X125999500Y-84865891D01*
X126033608Y-84993187D01*
X126066554Y-85050250D01*
X126099500Y-85107314D01*
X126192686Y-85200500D01*
X126306814Y-85266392D01*
X126434108Y-85300500D01*
X126434110Y-85300500D01*
X126565890Y-85300500D01*
X126565892Y-85300500D01*
X126693186Y-85266392D01*
X126807314Y-85200500D01*
X126900500Y-85107314D01*
X126966392Y-84993186D01*
X127000500Y-84865892D01*
X127000500Y-84734108D01*
X126966392Y-84606814D01*
X126900500Y-84492686D01*
X126807314Y-84399500D01*
X126750250Y-84366554D01*
X126693187Y-84333608D01*
X126629539Y-84316554D01*
X126565892Y-84299500D01*
X126434108Y-84299500D01*
X126306812Y-84333608D01*
X126192686Y-84399500D01*
X126192683Y-84399502D01*
X126099502Y-84492683D01*
X126099500Y-84492686D01*
X126033608Y-84606812D01*
X125999500Y-84734108D01*
X125000500Y-84734108D01*
X124966392Y-84606814D01*
X124900500Y-84492686D01*
X124807314Y-84399500D01*
X124750250Y-84366554D01*
X124693187Y-84333608D01*
X124629539Y-84316554D01*
X124565892Y-84299500D01*
X124434108Y-84299500D01*
X124306812Y-84333608D01*
X124192686Y-84399500D01*
X124192683Y-84399502D01*
X124099502Y-84492683D01*
X124099500Y-84492686D01*
X124033608Y-84606812D01*
X123999500Y-84734108D01*
X123000500Y-84734108D01*
X122966392Y-84606814D01*
X122900500Y-84492686D01*
X122807314Y-84399500D01*
X122750250Y-84366554D01*
X122693187Y-84333608D01*
X122629539Y-84316554D01*
X122565892Y-84299500D01*
X122434108Y-84299500D01*
X122306812Y-84333608D01*
X122192686Y-84399500D01*
X122192683Y-84399502D01*
X122099502Y-84492683D01*
X122099500Y-84492686D01*
X122033608Y-84606812D01*
X121999500Y-84734108D01*
X121000500Y-84734108D01*
X120966392Y-84606814D01*
X120900500Y-84492686D01*
X120807314Y-84399500D01*
X120750250Y-84366554D01*
X120693187Y-84333608D01*
X120629539Y-84316554D01*
X120565892Y-84299500D01*
X120434108Y-84299500D01*
X120306812Y-84333608D01*
X120192686Y-84399500D01*
X120192683Y-84399502D01*
X120099502Y-84492683D01*
X120099500Y-84492686D01*
X120033608Y-84606812D01*
X119999500Y-84734108D01*
X119000500Y-84734108D01*
X118966392Y-84606814D01*
X118900500Y-84492686D01*
X118807314Y-84399500D01*
X118750250Y-84366554D01*
X118693187Y-84333608D01*
X118629539Y-84316554D01*
X118565892Y-84299500D01*
X118434108Y-84299500D01*
X118306812Y-84333608D01*
X118192686Y-84399500D01*
X118192683Y-84399502D01*
X118099502Y-84492683D01*
X118099500Y-84492686D01*
X118033608Y-84606812D01*
X117999500Y-84734108D01*
X117000500Y-84734108D01*
X116966392Y-84606814D01*
X116900500Y-84492686D01*
X116807314Y-84399500D01*
X116750250Y-84366554D01*
X116693187Y-84333608D01*
X116629539Y-84316554D01*
X116565892Y-84299500D01*
X116434108Y-84299500D01*
X116306812Y-84333608D01*
X116192686Y-84399500D01*
X116192683Y-84399502D01*
X116099502Y-84492683D01*
X116099500Y-84492686D01*
X116033608Y-84606812D01*
X115999500Y-84734108D01*
X115420500Y-84734108D01*
X115420500Y-82734108D01*
X115999500Y-82734108D01*
X115999500Y-82865891D01*
X116033608Y-82993187D01*
X116066554Y-83050250D01*
X116099500Y-83107314D01*
X116192686Y-83200500D01*
X116306814Y-83266392D01*
X116434108Y-83300500D01*
X116434110Y-83300500D01*
X116565890Y-83300500D01*
X116565892Y-83300500D01*
X116693186Y-83266392D01*
X116807314Y-83200500D01*
X116900500Y-83107314D01*
X116966392Y-82993186D01*
X117000500Y-82865892D01*
X117000500Y-82734108D01*
X117999500Y-82734108D01*
X117999500Y-82865891D01*
X118033608Y-82993187D01*
X118066554Y-83050250D01*
X118099500Y-83107314D01*
X118192686Y-83200500D01*
X118306814Y-83266392D01*
X118434108Y-83300500D01*
X118434110Y-83300500D01*
X118565890Y-83300500D01*
X118565892Y-83300500D01*
X118693186Y-83266392D01*
X118807314Y-83200500D01*
X118900500Y-83107314D01*
X118966392Y-82993186D01*
X119000500Y-82865892D01*
X119000500Y-82734108D01*
X119999500Y-82734108D01*
X119999500Y-82865891D01*
X120033608Y-82993187D01*
X120066554Y-83050250D01*
X120099500Y-83107314D01*
X120192686Y-83200500D01*
X120306814Y-83266392D01*
X120434108Y-83300500D01*
X120434110Y-83300500D01*
X120565890Y-83300500D01*
X120565892Y-83300500D01*
X120693186Y-83266392D01*
X120807314Y-83200500D01*
X120900500Y-83107314D01*
X120966392Y-82993186D01*
X121000500Y-82865892D01*
X121000500Y-82734108D01*
X121999500Y-82734108D01*
X121999500Y-82865891D01*
X122033608Y-82993187D01*
X122066554Y-83050250D01*
X122099500Y-83107314D01*
X122192686Y-83200500D01*
X122306814Y-83266392D01*
X122434108Y-83300500D01*
X122434110Y-83300500D01*
X122565890Y-83300500D01*
X122565892Y-83300500D01*
X122693186Y-83266392D01*
X122807314Y-83200500D01*
X122900500Y-83107314D01*
X122966392Y-82993186D01*
X123000500Y-82865892D01*
X123000500Y-82734108D01*
X123999500Y-82734108D01*
X123999500Y-82865891D01*
X124033608Y-82993187D01*
X124066554Y-83050250D01*
X124099500Y-83107314D01*
X124192686Y-83200500D01*
X124306814Y-83266392D01*
X124434108Y-83300500D01*
X124434110Y-83300500D01*
X124565890Y-83300500D01*
X124565892Y-83300500D01*
X124693186Y-83266392D01*
X124807314Y-83200500D01*
X124900500Y-83107314D01*
X124966392Y-82993186D01*
X125000500Y-82865892D01*
X125000500Y-82734108D01*
X125999500Y-82734108D01*
X125999500Y-82865891D01*
X126033608Y-82993187D01*
X126066554Y-83050250D01*
X126099500Y-83107314D01*
X126192686Y-83200500D01*
X126306814Y-83266392D01*
X126434108Y-83300500D01*
X126434110Y-83300500D01*
X126565890Y-83300500D01*
X126565892Y-83300500D01*
X126693186Y-83266392D01*
X126807314Y-83200500D01*
X126900500Y-83107314D01*
X126966392Y-82993186D01*
X127000500Y-82865892D01*
X127000500Y-82734108D01*
X126966392Y-82606814D01*
X126900500Y-82492686D01*
X126807314Y-82399500D01*
X126750250Y-82366554D01*
X126693187Y-82333608D01*
X126629539Y-82316554D01*
X126565892Y-82299500D01*
X126434108Y-82299500D01*
X126306812Y-82333608D01*
X126192686Y-82399500D01*
X126192683Y-82399502D01*
X126099502Y-82492683D01*
X126099500Y-82492686D01*
X126033608Y-82606812D01*
X125999500Y-82734108D01*
X125000500Y-82734108D01*
X124966392Y-82606814D01*
X124900500Y-82492686D01*
X124807314Y-82399500D01*
X124750250Y-82366554D01*
X124693187Y-82333608D01*
X124629539Y-82316554D01*
X124565892Y-82299500D01*
X124434108Y-82299500D01*
X124306812Y-82333608D01*
X124192686Y-82399500D01*
X124192683Y-82399502D01*
X124099502Y-82492683D01*
X124099500Y-82492686D01*
X124033608Y-82606812D01*
X123999500Y-82734108D01*
X123000500Y-82734108D01*
X122966392Y-82606814D01*
X122900500Y-82492686D01*
X122807314Y-82399500D01*
X122750250Y-82366554D01*
X122693187Y-82333608D01*
X122629539Y-82316554D01*
X122565892Y-82299500D01*
X122434108Y-82299500D01*
X122306812Y-82333608D01*
X122192686Y-82399500D01*
X122192683Y-82399502D01*
X122099502Y-82492683D01*
X122099500Y-82492686D01*
X122033608Y-82606812D01*
X121999500Y-82734108D01*
X121000500Y-82734108D01*
X120966392Y-82606814D01*
X120900500Y-82492686D01*
X120807314Y-82399500D01*
X120750250Y-82366554D01*
X120693187Y-82333608D01*
X120629539Y-82316554D01*
X120565892Y-82299500D01*
X120434108Y-82299500D01*
X120306812Y-82333608D01*
X120192686Y-82399500D01*
X120192683Y-82399502D01*
X120099502Y-82492683D01*
X120099500Y-82492686D01*
X120033608Y-82606812D01*
X119999500Y-82734108D01*
X119000500Y-82734108D01*
X118966392Y-82606814D01*
X118900500Y-82492686D01*
X118807314Y-82399500D01*
X118750250Y-82366554D01*
X118693187Y-82333608D01*
X118629539Y-82316554D01*
X118565892Y-82299500D01*
X118434108Y-82299500D01*
X118306812Y-82333608D01*
X118192686Y-82399500D01*
X118192683Y-82399502D01*
X118099502Y-82492683D01*
X118099500Y-82492686D01*
X118033608Y-82606812D01*
X117999500Y-82734108D01*
X117000500Y-82734108D01*
X116966392Y-82606814D01*
X116900500Y-82492686D01*
X116807314Y-82399500D01*
X116750250Y-82366554D01*
X116693187Y-82333608D01*
X116629539Y-82316554D01*
X116565892Y-82299500D01*
X116434108Y-82299500D01*
X116306812Y-82333608D01*
X116192686Y-82399500D01*
X116192683Y-82399502D01*
X116099502Y-82492683D01*
X116099500Y-82492686D01*
X116033608Y-82606812D01*
X115999500Y-82734108D01*
X115420500Y-82734108D01*
X115420500Y-80734108D01*
X115999500Y-80734108D01*
X115999500Y-80865891D01*
X116033608Y-80993187D01*
X116066554Y-81050250D01*
X116099500Y-81107314D01*
X116192686Y-81200500D01*
X116306814Y-81266392D01*
X116434108Y-81300500D01*
X116434110Y-81300500D01*
X116565890Y-81300500D01*
X116565892Y-81300500D01*
X116693186Y-81266392D01*
X116807314Y-81200500D01*
X116900500Y-81107314D01*
X116966392Y-80993186D01*
X117000500Y-80865892D01*
X117000500Y-80734108D01*
X117999500Y-80734108D01*
X117999500Y-80865891D01*
X118033608Y-80993187D01*
X118066554Y-81050250D01*
X118099500Y-81107314D01*
X118192686Y-81200500D01*
X118306814Y-81266392D01*
X118434108Y-81300500D01*
X118434110Y-81300500D01*
X118565890Y-81300500D01*
X118565892Y-81300500D01*
X118693186Y-81266392D01*
X118807314Y-81200500D01*
X118900500Y-81107314D01*
X118966392Y-80993186D01*
X119000500Y-80865892D01*
X119000500Y-80734108D01*
X119999500Y-80734108D01*
X119999500Y-80865891D01*
X120033608Y-80993187D01*
X120066554Y-81050250D01*
X120099500Y-81107314D01*
X120192686Y-81200500D01*
X120306814Y-81266392D01*
X120434108Y-81300500D01*
X120434110Y-81300500D01*
X120565890Y-81300500D01*
X120565892Y-81300500D01*
X120693186Y-81266392D01*
X120807314Y-81200500D01*
X120900500Y-81107314D01*
X120966392Y-80993186D01*
X121000500Y-80865892D01*
X121000500Y-80734108D01*
X121999500Y-80734108D01*
X121999500Y-80865891D01*
X122033608Y-80993187D01*
X122066554Y-81050250D01*
X122099500Y-81107314D01*
X122192686Y-81200500D01*
X122306814Y-81266392D01*
X122434108Y-81300500D01*
X122434110Y-81300500D01*
X122565890Y-81300500D01*
X122565892Y-81300500D01*
X122693186Y-81266392D01*
X122807314Y-81200500D01*
X122900500Y-81107314D01*
X122966392Y-80993186D01*
X123000500Y-80865892D01*
X123000500Y-80734108D01*
X123999500Y-80734108D01*
X123999500Y-80865891D01*
X124033608Y-80993187D01*
X124066554Y-81050250D01*
X124099500Y-81107314D01*
X124192686Y-81200500D01*
X124306814Y-81266392D01*
X124434108Y-81300500D01*
X124434110Y-81300500D01*
X124565890Y-81300500D01*
X124565892Y-81300500D01*
X124693186Y-81266392D01*
X124807314Y-81200500D01*
X124900500Y-81107314D01*
X124966392Y-80993186D01*
X125000500Y-80865892D01*
X125000500Y-80734108D01*
X125999500Y-80734108D01*
X125999500Y-80865891D01*
X126033608Y-80993187D01*
X126066554Y-81050250D01*
X126099500Y-81107314D01*
X126192686Y-81200500D01*
X126306814Y-81266392D01*
X126434108Y-81300500D01*
X126434110Y-81300500D01*
X126565890Y-81300500D01*
X126565892Y-81300500D01*
X126693186Y-81266392D01*
X126807314Y-81200500D01*
X126900500Y-81107314D01*
X126966392Y-80993186D01*
X127000500Y-80865892D01*
X127000500Y-80734108D01*
X126966392Y-80606814D01*
X126900500Y-80492686D01*
X126807314Y-80399500D01*
X126750250Y-80366554D01*
X126693187Y-80333608D01*
X126629539Y-80316554D01*
X126565892Y-80299500D01*
X126434108Y-80299500D01*
X126306812Y-80333608D01*
X126192686Y-80399500D01*
X126192683Y-80399502D01*
X126099502Y-80492683D01*
X126099500Y-80492686D01*
X126033608Y-80606812D01*
X125999500Y-80734108D01*
X125000500Y-80734108D01*
X124966392Y-80606814D01*
X124900500Y-80492686D01*
X124807314Y-80399500D01*
X124750250Y-80366554D01*
X124693187Y-80333608D01*
X124629539Y-80316554D01*
X124565892Y-80299500D01*
X124434108Y-80299500D01*
X124306812Y-80333608D01*
X124192686Y-80399500D01*
X124192683Y-80399502D01*
X124099502Y-80492683D01*
X124099500Y-80492686D01*
X124033608Y-80606812D01*
X123999500Y-80734108D01*
X123000500Y-80734108D01*
X122966392Y-80606814D01*
X122900500Y-80492686D01*
X122807314Y-80399500D01*
X122750250Y-80366554D01*
X122693187Y-80333608D01*
X122629539Y-80316554D01*
X122565892Y-80299500D01*
X122434108Y-80299500D01*
X122306812Y-80333608D01*
X122192686Y-80399500D01*
X122192683Y-80399502D01*
X122099502Y-80492683D01*
X122099500Y-80492686D01*
X122033608Y-80606812D01*
X121999500Y-80734108D01*
X121000500Y-80734108D01*
X120966392Y-80606814D01*
X120900500Y-80492686D01*
X120807314Y-80399500D01*
X120750250Y-80366554D01*
X120693187Y-80333608D01*
X120629539Y-80316554D01*
X120565892Y-80299500D01*
X120434108Y-80299500D01*
X120306812Y-80333608D01*
X120192686Y-80399500D01*
X120192683Y-80399502D01*
X120099502Y-80492683D01*
X120099500Y-80492686D01*
X120033608Y-80606812D01*
X119999500Y-80734108D01*
X119000500Y-80734108D01*
X118966392Y-80606814D01*
X118900500Y-80492686D01*
X118807314Y-80399500D01*
X118750250Y-80366554D01*
X118693187Y-80333608D01*
X118629539Y-80316554D01*
X118565892Y-80299500D01*
X118434108Y-80299500D01*
X118306812Y-80333608D01*
X118192686Y-80399500D01*
X118192683Y-80399502D01*
X118099502Y-80492683D01*
X118099500Y-80492686D01*
X118033608Y-80606812D01*
X117999500Y-80734108D01*
X117000500Y-80734108D01*
X116966392Y-80606814D01*
X116900500Y-80492686D01*
X116807314Y-80399500D01*
X116750250Y-80366554D01*
X116693187Y-80333608D01*
X116629539Y-80316554D01*
X116565892Y-80299500D01*
X116434108Y-80299500D01*
X116306812Y-80333608D01*
X116192686Y-80399500D01*
X116192683Y-80399502D01*
X116099502Y-80492683D01*
X116099500Y-80492686D01*
X116033608Y-80606812D01*
X115999500Y-80734108D01*
X115420500Y-80734108D01*
X115420500Y-76228681D01*
X116849500Y-76228681D01*
X116849500Y-76571318D01*
X116887858Y-76911768D01*
X116887861Y-76911782D01*
X116964102Y-77245816D01*
X116964103Y-77245818D01*
X117077264Y-77569216D01*
X117225922Y-77877907D01*
X117225924Y-77877910D01*
X117408211Y-78168018D01*
X117540265Y-78333608D01*
X117592811Y-78399500D01*
X117621834Y-78435893D01*
X117864107Y-78678166D01*
X118131982Y-78891789D01*
X118422090Y-79074076D01*
X118730785Y-79222736D01*
X119054183Y-79335897D01*
X119388217Y-79412139D01*
X119388226Y-79412140D01*
X119388231Y-79412141D01*
X119615197Y-79437713D01*
X119728682Y-79450499D01*
X119728685Y-79450500D01*
X119728688Y-79450500D01*
X120071315Y-79450500D01*
X120071316Y-79450499D01*
X120245311Y-79430895D01*
X120411768Y-79412141D01*
X120411771Y-79412140D01*
X120411783Y-79412139D01*
X120745817Y-79335897D01*
X121069215Y-79222736D01*
X121377910Y-79074076D01*
X121668018Y-78891789D01*
X121865744Y-78734108D01*
X123999500Y-78734108D01*
X123999500Y-78865891D01*
X124033608Y-78993187D01*
X124066554Y-79050250D01*
X124099500Y-79107314D01*
X124192686Y-79200500D01*
X124306814Y-79266392D01*
X124434108Y-79300500D01*
X124434110Y-79300500D01*
X124565890Y-79300500D01*
X124565892Y-79300500D01*
X124693186Y-79266392D01*
X124807314Y-79200500D01*
X124900500Y-79107314D01*
X124966392Y-78993186D01*
X125000500Y-78865892D01*
X125000500Y-78734108D01*
X125999500Y-78734108D01*
X125999500Y-78865891D01*
X126033608Y-78993187D01*
X126066554Y-79050250D01*
X126099500Y-79107314D01*
X126192686Y-79200500D01*
X126306814Y-79266392D01*
X126434108Y-79300500D01*
X126434110Y-79300500D01*
X126565890Y-79300500D01*
X126565892Y-79300500D01*
X126693186Y-79266392D01*
X126807314Y-79200500D01*
X126900500Y-79107314D01*
X126966392Y-78993186D01*
X127000500Y-78865892D01*
X127000500Y-78734108D01*
X126966392Y-78606814D01*
X126900500Y-78492686D01*
X126807314Y-78399500D01*
X126750250Y-78366554D01*
X126693187Y-78333608D01*
X126629539Y-78316554D01*
X126565892Y-78299500D01*
X126434108Y-78299500D01*
X126306812Y-78333608D01*
X126192686Y-78399500D01*
X126192683Y-78399502D01*
X126099502Y-78492683D01*
X126099500Y-78492686D01*
X126033608Y-78606812D01*
X125999500Y-78734108D01*
X125000500Y-78734108D01*
X124966392Y-78606814D01*
X124900500Y-78492686D01*
X124807314Y-78399500D01*
X124750250Y-78366554D01*
X124693187Y-78333608D01*
X124629539Y-78316554D01*
X124565892Y-78299500D01*
X124434108Y-78299500D01*
X124306812Y-78333608D01*
X124192686Y-78399500D01*
X124192683Y-78399502D01*
X124099502Y-78492683D01*
X124099500Y-78492686D01*
X124033608Y-78606812D01*
X123999500Y-78734108D01*
X121865744Y-78734108D01*
X121935893Y-78678166D01*
X122178166Y-78435893D01*
X122391789Y-78168018D01*
X122574076Y-77877910D01*
X122722736Y-77569215D01*
X122835897Y-77245817D01*
X122912139Y-76911783D01*
X122932158Y-76734110D01*
X122932158Y-76734108D01*
X123999500Y-76734108D01*
X123999500Y-76865891D01*
X124033608Y-76993187D01*
X124066554Y-77050250D01*
X124099500Y-77107314D01*
X124192686Y-77200500D01*
X124306814Y-77266392D01*
X124434108Y-77300500D01*
X124434110Y-77300500D01*
X124565890Y-77300500D01*
X124565892Y-77300500D01*
X124693186Y-77266392D01*
X124807314Y-77200500D01*
X124900500Y-77107314D01*
X124966392Y-76993186D01*
X125000500Y-76865892D01*
X125000500Y-76734108D01*
X125999500Y-76734108D01*
X125999500Y-76865891D01*
X126033608Y-76993187D01*
X126066554Y-77050250D01*
X126099500Y-77107314D01*
X126192686Y-77200500D01*
X126306814Y-77266392D01*
X126434108Y-77300500D01*
X126434110Y-77300500D01*
X126565890Y-77300500D01*
X126565892Y-77300500D01*
X126693186Y-77266392D01*
X126807314Y-77200500D01*
X126900500Y-77107314D01*
X126966392Y-76993186D01*
X127000500Y-76865892D01*
X127000500Y-76734108D01*
X126966392Y-76606814D01*
X126900500Y-76492686D01*
X126807314Y-76399500D01*
X126750250Y-76366554D01*
X126693187Y-76333608D01*
X126629539Y-76316554D01*
X126565892Y-76299500D01*
X126434108Y-76299500D01*
X126306812Y-76333608D01*
X126192686Y-76399500D01*
X126192683Y-76399502D01*
X126099502Y-76492683D01*
X126099500Y-76492686D01*
X126033608Y-76606812D01*
X125999500Y-76734108D01*
X125000500Y-76734108D01*
X124966392Y-76606814D01*
X124900500Y-76492686D01*
X124807314Y-76399500D01*
X124750250Y-76366554D01*
X124693187Y-76333608D01*
X124629539Y-76316554D01*
X124565892Y-76299500D01*
X124434108Y-76299500D01*
X124306812Y-76333608D01*
X124192686Y-76399500D01*
X124192683Y-76399502D01*
X124099502Y-76492683D01*
X124099500Y-76492686D01*
X124033608Y-76606812D01*
X123999500Y-76734108D01*
X122932158Y-76734108D01*
X122934638Y-76712098D01*
X122950499Y-76571318D01*
X122950500Y-76571314D01*
X122950500Y-76228685D01*
X122950499Y-76228681D01*
X122912141Y-75888231D01*
X122912140Y-75888226D01*
X122912139Y-75888217D01*
X122835897Y-75554183D01*
X122722736Y-75230785D01*
X122574076Y-74922090D01*
X122455959Y-74734108D01*
X123999500Y-74734108D01*
X123999500Y-74865891D01*
X124033608Y-74993187D01*
X124066554Y-75050250D01*
X124099500Y-75107314D01*
X124192686Y-75200500D01*
X124306814Y-75266392D01*
X124434108Y-75300500D01*
X124434110Y-75300500D01*
X124565890Y-75300500D01*
X124565892Y-75300500D01*
X124693186Y-75266392D01*
X124807314Y-75200500D01*
X124900500Y-75107314D01*
X124966392Y-74993186D01*
X125000500Y-74865892D01*
X125000500Y-74734108D01*
X125999500Y-74734108D01*
X125999500Y-74865891D01*
X126033608Y-74993187D01*
X126066554Y-75050250D01*
X126099500Y-75107314D01*
X126192686Y-75200500D01*
X126306814Y-75266392D01*
X126434108Y-75300500D01*
X126434110Y-75300500D01*
X126565890Y-75300500D01*
X126565892Y-75300500D01*
X126693186Y-75266392D01*
X126807314Y-75200500D01*
X126900500Y-75107314D01*
X126966392Y-74993186D01*
X127000500Y-74865892D01*
X127000500Y-74734108D01*
X127999500Y-74734108D01*
X127999500Y-74865891D01*
X128033608Y-74993187D01*
X128066554Y-75050250D01*
X128099500Y-75107314D01*
X128192686Y-75200500D01*
X128306814Y-75266392D01*
X128434108Y-75300500D01*
X128434110Y-75300500D01*
X128565890Y-75300500D01*
X128565892Y-75300500D01*
X128693186Y-75266392D01*
X128807314Y-75200500D01*
X128900500Y-75107314D01*
X128966392Y-74993186D01*
X129000500Y-74865892D01*
X129000500Y-74734108D01*
X129999500Y-74734108D01*
X129999500Y-74865891D01*
X130033608Y-74993187D01*
X130066554Y-75050250D01*
X130099500Y-75107314D01*
X130192686Y-75200500D01*
X130306814Y-75266392D01*
X130434108Y-75300500D01*
X130434110Y-75300500D01*
X130565890Y-75300500D01*
X130565892Y-75300500D01*
X130693186Y-75266392D01*
X130807314Y-75200500D01*
X130900500Y-75107314D01*
X130966392Y-74993186D01*
X131000500Y-74865892D01*
X131000500Y-74734108D01*
X131999500Y-74734108D01*
X131999500Y-74865891D01*
X132033608Y-74993187D01*
X132066554Y-75050250D01*
X132099500Y-75107314D01*
X132192686Y-75200500D01*
X132306814Y-75266392D01*
X132434108Y-75300500D01*
X132434110Y-75300500D01*
X132565890Y-75300500D01*
X132565892Y-75300500D01*
X132693186Y-75266392D01*
X132807314Y-75200500D01*
X132900500Y-75107314D01*
X132966392Y-74993186D01*
X133000500Y-74865892D01*
X133000500Y-74734108D01*
X133999500Y-74734108D01*
X133999500Y-74865891D01*
X134033608Y-74993187D01*
X134066554Y-75050250D01*
X134099500Y-75107314D01*
X134192686Y-75200500D01*
X134306814Y-75266392D01*
X134434108Y-75300500D01*
X134434110Y-75300500D01*
X134565890Y-75300500D01*
X134565892Y-75300500D01*
X134693186Y-75266392D01*
X134807314Y-75200500D01*
X134900500Y-75107314D01*
X134966392Y-74993186D01*
X135000500Y-74865892D01*
X135000500Y-74734108D01*
X134966392Y-74606814D01*
X134900500Y-74492686D01*
X134807314Y-74399500D01*
X134746012Y-74364107D01*
X134693187Y-74333608D01*
X134629539Y-74316554D01*
X134565892Y-74299500D01*
X134434108Y-74299500D01*
X134306812Y-74333608D01*
X134192686Y-74399500D01*
X134192683Y-74399502D01*
X134099502Y-74492683D01*
X134099500Y-74492686D01*
X134033608Y-74606812D01*
X133999500Y-74734108D01*
X133000500Y-74734108D01*
X132966392Y-74606814D01*
X132900500Y-74492686D01*
X132807314Y-74399500D01*
X132746012Y-74364107D01*
X132693187Y-74333608D01*
X132629539Y-74316554D01*
X132565892Y-74299500D01*
X132434108Y-74299500D01*
X132306812Y-74333608D01*
X132192686Y-74399500D01*
X132192683Y-74399502D01*
X132099502Y-74492683D01*
X132099500Y-74492686D01*
X132033608Y-74606812D01*
X131999500Y-74734108D01*
X131000500Y-74734108D01*
X130966392Y-74606814D01*
X130900500Y-74492686D01*
X130807314Y-74399500D01*
X130746012Y-74364107D01*
X130693187Y-74333608D01*
X130629539Y-74316554D01*
X130565892Y-74299500D01*
X130434108Y-74299500D01*
X130306812Y-74333608D01*
X130192686Y-74399500D01*
X130192683Y-74399502D01*
X130099502Y-74492683D01*
X130099500Y-74492686D01*
X130033608Y-74606812D01*
X129999500Y-74734108D01*
X129000500Y-74734108D01*
X128966392Y-74606814D01*
X128900500Y-74492686D01*
X128807314Y-74399500D01*
X128746012Y-74364107D01*
X128693187Y-74333608D01*
X128629539Y-74316554D01*
X128565892Y-74299500D01*
X128434108Y-74299500D01*
X128306812Y-74333608D01*
X128192686Y-74399500D01*
X128192683Y-74399502D01*
X128099502Y-74492683D01*
X128099500Y-74492686D01*
X128033608Y-74606812D01*
X127999500Y-74734108D01*
X127000500Y-74734108D01*
X126966392Y-74606814D01*
X126900500Y-74492686D01*
X126807314Y-74399500D01*
X126746012Y-74364107D01*
X126693187Y-74333608D01*
X126629539Y-74316554D01*
X126565892Y-74299500D01*
X126434108Y-74299500D01*
X126306812Y-74333608D01*
X126192686Y-74399500D01*
X126192683Y-74399502D01*
X126099502Y-74492683D01*
X126099500Y-74492686D01*
X126033608Y-74606812D01*
X125999500Y-74734108D01*
X125000500Y-74734108D01*
X124966392Y-74606814D01*
X124900500Y-74492686D01*
X124807314Y-74399500D01*
X124746012Y-74364107D01*
X124693187Y-74333608D01*
X124629539Y-74316554D01*
X124565892Y-74299500D01*
X124434108Y-74299500D01*
X124306812Y-74333608D01*
X124192686Y-74399500D01*
X124192683Y-74399502D01*
X124099502Y-74492683D01*
X124099500Y-74492686D01*
X124033608Y-74606812D01*
X123999500Y-74734108D01*
X122455959Y-74734108D01*
X122391789Y-74631982D01*
X122178166Y-74364107D01*
X121935893Y-74121834D01*
X121917685Y-74107314D01*
X121774573Y-73993186D01*
X121668018Y-73908211D01*
X121377910Y-73725924D01*
X121377907Y-73725922D01*
X121069216Y-73577264D01*
X120745818Y-73464103D01*
X120745816Y-73464102D01*
X120462776Y-73399500D01*
X120411783Y-73387861D01*
X120411780Y-73387860D01*
X120411768Y-73387858D01*
X120071318Y-73349500D01*
X120071312Y-73349500D01*
X119728688Y-73349500D01*
X119728681Y-73349500D01*
X119388231Y-73387858D01*
X119388217Y-73387861D01*
X119054183Y-73464102D01*
X119054181Y-73464103D01*
X118730783Y-73577264D01*
X118422092Y-73725922D01*
X118131983Y-73908210D01*
X117864107Y-74121833D01*
X117621833Y-74364107D01*
X117408210Y-74631983D01*
X117225922Y-74922092D01*
X117077264Y-75230783D01*
X116964103Y-75554181D01*
X116964102Y-75554183D01*
X116887861Y-75888217D01*
X116887858Y-75888231D01*
X116849500Y-76228681D01*
X115420500Y-76228681D01*
X115420500Y-72734108D01*
X123999500Y-72734108D01*
X123999500Y-72865891D01*
X124033608Y-72993187D01*
X124066554Y-73050250D01*
X124099500Y-73107314D01*
X124192686Y-73200500D01*
X124306814Y-73266392D01*
X124434108Y-73300500D01*
X124434110Y-73300500D01*
X124565890Y-73300500D01*
X124565892Y-73300500D01*
X124693186Y-73266392D01*
X124807314Y-73200500D01*
X124900500Y-73107314D01*
X124966392Y-72993186D01*
X125000500Y-72865892D01*
X125000500Y-72734108D01*
X125999500Y-72734108D01*
X125999500Y-72865891D01*
X126033608Y-72993187D01*
X126066554Y-73050250D01*
X126099500Y-73107314D01*
X126192686Y-73200500D01*
X126306814Y-73266392D01*
X126434108Y-73300500D01*
X126434110Y-73300500D01*
X126565890Y-73300500D01*
X126565892Y-73300500D01*
X126693186Y-73266392D01*
X126807314Y-73200500D01*
X126900500Y-73107314D01*
X126966392Y-72993186D01*
X127000500Y-72865892D01*
X127000500Y-72734108D01*
X127999500Y-72734108D01*
X127999500Y-72865891D01*
X128033608Y-72993187D01*
X128066554Y-73050250D01*
X128099500Y-73107314D01*
X128192686Y-73200500D01*
X128306814Y-73266392D01*
X128434108Y-73300500D01*
X128434110Y-73300500D01*
X128565890Y-73300500D01*
X128565892Y-73300500D01*
X128693186Y-73266392D01*
X128807314Y-73200500D01*
X128900500Y-73107314D01*
X128966392Y-72993186D01*
X129000500Y-72865892D01*
X129000500Y-72734108D01*
X129999500Y-72734108D01*
X129999500Y-72865891D01*
X130033608Y-72993187D01*
X130066554Y-73050250D01*
X130099500Y-73107314D01*
X130192686Y-73200500D01*
X130306814Y-73266392D01*
X130434108Y-73300500D01*
X130434110Y-73300500D01*
X130565890Y-73300500D01*
X130565892Y-73300500D01*
X130693186Y-73266392D01*
X130807314Y-73200500D01*
X130900500Y-73107314D01*
X130966392Y-72993186D01*
X131000500Y-72865892D01*
X131000500Y-72734108D01*
X131999500Y-72734108D01*
X131999500Y-72865891D01*
X132033608Y-72993187D01*
X132066554Y-73050250D01*
X132099500Y-73107314D01*
X132192686Y-73200500D01*
X132306814Y-73266392D01*
X132434108Y-73300500D01*
X132434110Y-73300500D01*
X132565890Y-73300500D01*
X132565892Y-73300500D01*
X132693186Y-73266392D01*
X132807314Y-73200500D01*
X132900500Y-73107314D01*
X132966392Y-72993186D01*
X133000500Y-72865892D01*
X133000500Y-72734108D01*
X133999500Y-72734108D01*
X133999500Y-72865891D01*
X134033608Y-72993187D01*
X134066554Y-73050250D01*
X134099500Y-73107314D01*
X134192686Y-73200500D01*
X134306814Y-73266392D01*
X134434108Y-73300500D01*
X134434110Y-73300500D01*
X134565890Y-73300500D01*
X134565892Y-73300500D01*
X134693186Y-73266392D01*
X134807314Y-73200500D01*
X134900500Y-73107314D01*
X134966392Y-72993186D01*
X135000500Y-72865892D01*
X135000500Y-72734108D01*
X134966392Y-72606814D01*
X134900500Y-72492686D01*
X134807314Y-72399500D01*
X134750250Y-72366554D01*
X134693187Y-72333608D01*
X134629539Y-72316554D01*
X134565892Y-72299500D01*
X134434108Y-72299500D01*
X134306812Y-72333608D01*
X134192686Y-72399500D01*
X134192683Y-72399502D01*
X134099502Y-72492683D01*
X134099500Y-72492686D01*
X134033608Y-72606812D01*
X133999500Y-72734108D01*
X133000500Y-72734108D01*
X132966392Y-72606814D01*
X132900500Y-72492686D01*
X132807314Y-72399500D01*
X132750250Y-72366554D01*
X132693187Y-72333608D01*
X132629539Y-72316554D01*
X132565892Y-72299500D01*
X132434108Y-72299500D01*
X132306812Y-72333608D01*
X132192686Y-72399500D01*
X132192683Y-72399502D01*
X132099502Y-72492683D01*
X132099500Y-72492686D01*
X132033608Y-72606812D01*
X131999500Y-72734108D01*
X131000500Y-72734108D01*
X130966392Y-72606814D01*
X130900500Y-72492686D01*
X130807314Y-72399500D01*
X130750250Y-72366554D01*
X130693187Y-72333608D01*
X130629539Y-72316554D01*
X130565892Y-72299500D01*
X130434108Y-72299500D01*
X130306812Y-72333608D01*
X130192686Y-72399500D01*
X130192683Y-72399502D01*
X130099502Y-72492683D01*
X130099500Y-72492686D01*
X130033608Y-72606812D01*
X129999500Y-72734108D01*
X129000500Y-72734108D01*
X128966392Y-72606814D01*
X128900500Y-72492686D01*
X128807314Y-72399500D01*
X128750250Y-72366554D01*
X128693187Y-72333608D01*
X128629539Y-72316554D01*
X128565892Y-72299500D01*
X128434108Y-72299500D01*
X128306812Y-72333608D01*
X128192686Y-72399500D01*
X128192683Y-72399502D01*
X128099502Y-72492683D01*
X128099500Y-72492686D01*
X128033608Y-72606812D01*
X127999500Y-72734108D01*
X127000500Y-72734108D01*
X126966392Y-72606814D01*
X126900500Y-72492686D01*
X126807314Y-72399500D01*
X126750250Y-72366554D01*
X126693187Y-72333608D01*
X126629539Y-72316554D01*
X126565892Y-72299500D01*
X126434108Y-72299500D01*
X126306812Y-72333608D01*
X126192686Y-72399500D01*
X126192683Y-72399502D01*
X126099502Y-72492683D01*
X126099500Y-72492686D01*
X126033608Y-72606812D01*
X125999500Y-72734108D01*
X125000500Y-72734108D01*
X124966392Y-72606814D01*
X124900500Y-72492686D01*
X124807314Y-72399500D01*
X124750250Y-72366554D01*
X124693187Y-72333608D01*
X124629539Y-72316554D01*
X124565892Y-72299500D01*
X124434108Y-72299500D01*
X124306812Y-72333608D01*
X124192686Y-72399500D01*
X124192683Y-72399502D01*
X124099502Y-72492683D01*
X124099500Y-72492686D01*
X124033608Y-72606812D01*
X123999500Y-72734108D01*
X115420500Y-72734108D01*
X115420500Y-72044500D01*
X115440185Y-71977461D01*
X115492989Y-71931706D01*
X115544500Y-71920500D01*
X135776000Y-71920500D01*
X135843039Y-71940185D01*
G37*
G04 #@! TD.AperFunction*
M02*
