M48
; DRILL file {KiCad 9.0.1} date 2025-04-23T11:21:31+0200
; FORMAT={-:-/ absolute / metric / decimal}
; #@! TF.CreationDate,2025-04-23T11:21:31+02:00
; #@! TF.GenerationSoftware,Kicad,Pcbnew,9.0.1
; #@! TF.FileFunction,Plated,1,4,PTH
FMAT,2
METRIC
; #@! TA.AperFunction,Plated,PTH,ViaDrill
T1C0.300
; #@! TA.AperFunction,Plated,PTH,ComponentDrill
T2C1.000
; #@! TA.AperFunction,Plated,PTH,ComponentDrill
T3C3.200
%
G90
G05
T1
X116.0Y-115.3
X116.0Y-117.3
X116.0Y-119.3
X116.5Y-80.8
X116.5Y-82.8
X116.5Y-84.8
X116.5Y-100.8
X118.0Y-119.3
X118.5Y-80.8
X118.5Y-82.8
X118.5Y-84.8
X120.0Y-119.3
X120.5Y-80.8
X120.5Y-82.8
X120.5Y-84.8
X122.0Y-115.3
X122.0Y-117.3
X122.0Y-119.3
X122.5Y-80.8
X122.5Y-82.8
X122.5Y-84.8
X122.5Y-86.3
X122.5Y-87.3
X122.5Y-88.3
X122.5Y-89.3
X122.5Y-90.3
X122.5Y-91.3
X122.5Y-92.3
X122.5Y-93.3
X122.5Y-94.3
X122.5Y-95.3
X122.5Y-96.3
X122.5Y-97.3
X122.5Y-98.3
X122.5Y-99.3
X122.875Y-112.3
X123.5Y-86.3
X123.5Y-87.3
X123.5Y-88.3
X123.5Y-89.3
X123.5Y-90.3
X123.5Y-91.3
X123.5Y-92.3
X123.5Y-93.3
X123.5Y-94.3
X123.5Y-95.3
X123.5Y-96.3
X123.5Y-97.3
X123.5Y-98.3
X123.5Y-99.3
X124.0Y-115.3
X124.5Y-72.8
X124.5Y-74.8
X124.5Y-76.8
X124.5Y-78.8
X124.5Y-80.8
X124.5Y-82.8
X124.5Y-84.8
X124.5Y-86.3
X124.5Y-87.3
X124.5Y-88.3
X124.5Y-89.3
X124.5Y-90.3
X124.5Y-91.3
X124.5Y-92.3
X126.0Y-115.3
X126.5Y-72.8
X126.5Y-74.8
X126.5Y-76.8
X126.5Y-78.8
X126.5Y-80.8
X126.5Y-82.8
X126.5Y-84.8
X128.5Y-72.8
X128.5Y-74.8
X130.0Y-109.3
X130.45Y-111.5
X130.5Y-72.8
X130.5Y-74.8
X131.4Y-99.1
X131.4Y-100.2
X132.0Y-109.3
X132.0Y-111.3
X132.0Y-113.3
X132.0Y-115.3
X132.425Y-108.0
X132.5Y-72.8
X132.5Y-74.8
X132.5Y-99.1
X132.5Y-100.2
X132.8Y-91.7
X132.8Y-92.3
X133.4Y-91.7
X133.4Y-92.3
X133.6Y-99.1
X133.6Y-100.2
X133.7Y-94.3
X134.0Y-91.7
X134.0Y-92.3
X134.0Y-113.6
X134.5Y-72.8
X134.5Y-74.8
X134.5Y-94.9
X134.6Y-91.7
X134.6Y-92.3
X134.9Y-116.3
X135.4Y-117.0
X136.0Y-111.5
X136.0Y-118.3
X136.0Y-120.3
X136.5Y-72.8
X136.5Y-73.8
X136.5Y-74.8
X137.325Y-119.35
X137.5Y-72.8
X137.5Y-73.8
X137.5Y-74.8
X137.5Y-75.8
X137.5Y-76.8
X137.5Y-77.8
X137.5Y-78.8
X137.5Y-79.8
X137.5Y-80.8
X137.5Y-81.8
X137.5Y-82.8
X137.5Y-83.8
X137.5Y-84.8
X137.5Y-85.8
X137.5Y-86.8
X137.9Y-89.4
X137.9Y-90.7
X137.9Y-92.0
X137.9Y-93.3
X137.9Y-94.6
X137.9Y-95.9
X138.5Y-72.8
X138.5Y-73.8
X138.5Y-74.8
X138.5Y-75.8
X138.5Y-76.8
X138.5Y-77.8
X138.5Y-78.8
X138.5Y-79.8
X138.5Y-80.8
X138.5Y-81.8
X138.5Y-82.8
X138.5Y-83.8
X138.5Y-84.8
X138.5Y-85.8
X138.5Y-86.8
X138.5Y-87.8
X138.8Y-89.4
X138.8Y-90.7
X138.8Y-92.0
X138.8Y-93.3
X138.8Y-94.6
X138.8Y-95.9
X139.5Y-72.8
X139.5Y-73.8
X139.5Y-74.8
X139.5Y-75.8
X139.5Y-76.8
X139.5Y-77.8
X139.5Y-78.8
X139.5Y-79.8
X139.5Y-80.8
X139.5Y-81.8
X139.5Y-82.8
X139.5Y-83.8
X139.5Y-84.8
X139.5Y-85.8
X139.5Y-86.8
X139.5Y-87.8
X139.6Y-89.4
X139.6Y-90.7
X139.6Y-92.0
X139.6Y-93.3
X139.6Y-94.6
X139.6Y-95.9
X140.5Y-72.8
X140.5Y-73.8
X140.5Y-74.8
X140.5Y-75.8
X140.5Y-76.8
X140.5Y-77.8
X140.5Y-78.8
X140.5Y-79.8
X140.5Y-80.8
X140.5Y-81.8
X140.5Y-82.8
X140.5Y-83.8
X140.5Y-84.8
X140.5Y-85.8
X140.5Y-86.8
X141.0Y-109.3
X141.0Y-111.3
X141.2Y-113.55
X141.6Y-97.8
X142.0Y-112.3
X142.5Y-72.8
X142.5Y-74.8
X143.0Y-88.45
X143.0Y-91.7
X143.0Y-92.3
X143.0Y-94.3
X143.0Y-119.3
X143.3Y-96.7
X143.6Y-116.3
X143.7Y-91.7
X143.7Y-92.3
X143.7Y-117.0
X144.0Y-120.3
X144.3Y-111.5
X144.4Y-91.7
X144.4Y-92.3
X144.5Y-72.8
X144.5Y-74.8
X145.1Y-91.7
X145.1Y-92.3
X146.5Y-72.8
X146.5Y-74.8
X146.5Y-114.3
X148.15Y-110.3
X148.5Y-72.8
X148.5Y-74.8
X149.225Y-112.25
X150.1Y-98.3
X150.5Y-72.8
X150.5Y-74.8
X150.5Y-76.8
X150.5Y-78.8
X150.5Y-80.8
X150.5Y-82.8
X150.5Y-84.8
X150.5Y-114.3
X151.0Y-98.3
X152.5Y-72.8
X152.5Y-74.8
X152.5Y-76.8
X152.5Y-78.8
X152.5Y-80.8
X152.5Y-82.8
X152.5Y-84.8
X152.5Y-114.3
X152.75Y-86.55
X152.75Y-87.55
X152.75Y-88.55
X152.75Y-89.55
X152.75Y-90.55
X152.75Y-91.55
X152.75Y-92.55
X152.75Y-93.55
X152.75Y-94.55
X152.75Y-95.55
X153.75Y-86.55
X153.75Y-87.55
X153.75Y-88.55
X153.75Y-89.55
X153.75Y-90.55
X153.75Y-91.55
X153.75Y-92.55
X153.75Y-93.55
X153.75Y-94.55
X153.75Y-95.55
X153.75Y-96.55
X153.75Y-97.55
X153.75Y-98.55
X154.5Y-72.8
X154.5Y-76.8
X154.5Y-78.8
X154.5Y-80.8
X154.5Y-82.8
X154.5Y-84.8
X154.75Y-86.55
X154.75Y-87.55
X154.75Y-88.55
X154.75Y-89.55
X154.75Y-90.55
X154.75Y-91.55
X154.75Y-92.55
X154.75Y-93.55
X154.75Y-94.55
X154.75Y-95.55
X154.75Y-96.55
X154.75Y-97.55
X154.75Y-98.55
X156.5Y-80.8
X156.5Y-82.8
X156.5Y-84.8
X157.225Y-115.7
X158.5Y-80.8
X158.5Y-82.8
X158.5Y-84.8
X158.5Y-116.3
X158.5Y-118.3
X158.5Y-120.3
X160.5Y-80.8
X160.5Y-82.8
X160.5Y-84.8
X160.5Y-116.3
X160.5Y-118.3
X160.5Y-120.3
X162.5Y-80.8
X162.5Y-82.8
X162.5Y-84.8
X162.5Y-86.8
X162.5Y-88.8
X162.5Y-90.8
X162.5Y-92.8
X162.5Y-94.8
X162.5Y-96.8
X162.5Y-98.8
X162.5Y-100.8
X162.5Y-116.3
X162.5Y-118.3
X162.5Y-120.3
T2
X125.53Y-118.65
X128.07Y-118.65
X130.61Y-118.65
X133.15Y-118.65
X146.69Y-118.65
X149.23Y-118.65
X151.77Y-118.65
X154.31Y-118.65
T3
X119.9Y-76.4
X160.0Y-76.4
M30
